<?xml version="1.0" encoding="utf-8"?>
<!-- Generator: Adobe Illustrator 16.0.0, SVG Export Plug-In . SVG Version: 6.00 Build 0)  -->
<!DOCTYPE svg PUBLIC "-//W3C//DTD SVG 1.1//EN" "http://www.w3.org/Graphics/SVG/1.1/DTD/svg11.dtd">
<svg version="1.1" id="Calque_2" xmlns="http://www.w3.org/2000/svg" xmlns:xlink="http://www.w3.org/1999/xlink" viewBox="0 0 432 432" enable-background="new 0 0 432 432" xml:space="preserve">
    <style type="text/css">
        path, polygon, ellipse{
            cursor: pointer;
            fill: #fff;
            stroke: #000;
            stroke-opacity: 0.8;
        }
    </style>
<pattern  x="-1360.8" y="-453.6" width="50.497" height="50.498" patternUnits="userSpaceOnUse" id="New_Pattern_Swatch_3" viewBox="0 -50.498 50.497 50.498" overflow="visible">
	<g>
		<polygon fill="none" points="0,0 50.497,0 50.497,-50.498 0,-50.498 		"/>
		<polygon fill="#23272A" points="50.497,0 0,0 0,-50.498 50.497,-50.498 		"/>
	</g>
</pattern>
<g>
	<path fill="#DA8067" d="M363.727,304.719c1.216-4.785-4.926-4.469-7.134-1.891c-0.944,1.191-2.547,3.754-3.012,5.443
		c-1.356,4.697,3.317,11.785,8.621,11.541c5.075-0.193,5.647-4.59,3.817-8.309c7.462-0.742,1.145-8.791-2.416-6.268L363.727,304.719
		z"/>
	<g>
		<path fill="#C72327" d="M360.38,309.188c0.399-0.445,0.706-0.895,0.915-1.461c0.199-0.533-0.631-0.904-0.909-0.408
			c-0.352,0.621-0.552,1.27-0.687,1.971c0.328,0.053,0.658,0.107,0.986,0.16c-0.038-0.398-0.15-0.779-0.189-1.174
			c-0.043-0.453-0.652-0.764-0.929-0.285c-0.398,0.695-0.567,1.436-0.128,2.152c0.16,0.264,0.546,0.383,0.787,0.137
			c0.441-0.447,0.921-0.846,1.424-1.221c-0.226-0.248-0.454-0.492-0.68-0.742c-0.355,0.393-0.67,0.816-1.021,1.209
			c-0.309,0.342-0.077,1.021,0.452,0.861c0.5-0.15,0.977-0.086,1.485-0.033c-0.072-0.314-0.146-0.633-0.219-0.949
			c-0.467,0.252-0.957,0.35-1.48,0.404c-0.479,0.053-0.465,0.691-0.156,0.918c0.37,0.27,0.646,0.639,0.953,0.973
			c0.172-0.277,0.344-0.553,0.516-0.826c-0.438-0.15-0.837-0.234-1.161-0.594c-0.39-0.434-1.063,0.066-0.817,0.574
			c0.189,0.393,0.404,0.771,0.592,1.164c0.238-0.221,0.475-0.439,0.714-0.66c-0.175-0.145-0.335-0.309-0.509-0.453
			c-0.395-0.324-0.954,0.25-0.716,0.66c0.211,0.357,0.473,0.625,0.752,0.928c0.442,0.477,1.184-0.205,0.743-0.682
			c-0.215-0.232-0.436-0.434-0.602-0.713c-0.238,0.221-0.476,0.441-0.713,0.66c0.174,0.145,0.335,0.309,0.51,0.451
			c0.413,0.342,0.911-0.25,0.714-0.658c-0.19-0.395-0.403-0.771-0.593-1.164c-0.272,0.191-0.545,0.383-0.816,0.572
			c0.451,0.504,0.99,0.666,1.611,0.881c0.482,0.166,0.846-0.467,0.518-0.824c-0.373-0.402-0.712-0.814-1.159-1.143
			c-0.052,0.305-0.103,0.613-0.154,0.918c0.608-0.064,1.183-0.203,1.723-0.494c0.467-0.252,0.271-0.896-0.219-0.949
			c-0.597-0.063-1.159-0.117-1.739,0.061c0.148,0.285,0.3,0.572,0.453,0.861c0.353-0.395,0.668-0.818,1.02-1.211
			c0.438-0.484-0.16-1.131-0.68-0.742c-0.506,0.375-0.985,0.771-1.427,1.221c0.264,0.047,0.525,0.09,0.787,0.137
			c-0.251-0.41-0.136-0.754,0.091-1.146c-0.311-0.096-0.622-0.189-0.932-0.283c0.037,0.396,0.15,0.779,0.189,1.174
			c0.049,0.516,0.867,0.771,0.985,0.16c0.118-0.607,0.267-1.184,0.574-1.727c-0.304-0.139-0.606-0.275-0.909-0.412
			c-0.145,0.391-0.352,0.693-0.631,1.006C359.27,308.926,359.949,309.672,360.38,309.188L360.38,309.188z"/>
	</g>
	<g>
		<path fill="#FECE91" d="M360.174,309.262c-0.053,0.025-0.043,0.025,0.025-0.006c-0.101,0.029,0.114-0.002,0.02-0.002
			c-0.079,0-0.162,0-0.238,0.025c-0.263,0.092-0.411,0.279-0.483,0.547c-0.081,0.295,0.101,0.686,0.403,0.779
			c0.142,0.041,0.277,0.02,0.408-0.039c0.025-0.01,0.045-0.021,0.066-0.033c-0.021,0.008-0.041,0.014-0.063,0.021
			c0.049-0.014,0.048-0.014-0.004,0c0.65,0.02,0.682-0.988,0.03-1.006c-0.095-0.004-0.194,0.002-0.284,0.035
			c-0.051,0.014-0.101,0.035-0.148,0.057c-0.131,0.063,0.065-0.035,0.154-0.021c0.084,0.023,0.166,0.051,0.252,0.074
			c-0.004-0.002-0.009-0.006-0.012-0.008c0.059,0.063,0.118,0.127,0.177,0.191c-0.046-0.068,0.033,0.139-0.007-0.023
			c-0.002,0.088-0.006,0.172-0.008,0.258c0.007-0.029,0.018-0.061,0.028-0.09c-0.034,0.119-0.122,0.197-0.267,0.232
			c-0.117,0.041-0.083,0.008-0.011,0.008c0.15-0.002,0.294-0.035,0.426-0.107c0.244-0.133,0.341-0.436,0.214-0.68
			C360.729,309.233,360.414,309.131,360.174,309.262L360.174,309.262z"/>
	</g>
</g>
<g>
	<path fill="#E9B7A4" d="M345.001,274.442c-3.089-0.93-6.868-1.381-8.063,2.506c-0.617,2.057,0.004,5.912,1.242,7.709
		c3.001,4.049,7.9,1.689,10.506-1.334c1.875,3.602,4.85,9.098,9.686,5.758c4.008-2.768,2.899-7.918-0.314-10.799
		c2.816-1.537,6.067-2.148,5.256-6.279c-0.41-2.369-2.968-4.889-5.121-5.646c-1.688-0.672-2.881,0.559-4.281,0.301
		c-1.773-0.203-1.314-0.723-2.502-2.148c-2.322-2.477-4.925-2.107-6.924,0.904c-1.864,2.918-0.881,6.115,0.889,8.975"/>
	<g>
		<path fill="#C72327" d="M349.829,275.27c-0.528,0.078-1.044,0.166-1.552,0.33c-0.506,0.166-0.391,0.854,0.074,0.973
			c0.703,0.18,1.458,0.139,2.121,0.451c0.018-0.311,0.032-0.621,0.049-0.932c-0.494,0.211-0.941,0.494-1.383,0.797
			c-0.538,0.369,0.025,1.17,0.573,0.828c0.382-0.238,0.79-0.428,1.169-0.67c-0.26-0.168-0.521-0.336-0.781-0.506
			c-0.113,0.682-0.174,1.354,0.018,2.025c0.098,0.35,0.649,0.477,0.861,0.158c0.41-0.617,0.633-1.133,0.558-1.891
			c-0.308,0.107-0.611,0.217-0.916,0.324c0.323,0.389,0.782,0.623,1.101,1.008c0.348,0.41,1.111,0.111,0.891-0.453
			c-0.248-0.641-0.578-1.154-1.105-1.602c-0.096,0.297-0.19,0.592-0.285,0.889c0.621,0.006,1.239-0.066,1.861-0.061
			c0.57,0.006,0.623-0.957,0.053-0.998c-0.523-0.041-1.031-0.15-1.558-0.109c0.164,0.24,0.329,0.479,0.493,0.715
			c0.184-0.461,0.21-0.881,0.268-1.367c0.057-0.463-0.563-0.85-0.881-0.414c-0.336,0.461-0.602,0.932-0.74,1.484
			c0.322-0.023,0.646-0.049,0.971-0.072c-0.182-0.465-0.4-0.926-0.495-1.418c-0.101-0.514-0.938-0.67-0.999-0.053
			c-0.046,0.484,0.01,0.949,0.077,1.432c0.306-0.107,0.61-0.215,0.917-0.324c-0.342-0.492-0.68-0.982-1.019-1.475
			c-0.316-0.459-1.116-0.08-0.89,0.453c0.209,0.492,0.404,0.986,0.614,1.48c0.295-0.15,0.593-0.301,0.89-0.453
			c-0.251-0.328-0.539-0.621-0.792-0.949c-0.277-0.359-1.017-0.207-0.917,0.324c0.09,0.473,0.271,0.758,0.568,1.143
			c0.397,0.51,1.227-0.061,0.829-0.572c-0.159-0.207-0.343-0.381-0.393-0.646c-0.306,0.109-0.611,0.215-0.917,0.324
			c0.254,0.328,0.544,0.621,0.793,0.949c0.33,0.438,1.119,0.094,0.889-0.451c-0.207-0.492-0.404-0.988-0.614-1.48
			c-0.297,0.152-0.592,0.301-0.89,0.451c0.34,0.492,0.678,0.982,1.019,1.477c0.274,0.395,0.987,0.184,0.917-0.326
			c-0.055-0.389-0.129-0.783-0.091-1.174c-0.333-0.018-0.665-0.035-0.999-0.053c0.115,0.584,0.334,1.119,0.549,1.672
			c0.189,0.486,0.85,0.412,0.973-0.076c0.096-0.379,0.293-0.703,0.521-1.02c-0.295-0.137-0.587-0.275-0.881-0.414
			c-0.048,0.396-0.039,0.744-0.189,1.125c-0.137,0.344,0.1,0.746,0.494,0.715c0.438-0.035,0.865,0.061,1.303,0.094
			c0.018-0.332,0.033-0.664,0.051-0.998c-0.623-0.006-1.239,0.066-1.862,0.063c-0.459-0.006-0.603,0.621-0.284,0.887
			c0.392,0.332,0.617,0.688,0.802,1.162c0.296-0.15,0.593-0.303,0.89-0.451c-0.325-0.387-0.781-0.623-1.103-1.008
			c-0.303-0.359-0.972-0.213-0.917,0.324c0.048,0.486-0.061,0.771-0.326,1.168c0.289,0.053,0.574,0.104,0.864,0.158
			c-0.142-0.496-0.063-1.014,0.02-1.514c0.073-0.443-0.41-0.742-0.78-0.506c-0.379,0.242-0.787,0.434-1.17,0.672
			c0.191,0.275,0.383,0.551,0.573,0.828c0.366-0.25,0.731-0.498,1.14-0.674c0.396-0.168,0.471-0.732,0.049-0.932
			c-0.753-0.354-1.573-0.328-2.366-0.529c0.026,0.322,0.052,0.646,0.075,0.971c0.425-0.139,0.854-0.211,1.295-0.277
			C350.546,276.184,350.472,275.18,349.829,275.27L349.829,275.27z"/>
	</g>
	<g>
		<path fill="#FECE91" d="M350.017,276.487c0.085,0.109,0.163,0.182,0.284,0.248c0.074,0.043,0.342,0.119,0.084,0.031
			c0.016-0.311,0.031-0.619,0.047-0.934c0.223-0.053,0.111-0.021,0.059-0.012c-0.086,0.018-0.168,0.037-0.252,0.061
			c0.15,0.297,0.302,0.592,0.451,0.889c0.01-0.006,0.02-0.012,0.028-0.018c-0.087,0.057-0.187,0.076-0.296,0.057
			c-0.078-0.035-0.154-0.074-0.233-0.111c-0.112-0.092-0.18-0.451-0.161-0.256c0.018,0.186,0.128,0.357,0.299,0.438
			c0.33,0.152,0.59-0.08,0.805-0.299c0.193-0.197,0.133-0.541-0.064-0.711c-0.141-0.119-0.308-0.236-0.504-0.217
			c-0.264,0.025-0.525,0.27-0.48,0.555c0.035,0.219,0.158,0.402,0.283,0.584c0.368,0.533,1.196-0.039,0.828-0.572
			c-0.031-0.045-0.061-0.09-0.089-0.133c-0.021-0.031-0.038-0.064-0.059-0.098c-0.026-0.049-0.018-0.029,0.028,0.059
			c-0.033-0.088-0.029-0.018,0.008,0.203c-0.037,0.078-0.072,0.154-0.11,0.234c0.001-0.004,0.003-0.004,0.007-0.006
			c-0.119,0.059-0.234,0.119-0.35,0.176c-0.299-0.125-0.391-0.148-0.276-0.068c0.022,0.018,0.044,0.037,0.067,0.059
			c-0.021-0.238-0.041-0.477-0.062-0.711c-0.015,0.014-0.149,0.139-0.033,0.035c-0.057,0.049-0.079,0.016,0.057-0.021
			c0.087-0.008,0.173-0.014,0.259-0.021c-0.004,0-0.008,0-0.01,0c0.078,0.037,0.156,0.074,0.232,0.109
			c0.144,0.096,0.176,0.459,0.168,0.273c-0.009-0.141-0.08-0.287-0.188-0.375c-0.228-0.188-0.497-0.143-0.726,0.008
			c-0.188,0.121-0.262,0.373-0.188,0.58c0.094,0.271,0.375,0.383,0.641,0.311c0.029-0.01,0.059-0.018,0.088-0.025
			c-0.074,0.014-0.088,0.018-0.047,0.008c0.051-0.006,0.102-0.016,0.152-0.027c0.412-0.105,0.459-0.793,0.046-0.934
			c-0.046-0.016-0.091-0.033-0.14-0.041c0.1,0.033,0.127,0.041,0.078,0.02c0.023,0.018,0.046,0.029,0.07,0.049
			c-0.039-0.035-0.029-0.023,0.027,0.031c-0.167-0.217-0.464-0.289-0.699-0.127C349.93,275.934,349.851,276.268,350.017,276.487
			L350.017,276.487z"/>
	</g>
</g>
<g>
	<path fill="#E41E25" d="M394.511,293.991c-3.61-1.209-8.958-3.814-11.259,0.834c-1.67,3.195-0.221,6.479,2.281,8.625
		c-2.391,1.857-0.707,5.184,1.32,6.641c3.013,2,4.502-0.865,7.125-0.021c2.855,0.885,5.21,2.521,6.777-1.416
		c1.256-2.908-0.504-5.162-0.871-7.764C399.35,296.569,399.285,295.592,394.511,293.991z"/>
	<g>
		<path fill="#C72327" d="M391.193,300.743c-0.449-0.408-0.936-0.74-1.463-1.043c-0.359-0.205-0.88,0.236-0.688,0.623
			c0.369,0.75,0.889,1.242,1.706,1.457c0.062-0.328,0.121-0.66,0.183-0.99c-0.411-0.043-0.809,0.049-1.212,0.02
			c-0.39-0.029-0.81,0.402-0.505,0.781c0.513,0.633,1.152,0.83,1.953,0.813c-0.067-0.326-0.137-0.65-0.203-0.977
			c-0.609,0.285-1.121,0.639-1.604,1.105c-0.418,0.404,0.217,1.055,0.672,0.738c0.452-0.314,0.867-0.637,1.17-1.102
			c-0.295-0.096-0.59-0.191-0.888-0.285c0.03,0.723-0.025,1.447,0.005,2.172c0.025,0.611,0.848,0.572,0.998,0.053
			c0.178-0.609,0.236-1.242,0.342-1.867c-0.323,0.025-0.648,0.049-0.971,0.076c0.257,0.52,0.608,0.941,0.95,1.408
			c0.385,0.525,1.179-0.025,0.829-0.572c-0.262-0.41-0.473-0.85-0.732-1.26c-0.17,0.26-0.338,0.52-0.507,0.779
			c0.648,0.188,1.3,0.221,1.962,0.104c0.49-0.088,0.647-0.711,0.176-0.959c-0.502-0.264-1.007-0.43-1.559-0.545
			c-0.018,0.334-0.036,0.666-0.054,0.998c0.557-0.002,1.094-0.096,1.643-0.182c0.653-0.1,0.569-0.98-0.075-1.004
			c-0.579-0.021-1.135-0.02-1.706,0.09c0.165,0.238,0.328,0.475,0.493,0.715c0.279-0.754,0.631-1.422,0.574-2.246
			c-0.036-0.498-0.754-0.643-0.959-0.178c-0.267,0.609-0.471,1.221-0.602,1.873c0.324-0.025,0.648-0.051,0.973-0.076
			c-0.11-0.496-0.356-0.924-0.551-1.389c-0.232-0.549-0.957-0.359-0.979,0.205c-0.018,0.475-0.081,0.869,0.047,1.338
			c0.315-0.111,0.633-0.221,0.951-0.332c-0.131-0.359-0.32-0.688-0.451-1.049c-0.189-0.518-1.084-0.373-0.979,0.203
			c0.095,0.514,0.239,0.998,0.421,1.488c0.227,0.609,1.178,0.277,0.951-0.332c-0.15-0.404-0.29-0.803-0.367-1.232
			c-0.328,0.07-0.652,0.137-0.978,0.205c0.13,0.357,0.319,0.688,0.452,1.049c0.225,0.617,1.117,0.287,0.951-0.332
			c-0.096-0.35-0.008-0.725,0.006-1.082c-0.324,0.066-0.651,0.135-0.978,0.203c0.196,0.465,0.441,0.893,0.55,1.389
			c0.114,0.52,0.879,0.379,0.971-0.076c0.115-0.566,0.291-1.096,0.523-1.625c-0.319-0.059-0.638-0.117-0.959-0.176
			c0.045,0.639-0.267,1.166-0.48,1.746c-0.117,0.314,0.09,0.791,0.494,0.715c0.572-0.107,1.127-0.111,1.706-0.09
			c-0.024-0.334-0.05-0.67-0.075-1.004c-0.549,0.084-1.086,0.178-1.642,0.182c-0.59,0-0.599,0.887-0.054,0.996
			c0.473,0.1,0.888,0.242,1.314,0.467c0.056-0.32,0.115-0.639,0.174-0.959c-0.586,0.105-1.132,0.074-1.704-0.088
			c-0.449-0.129-0.722,0.445-0.506,0.781c0.263,0.41,0.473,0.852,0.734,1.262c0.277-0.189,0.552-0.381,0.829-0.572
			c-0.281-0.385-0.614-0.74-0.829-1.168c-0.206-0.418-0.878-0.473-0.972,0.074c-0.104,0.625-0.163,1.256-0.342,1.869
			c0.333,0.018,0.666,0.033,0.998,0.053c-0.031-0.727,0.025-1.449-0.004-2.174c-0.017-0.412-0.641-0.666-0.887-0.285
			c-0.259,0.391-0.592,0.652-0.973,0.92c0.225,0.244,0.449,0.49,0.673,0.736c0.349-0.338,0.721-0.594,1.159-0.801
			c0.512-0.238,0.393-0.99-0.201-0.979c-0.41,0.008-0.771-0.039-1.047-0.381c-0.17,0.262-0.338,0.521-0.506,0.781
			c0.407,0.031,0.805-0.063,1.21-0.02c0.647,0.068,0.811-0.824,0.183-0.99c-0.438-0.115-0.74-0.396-0.939-0.799
			c-0.229,0.207-0.456,0.416-0.688,0.623c0.451,0.258,0.856,0.553,1.241,0.902C391.025,301.952,391.672,301.182,391.193,300.743
			L391.193,300.743z"/>
	</g>
	<g>
		<path fill="#FECE91" d="M390.68,301.938c0.203,0.248,0.629,0.385,0.898,0.146c0.221-0.191,0.266-0.404,0.207-0.684
			c-0.043-0.205-0.236-0.393-0.374-0.537c-0.259-0.275-0.776-0.055-0.818,0.297c-0.032,0.262,0.017,0.502,0.139,0.736
			c0.103,0.201,0.401,0.285,0.6,0.209c0.2-0.078,0.3-0.227,0.351-0.426c0.07-0.268-0.147-0.539-0.403-0.586
			c-0.286-0.051-0.517,0.139-0.588,0.404c0.009-0.027,0.018-0.055,0.026-0.086c0.097-0.088,0.193-0.176,0.292-0.262
			c-0.003,0-0.008,0.002-0.009,0.002c0.125,0.008,0.252,0.014,0.378,0.021c-0.003-0.002-0.005-0.004-0.008-0.006
			c0.065,0.057,0.134,0.113,0.2,0.17c-0.027-0.035-0.016-0.016,0.03,0.063c-0.008-0.02-0.013-0.041-0.017-0.063
			c0.012,0.066,0.014,0.07,0.006,0.016c-0.004-0.037,0.011-0.146-0.006-0.014c-0.272,0.098-0.547,0.195-0.819,0.295
			c-0.026-0.027-0.022-0.025,0.015,0.02c0.025,0.029,0.049,0.064,0.07,0.1c-0.035-0.076-0.042-0.092-0.023-0.045
			c0.003,0.008,0.006,0.016,0.008,0.023c-0.035-0.1-0.03-0.197,0.018-0.297c0.053-0.109,0.135-0.184,0.244-0.223
			c-0.062,0.031,0.145-0.018,0.074-0.016c0.144-0.006,0.226,0.033,0.338,0.17c-0.174-0.211-0.458-0.293-0.7-0.129
			C390.598,301.385,390.505,301.729,390.68,301.938L390.68,301.938z"/>
	</g>
</g>
<g>
	<path fill-rule="evenodd" clip-rule="evenodd" fill="#F4816C" d="M339.001,199.354c-0.463,3.074,4.561,6.62,6.666,5.9
		c2.865-0.977,1.587-3.993,1.641-4.297c0.059-0.304,2.328-2.666,0-4.601C345.597,194.936,339.664,196.32,339.001,199.354
		L339.001,199.354z"/>
	<path fill-rule="evenodd" clip-rule="evenodd" fill="#F4816C" d="M338.38,198.23c2.779,1.389,7.699-2.299,7.668-4.522
		c-0.046-3.026-3.309-2.738-3.582-2.887c-0.273-0.147-1.814-3.035-4.375-1.42C336.21,190.589,335.694,196.662,338.38,198.23
		L338.38,198.23z"/>
	<path fill-rule="evenodd" clip-rule="evenodd" fill="#F4816C" d="M337.116,198.473c2.179-2.216,0.189-8.036-1.935-8.69
		c-2.894-0.888-3.626,2.302-3.851,2.515c-0.227,0.215-3.449,0.793-2.701,3.724C329.181,198.178,334.799,200.541,337.116,198.473
		L337.116,198.473z"/>
	<path fill-rule="evenodd" clip-rule="evenodd" fill="#F4816C" d="M336.96,199.749c-1.438-2.755-7.586-2.657-8.863-0.839
		c-1.739,2.478,1.072,4.157,1.203,4.439c0.137,0.281-0.31,3.526,2.71,3.717C334.229,207.208,338.212,202.595,336.96,199.749
		L336.96,199.749z"/>
	<path fill-rule="evenodd" clip-rule="evenodd" fill="#F4816C" d="M338.125,200.292c-3.064,0.518-4.872,6.396-3.534,8.171
		c1.819,2.422,4.285,0.268,4.594,0.226c0.308-0.041,3.256,1.384,4.369-1.43C344.377,205.188,341.216,199.977,338.125,200.292
		L338.125,200.292z"/>
	<path fill-rule="evenodd" clip-rule="evenodd" fill="#FDC271" d="M340.45,199.193c0.445-0.085,0.838-0.214,1.073-0.4
		c-0.31-0.145-0.811-0.17-1.339-0.129c1.432-0.539,3.098-1.395,3.661-2.256c-1.069-0.116-2.889,0.706-4.233,1.506
		c0.419-0.436,0.768-0.906,0.855-1.281c-0.416,0.104-0.725,0.129-1.191,0.611c0.657-1.206,1.406-2.944,1.519-4.08
		c-0.909,0.845-1.698,2.408-2.236,3.558c0-0.315,0.063-0.981-0.026-1.188c-0.142,0.172-0.352,0.522-0.443,0.826
		c-0.093-1.404-0.371-2.939-0.936-3.658c-0.45,0.973-0.258,2.965,0.07,4.492c-0.277-0.535-0.613-1.018-0.938-1.219
		c-0.033,0.389,0.161,0.955,0.433,1.509c-1.037-1.181-2.533-2.53-3.592-2.748c0.248,0.906,1.373,2.084,2.479,3.003
		c-0.342-0.126-0.667-0.206-0.916-0.187c0.139,0.232,0.421,0.469,0.76,0.69c-1.416-0.37-3.08-0.604-3.975-0.269
		c0.777,0.717,2.684,1.131,4.227,1.286c-0.566,0.098-1.096,0.262-1.376,0.499c0.329,0.143,0.859,0.145,1.409,0.08
		c-1.422,0.595-3.095,1.528-3.629,2.428c0.947,0.061,2.451-0.628,3.692-1.377c-0.248,0.293-0.438,0.588-0.503,0.843
		c0.244-0.055,0.534-0.218,0.827-0.443c-0.8,1.199-1.546,2.648-1.527,3.589c0.948-0.503,1.991-2.207,2.653-3.624
		c-0.1,0.596-0.127,1.178,0.012,1.54c0.268-0.301,0.457-0.895,0.572-1.516c0.123,1.575,0.516,3.585,1.243,4.399
		c0.372-0.951,0.103-2.781-0.284-4.259c0.27,0.444,0.571,0.825,0.863,0.995c0.014-0.272-0.084-0.621-0.24-0.988
		c0.965,1.097,2.201,2.219,3.131,2.442c-0.23-0.97-1.438-2.281-2.572-3.264c0.436,0.189,0.854,0.314,1.166,0.294
		c-0.152-0.252-0.466-0.51-0.842-0.744c1.438,0.368,3.158,0.607,4.07,0.257C343.636,199.75,341.932,199.363,340.45,199.193
		L340.45,199.193z"/>
	<path fill-rule="evenodd" clip-rule="evenodd" fill="#F0F1F6" d="M339.813,199.571c0.195-1.049-0.5-2.058-1.548-2.251
		s-2.056,0.504-2.251,1.552c-0.193,1.047,0.503,2.055,1.551,2.249C338.614,201.313,339.62,200.618,339.813,199.571L339.813,199.571z
		"/>
</g>
<g>
	<g>
		<path fill="#58595B" d="M364.682,143.026c0.115-0.154,0.025-0.322-0.072-0.463c-0.094-0.135-0.333-0.398-0.514-0.307
			c-0.027,0.014-0.045,0.047-0.038,0.078c0.03,0.139,0.224,0.214,0.316,0.313c0.099,0.105,0.163,0.249,0.235,0.373
			C364.625,143.049,364.662,143.051,364.682,143.026L364.682,143.026z"/>
		<path fill="#58595B" d="M364.669,142.936c-0.164-0.067-0.326-0.055-0.495-0.013c-0.142,0.034-0.347,0.091-0.413,0.233
			c-0.014,0.029,0.01,0.067,0.038,0.074c0.128,0.033,0.265-0.053,0.385-0.09c0.148-0.044,0.306-0.063,0.459-0.068
			C364.723,143.069,364.742,142.966,364.669,142.936L364.669,142.936z"/>
		<path fill="#58595B" d="M364.643,143.06c0.23,0.03,0.274,0.345,0.454,0.444c0.026,0.015,0.065,0,0.065-0.033
			c0.002-0.132-0.101-0.252-0.181-0.349c-0.083-0.1-0.2-0.179-0.331-0.178C364.576,142.946,364.571,143.05,364.643,143.06
			L364.643,143.06z"/>
		<path fill="#58595B" d="M367.042,138.99c-0.515,0.464-0.87,1.163-1.239,1.749c-0.455,0.721-0.904,1.454-1.26,2.23
			c-0.061,0.128,0.15,0.195,0.208,0.067c0.345-0.761,0.784-1.478,1.224-2.186c0.365-0.592,0.865-1.19,1.088-1.85
			C367.065,138.991,367.051,138.981,367.042,138.99L367.042,138.99z"/>
	</g>
	<g>
		<path fill="#58595B" d="M363.775,137.54c-0.489,0.615-0.952,1.246-1.453,1.853c-0.467,0.566-1.089,1.209-1.326,1.916
			c-0.03,0.089,0.091,0.138,0.143,0.068c0.212-0.281,0.374-0.604,0.577-0.894c0.239-0.34,0.503-0.663,0.767-0.986
			c0.487-0.601,1.053-1.207,1.383-1.914C363.892,137.528,363.809,137.5,363.775,137.54L363.775,137.54z"/>
		<path fill="#58595B" d="M361.128,141.321c-0.019-0.211-0.17-0.376-0.328-0.502c-0.119-0.092-0.38-0.227-0.495-0.066
			c-0.012,0.017-0.01,0.041,0.005,0.057c0.085,0.101,0.265,0.107,0.377,0.184c0.14,0.094,0.241,0.246,0.344,0.377
			C361.069,141.418,361.133,141.372,361.128,141.321L361.128,141.321z"/>
		<path fill="#58595B" d="M361.102,141.288c-0.148-0.073-0.283-0.096-0.448-0.063c-0.122,0.025-0.347,0.092-0.37,0.23
			c-0.004,0.021,0.016,0.049,0.036,0.053c0.11,0.023,0.231-0.087,0.339-0.119c0.121-0.037,0.273-0.039,0.398-0.006
			C361.111,141.397,361.158,141.316,361.102,141.288L361.102,141.288z"/>
		<path fill="#58595B" d="M361.081,141.374c0.097-0.023,0.193,0.008,0.282,0.048c0.094,0.042,0.195,0.146,0.301,0.141
			c0.035-0.001,0.054-0.03,0.041-0.062c-0.043-0.113-0.225-0.18-0.332-0.219c-0.109-0.04-0.215-0.039-0.319,0.014
			C361.013,141.316,361.035,141.385,361.081,141.374L361.081,141.374z"/>
	</g>
	<path fill="#F79867" d="M361.902,122.289c-0.421-0.93-1.119-1.979-1.706-2.893c0.162,0.418,0.196,0.938,0.321,1.364
		c0.105,0.412,0.275,0.866,0.322,1.271c-0.766,0.122-1.85,0.254-2.548,0.607c0.812,0.094,1.62,0.095,2.417,0.211
		c0.428,0.062,0.471,0.09,0.772-0.18C361.626,122.544,361.758,122.413,361.902,122.289z"/>
	<path fill="#D89C78" d="M390.017,136.317c0.089-0.771-1.07-0.972-1.894-1.024c0.777-0.223,1.785-0.651,1.706-1.381
		c-0.04-0.359-0.526-0.501-0.815-0.553c-0.488-0.087-0.993-0.085-1.498-0.04c0.776-0.27,1.477-0.69,1.202-1.422
		c-0.255-0.681-1.26-0.554-1.816-0.469c-1.269,0.192-2.504,0.675-3.688,1.152c-1.362,0.552-2.696,1.181-4.002,1.858
		c-0.59,0.307-1.185,0.605-1.776,0.908c-0.359,0.183-1.472,0.425-1.61,0.848c-0.167,0.506,1.444,0.8,1.821,0.911
		c0.805,0.238,1.645,0.203,2.469,0.296c1.969,0.222,4.016,0.35,5.98,0.223c0.757-0.049,1.5-0.211,2.229-0.41
		C388.82,137.079,389.939,136.983,390.017,136.317z"/>
	<path fill="#D89C78" d="M381.295,134.985c-1.361-0.359-2.687-0.877-3.841-1.689c-1.401-0.986-2.504-2.313-3.351-3.798
		c-1.496-2.637-2.338-5.771-4.496-7.991c-1.432-1.472-3.546-2.246-5.534-1.453c-0.778,0.311-1.45,0.799-2.024,1.391
		c-0.033,0.032-0.063,0.063-0.095,0.096c-0.593,0.629-1.075,1.367-1.458,2.133c-0.005,0.006-0.007,0.013-0.01,0.019
		c-1.732,3.473-1.821,7.655,0.308,10.986c0.724,1.13,1.64,2.109,2.689,2.918c0.009,0.007,0.017,0.014,0.024,0.02
		c0.086,0.067,0.176,0.131,0.264,0.195c0.002,0.002,0.002,0.003,0.004,0.004c0.881,0.637,1.848,1.158,2.864,1.554
		c0.032,0.013,0.063,0.026,0.095,0.038c0.085,0.031,0.169,0.059,0.252,0.088c1.438,0.51,2.967,0.771,4.494,0.746
		c4.052-0.064,7.473-2.359,10.492-4.859c0.072-0.061,0.146-0.121,0.218-0.181C381.893,135.135,381.592,135.063,381.295,134.985z"/>
	<path fill="#FBCAB9" d="M366.788,130.413c0.967-0.965,3.661-0.595,4.86,0.002c0.543,0.169,1.721,0.94,1.357,1.638
		c-0.34,0.806-1.797,0.318-2.426,0.28c0.501,0.235,1.507,1.267,0.904,1.901c-0.451,0.547-1.412-0.271-1.871-0.57
		c0.766,0.688,0.144,1.496-0.659,1.438c-0.673,0.027-1.461-0.769-1.855-1.308C366.331,132.824,365.959,131.241,366.788,130.413z"/>
	<path fill="#58595B" d="M365.426,122.321c-0.345,0.55-0.693,1.614,0.168,1.865c0.368,0.107,0.781-0.099,1.081-0.29
		c0.228-0.146,0.77-0.511,0.752-0.828c-0.005-0.06-0.058-0.103-0.116-0.077c-0.191,0.088-0.327,0.354-0.482,0.498
		c-0.26,0.239-0.576,0.434-0.926,0.502c-0.518,0.1-0.717-0.358-0.639-0.789c0.053-0.289,0.195-0.549,0.267-0.832
		C365.546,122.309,365.462,122.263,365.426,122.321L365.426,122.321z"/>
	<g>
		<path fill="#58595B" d="M360,130.4c-0.035,0.264-0.007,0.535,0.05,0.794c0.046,0.212,0.118,0.49,0.304,0.622
			c0.035,0.024,0.073-0.011,0.068-0.047c-0.031-0.229-0.167-0.446-0.219-0.675c-0.053-0.231-0.061-0.468-0.078-0.704
			C360.119,130.314,360.009,130.333,360,130.4L360,130.4z"/>
		<path fill="#58595B" d="M360.834,132.715c0.034,0.502,0.344,1.192,0.853,1.368c0.039,0.014,0.067-0.035,0.042-0.065
			c-0.162-0.199-0.35-0.363-0.493-0.583c-0.144-0.222-0.226-0.477-0.3-0.728C360.92,132.656,360.83,132.654,360.834,132.715
			L360.834,132.715z"/>
		<path fill="#58595B" d="M362.378,135.043c0.144,0.412,0.445,0.977,0.878,1.137c0.035,0.014,0.061-0.03,0.037-0.057
			c-0.143-0.169-0.309-0.314-0.447-0.489c-0.153-0.194-0.281-0.409-0.398-0.626C362.422,134.963,362.361,134.998,362.378,135.043
			L362.378,135.043z"/>
		<path fill="#58595B" d="M363.95,136.92c0.344,0.519,0.962,0.891,1.565,1.026c0.043,0.009,0.074-0.046,0.033-0.073
			c-0.244-0.163-0.523-0.261-0.782-0.398c-0.288-0.154-0.524-0.364-0.743-0.604C363.99,136.836,363.922,136.877,363.95,136.92
			L363.95,136.92z"/>
		<path fill="#58595B" d="M361.235,131.124c-0.107,0.149,0.047,0.422,0.11,0.563c0.096,0.214,0.236,0.521,0.447,0.643
			c0.027,0.016,0.068-0.005,0.059-0.04c-0.055-0.203-0.211-0.379-0.313-0.561c-0.058-0.104-0.109-0.21-0.155-0.319
			c-0.038-0.092-0.043-0.195-0.092-0.282C361.279,131.105,361.25,131.104,361.235,131.124L361.235,131.124z"/>
		<path fill="#58595B" d="M362.486,133.711c0.09,0.399,0.488,0.801,0.846,0.981c0.03,0.015,0.076-0.013,0.054-0.049
			c-0.095-0.159-0.247-0.27-0.385-0.393c-0.18-0.162-0.331-0.346-0.429-0.569C362.552,133.633,362.475,133.661,362.486,133.711
			L362.486,133.711z"/>
		<path fill="#58595B" d="M364.029,135.944c0.105,0.202,0.257,0.363,0.429,0.514c0.155,0.135,0.354,0.31,0.57,0.318
			c0.028,0.002,0.051-0.037,0.028-0.06c-0.146-0.144-0.342-0.239-0.502-0.37c-0.16-0.132-0.33-0.285-0.453-0.451
			C364.071,135.854,364.007,135.9,364.029,135.944L364.029,135.944z"/>
		<path fill="#58595B" d="M362.554,131.974c0.096,0.416,0.378,0.785,0.696,1.058c0.018,0.015,0.046-0.01,0.033-0.03
			c-0.213-0.36-0.5-0.657-0.654-1.054C362.611,131.906,362.544,131.931,362.554,131.974L362.554,131.974z"/>
		<path fill="#58595B" d="M364.299,134.532c0.185,0.428,0.613,0.809,1.065,0.932c0.035,0.01,0.075-0.036,0.043-0.065
			c-0.157-0.146-0.347-0.247-0.521-0.373c-0.203-0.149-0.367-0.341-0.514-0.544C364.34,134.438,364.278,134.487,364.299,134.532
			L364.299,134.532z"/>
	</g>
</g>
<g>
	<path fill="#58595B" d="M323.347,98.408c-0.173,0.999,0.005,2.025-0.206,3.028c-0.1,0.474-0.294,0.915-0.544,1.328
		c-0.299,0.495-0.781,0.858-1.068,1.347c-0.031,0.053,0.029,0.112,0.082,0.083c0.457-0.257,0.816-0.796,1.104-1.228
		c0.282-0.42,0.478-0.888,0.603-1.376c0.249-0.974,0.277-2.199,0.105-3.183C323.415,98.37,323.354,98.37,323.347,98.408
		L323.347,98.408z"/>
	<path fill="#58595B" d="M320.418,99.029c-0.126,0.945-0.428,1.699-1.048,2.436c-0.632,0.753-1.398,1.169-2.252,1.604
		c-0.1,0.05-0.027,0.184,0.069,0.167c0.937-0.174,1.829-1.027,2.412-1.73c0.529-0.636,1.104-1.612,0.903-2.475
		C320.493,98.989,320.424,98.984,320.418,99.029L320.418,99.029z"/>
	<path fill="#F9A263" d="M332.966,82.305c1.617-0.187,3.359-0.747,4.978-1.183c-1.183,1.369-2.677,2.364-3.921,3.67
		c0-0.87-0.809-1.804-0.994-2.426"/>
	<path fill="#C7E3B9" d="M334.923,84.588c-0.119-0.388-0.275-0.764-0.47-1.119c-0.305-0.579-0.702-1.111-1.186-1.59
		c-0.189-0.194-0.397-0.376-0.615-0.55c-0.876-0.702-1.962-1.251-3.243-1.611c-2.496-0.701-4.752-0.373-6.721,1.401
		c-0.922,0.83-1.672,1.841-2.314,2.897c-0.776,1.278-1.079,2.781-1.859,4.074c-0.688,1.14-1.766,2.111-2.781,2.99
		c-2.199,1.902-5.197,2.635-7.657,0.746c-0.698-0.536-1.845-2.902-2.642-2.919c-0.047,0.986,0.422,2.044,0.701,2.978
		c0.18,0.599,0.338,1.17,0.576,1.744c0.902,2.179,2.297,4.115,4.5,5.108c2.107,0.951,4.461,1.003,6.73,1.002
		c0.01,0,0.018-0.007,0.029-0.007c0.426-0.013,0.851-0.034,1.276-0.071c0.306-0.021,0.611-0.045,0.913-0.082
		c0.719-0.076,1.425-0.182,2.123-0.323c0.277-0.054,0.554-0.112,0.826-0.179c4.685-1.102,8.803-3.66,11.104-8.286
		C335.308,88.587,335.511,86.43,334.923,84.588z"/>
	<path fill="#FDD6C5" d="M329.603,87.323c-0.198-0.224-0.531-0.353-0.86-0.4c-0.063-0.017-0.126-0.03-0.188-0.043
		c-0.204-0.04-0.434-0.066-0.638-0.015c-0.544-0.012-1.109,0.146-1.486,0.41c-0.385,0.267-0.572,0.734-0.359,1.175
		c0.234,0.486,0.661,0.599,1.16,0.666c0.774,0.102,2.607,0.019,2.698-1.061C329.961,87.683,329.827,87.456,329.603,87.323z"/>
	<path fill="#58595B" d="M317.193,96.296c0.395,0.255,0.796,0.348,1.262,0.255c0.391-0.076,0.866-0.382,0.94-0.794
		c0.01-0.058-0.05-0.091-0.096-0.054c-0.311,0.254-0.488,0.524-0.902,0.64c-0.368,0.103-0.807,0.021-1.14-0.157
		C317.185,96.146,317.124,96.251,317.193,96.296L317.193,96.296z"/>
	<path fill="#58595B" d="M321.114,94.925c0.276,0.192,0.605,0.207,0.914,0.083c0.273-0.108,0.584-0.388,0.531-0.708
		c-0.008-0.046-0.065-0.041-0.086-0.011c-0.176,0.231-0.264,0.445-0.553,0.563c-0.236,0.098-0.523,0.1-0.745-0.033
		C321.108,94.777,321.05,94.88,321.114,94.925L321.114,94.925z"/>
	<path fill="#58595B" d="M324.727,93.984c0.318,0.159,0.638,0.172,0.978,0.076c0.273-0.075,0.626-0.259,0.719-0.543
		c0.018-0.051-0.039-0.079-0.08-0.063c-0.246,0.109-0.432,0.311-0.691,0.411c-0.285,0.108-0.596,0.106-0.884,0.022
		C324.711,93.872,324.672,93.958,324.727,93.984L324.727,93.984z"/>
	<path fill="#58595B" d="M327.415,92.932c0.494,0.192,0.965,0.038,1.41-0.213c0.389-0.217,0.916-0.61,1.013-1.069
		c0.011-0.048-0.042-0.078-0.079-0.046c-0.652,0.567-1.305,1.481-2.315,1.227C327.374,92.812,327.353,92.907,327.415,92.932
		L327.415,92.932z"/>
	<path fill="#58595B" d="M326.97,94.724c0.319,0.195,0.702,0.14,1.031-0.009c0.35-0.161,0.842-0.435,0.973-0.824
		c0.015-0.045-0.04-0.085-0.08-0.061c-0.252,0.158-0.447,0.397-0.701,0.561c-0.355,0.231-0.77,0.359-1.188,0.251
		C326.956,94.628,326.927,94.697,326.97,94.724L326.97,94.724z"/>
	<path fill="#58595B" d="M322.437,96.731c0.396,0.126,0.791,0.055,1.174-0.089c0.289-0.109,0.721-0.316,0.818-0.637
		c0.013-0.044-0.036-0.078-0.074-0.058c-0.255,0.138-0.453,0.352-0.719,0.481c-0.344,0.167-0.791,0.283-1.17,0.19
		C322.395,96.603,322.365,96.709,322.437,96.731L322.437,96.731z"/>
	<path fill="#58595B" d="M322.125,95.736c0.402,0.13,0.938,0.061,1.233-0.27c0.031-0.035,0-0.098-0.049-0.082
		c-0.395,0.119-0.719,0.353-1.154,0.241C322.084,95.606,322.054,95.713,322.125,95.736L322.125,95.736z"/>
	<path fill="#58595B" d="M318.689,97.723c0.526,0.282,1.356,0.143,1.747-0.325c0.029-0.036,0.002-0.107-0.052-0.087
		c-0.565,0.215-1.021,0.529-1.651,0.306C318.671,97.594,318.632,97.691,318.689,97.723L318.689,97.723z"/>
	<path fill="#58595B" d="M325.54,96.838c0.574,0.361,1.688-0.06,1.998-0.632c0.026-0.049-0.025-0.098-0.074-0.073
		c-0.615,0.295-1.133,0.88-1.891,0.627C325.526,96.743,325.501,96.812,325.54,96.838L325.54,96.838z"/>
	<path fill="#58595B" d="M321.145,98.528c0.401-0.007,0.78-0.121,1.147-0.275c0.291-0.12,0.652-0.282,0.824-0.557
		c0.021-0.033-0.015-0.088-0.056-0.072c-0.294,0.116-0.546,0.332-0.836,0.467c-0.347,0.162-0.72,0.259-1.093,0.344
		C321.08,98.447,321.093,98.528,321.145,98.528L321.145,98.528z"/>
	<path fill="#58595B" d="M327.562,83.875c0.201,0.793,0.982,1.505,1.822,1.507c0.861,0.002,1.157-1.197,0.726-1.81
		c-0.046-0.065-0.14-0.04-0.146,0.039c-0.033,0.386,0.141,0.731,0.02,1.125c-0.1,0.329-0.42,0.444-0.731,0.43
		c-0.751-0.035-1.275-0.732-1.589-1.334C327.634,83.774,327.546,83.814,327.562,83.875L327.562,83.875z"/>
	<path fill="#ABDFED" d="M322.144,87.669c-0.746-1.868-1.928-4.065-3.483-5.559c-0.808-0.808-2.054-1.679-3.234-1.866
		c-1.245-0.124-2.8,0.623-1.433,1.804c0.437,0.373,1.059,0.498,1.556,0.685c-0.87-0.249-3.172-0.56-3.794,0.374
		c-0.748,1.12,1.307,1.369,2.053,1.493c-0.746-0.062-2.801,0.497-2.675,1.555c0.124,1.244,2.301,0.499,3.048,0.436
		c-1.119,0.374-2.178,1.804-1.804,2.986c0.372,1.244,1.929,1.493,3.049,1.368c1.368-0.124,2.737-0.684,3.919-1.368
		C320.277,89.016,321.211,88.104,322.144,87.669L322.144,87.669z"/>
	<path fill="#58595B" d="M315.218,89.829c0.674,0.262,1.564,0.083,2.107-0.394c0.042-0.037-0.002-0.104-0.053-0.09
		c-0.287,0.075-0.549,0.228-0.831,0.326c-0.39,0.132-0.794,0.138-1.19,0.04C315.173,89.691,315.146,89.802,315.218,89.829
		L315.218,89.829z"/>
	<path fill="#58595B" d="M314.827,87.379c0.311,0.279,0.846,0.482,1.239,0.251c0.038-0.022,0.021-0.081-0.023-0.082
		c-0.21-0.009-0.407,0.023-0.616-0.018c-0.194-0.038-0.375-0.125-0.54-0.23C314.839,87.271,314.784,87.34,314.827,87.379
		L314.827,87.379z"/>
	<path fill="#58595B" d="M315.126,84.759c0.228,0.342,0.662,0.768,1.117,0.702c0.041-0.006,0.045-0.07,0.011-0.087
		c-0.162-0.083-0.345-0.113-0.508-0.201c-0.21-0.112-0.388-0.277-0.526-0.47C315.179,84.648,315.086,84.699,315.126,84.759
		L315.126,84.759z"/>
	<path fill="#58595B" d="M316.933,82.58c0.165,0.39,0.51,0.811,0.894,1.005c0.044,0.021,0.08-0.029,0.05-0.064
		c-0.121-0.15-0.287-0.263-0.424-0.398c-0.177-0.172-0.324-0.372-0.431-0.594C316.991,82.468,316.907,82.521,316.933,82.58
		L316.933,82.58z"/>
	<path fill="#58595B" d="M317.555,84.899c0.294,0.351,0.844,0.559,1.3,0.496c0.035-0.006,0.043-0.064,0.01-0.08
		c-0.178-0.08-0.376-0.095-0.565-0.14c-0.251-0.06-0.477-0.178-0.656-0.364C317.586,84.753,317.504,84.839,317.555,84.899
		L317.555,84.899z"/>
	<path fill="#58595B" d="M316.828,86.887c0.329,0.225,0.837,0.33,1.216,0.181c0.04-0.014,0.032-0.066-0.01-0.071
		c-0.404-0.049-0.775-0.018-1.158-0.191C316.821,86.782,316.778,86.853,316.828,86.887L316.828,86.887z"/>
	<path fill="#58595B" d="M317.342,88.492c0.364,0.051,0.788-0.096,1.026-0.378c0.023-0.027-0.006-0.066-0.039-0.05
		c-0.171,0.082-0.325,0.191-0.503,0.261c-0.155,0.061-0.321,0.083-0.484,0.112C317.315,88.441,317.315,88.487,317.342,88.492
		L317.342,88.492z"/>
	<path fill="#58595B" d="M318.995,86.782c0.486,0.242,1.17,0.365,1.678,0.109c0.048-0.024,0.023-0.096-0.025-0.096
		c-0.555-0.007-1.048,0.098-1.584-0.132C318.985,86.628,318.915,86.742,318.995,86.782L318.995,86.782z"/>
</g>
<g>
	<g>
		<path fill="#58595B" d="M39.278,342.892c-0.416,0.784-0.82,1.555-1.324,2.288c-0.238,0.347-0.491,0.684-0.747,1.018
			c-0.225,0.294-0.497,0.572-0.661,0.905c-0.041,0.082,0.074,0.162,0.143,0.105c0.282-0.238,0.489-0.572,0.712-0.865
			c0.287-0.377,0.563-0.762,0.829-1.154c0.469-0.689,0.93-1.446,1.162-2.252C39.413,342.861,39.314,342.824,39.278,342.892
			L39.278,342.892z"/>
		<path fill="#58595B" d="M36.681,347.173c0.104-0.182-0.003-0.413-0.096-0.578c-0.058-0.104-0.127-0.199-0.196-0.295
			c-0.062-0.084-0.111-0.177-0.222-0.191c-0.044-0.007-0.08,0.028-0.086,0.07c-0.026,0.157,0.18,0.332,0.264,0.453
			c0.055,0.078,0.099,0.163,0.139,0.25c0.039,0.09,0.045,0.191,0.091,0.279C36.593,347.197,36.655,347.218,36.681,347.173
			L36.681,347.173z"/>
		<path fill="#58595B" d="M36.68,347.072c-0.097-0.083-0.229-0.095-0.353-0.09c-0.128,0.006-0.282,0.02-0.371,0.123
			c-0.045,0.053-0.005,0.154,0.067,0.154c0.091,0,0.179-0.036,0.271-0.048c0.109-0.015,0.219,0.007,0.328,0.006
			C36.702,347.216,36.745,347.126,36.68,347.072L36.68,347.072z"/>
		<path fill="#58595B" d="M36.605,347.201c0.107,0.052,0.233,0.065,0.347,0.101c0.119,0.038,0.211,0.145,0.337,0.157
			c0.024,0.002,0.049-0.016,0.051-0.041c0.029-0.295-0.511-0.389-0.72-0.351C36.55,347.081,36.544,347.171,36.605,347.201
			L36.605,347.201z"/>
		<path fill="#58595B" d="M42.78,344.56c-0.187,0.312-0.314,0.658-0.476,0.984c-0.187,0.375-0.396,0.738-0.596,1.105
			c-0.349,0.638-0.87,1.424-0.877,2.173c-0.001,0.052,0.075,0.101,0.108,0.043c0.181-0.317,0.277-0.677,0.422-1.013
			c0.165-0.383,0.359-0.753,0.555-1.121c0.347-0.658,0.839-1.395,0.932-2.145C42.854,344.551,42.802,344.527,42.78,344.56
			L42.78,344.56z"/>
		<path fill="#58595B" d="M40.933,348.859c0.168-0.191-0.131-0.631-0.367-0.595c-0.044,0.007-0.076,0.048-0.066,0.092
			c0.012,0.059,0.086,0.094,0.129,0.132c0.058,0.053,0.1,0.104,0.135,0.174c0.035,0.064,0.049,0.141,0.089,0.199
			C40.872,348.89,40.913,348.883,40.933,348.859L40.933,348.859z"/>
		<path fill="#58595B" d="M40.933,348.775c-0.078-0.064-0.182-0.063-0.273-0.037c-0.105,0.027-0.244,0.084-0.285,0.191
			c-0.02,0.054,0.025,0.108,0.08,0.101c0.082-0.011,0.154-0.073,0.232-0.103c0.067-0.025,0.146-0.028,0.217-0.031
			C40.965,348.893,40.973,348.809,40.933,348.775L40.933,348.775z"/>
		<path fill="#58595B" d="M40.911,348.873c0.054-0.018,0.139,0.002,0.194,0.011c0.075,0.013,0.149,0.052,0.227,0.058
			c0.081,0.004,0.128-0.1,0.059-0.152c-0.079-0.057-0.196-0.075-0.293-0.078c-0.097-0.004-0.163,0.021-0.233,0.082
			C40.821,348.829,40.862,348.887,40.911,348.873L40.911,348.873z"/>
	</g>
	<path fill="#F79C7F" d="M56.999,336.392c0.903,0.295,1.927,0.279,2.859,0.346c-0.568,0.377-1.333,0.494-1.975,0.602
		c0.406,0.339,0.883,0.647,1.362,0.955c-0.901,0.005-1.864-0.135-2.786-0.078C56.457,337.617,56.796,336.91,56.999,336.392z"/>
	<g>
		<path fill="#D4B9D9" d="M56.942,337.949c0.066-0.227,0.123-0.454,0.17-0.684c0.01-0.047,0.017-0.094,0.025-0.141
			c0.051-0.264,0.084-0.528,0.103-0.795c0.044-0.61,0.008-1.225-0.139-1.83c-0.511-2.123-2.13-3.021-3.985-3.785
			c-1.75-0.721-3.838-0.301-5.586,0.213c-0.531,0.155-1.076,0.34-1.609,0.451c-0.654,0.135-1.309,0.216-1.953,0.361
			c-1.707,0.385-3.459,0.658-5.209,0.638c-1.438-0.017-2.984-0.339-4.27-0.985c-0.579-0.293-1.139-0.617-1.668-0.994
			c-0.285-0.202-0.756-1.027-0.828-0.28c-0.061,0.642,0.111,1.261,0.15,1.888c0.041,0.684,0.135,1.369,0.266,2.041
			c0.438,2.26,1.195,4.547,2.504,6.457c0.922,1.347,2.094,2.52,3.426,3.459c0.078,0.055,0.154,0.111,0.232,0.165
			c0.03,0.021,0.062,0.04,0.092,0.06c0.973,0.644,2.024,1.165,3.125,1.539c0.001,0.001,0.004,0.002,0.006,0.003
			c0.11,0.037,0.221,0.075,0.333,0.108c0.011,0.004,0.021,0.006,0.032,0.01c1.354,0.416,2.774,0.611,4.207,0.545
			c4.221-0.2,7.814-2.861,9.775-6.517c0.004-0.007,0.008-0.013,0.011-0.02C56.475,339.253,56.749,338.611,56.942,337.949z"/>
	</g>
	<path fill="#FED86F" d="M29.794,335.244c3.078,0.553,5.846,0.165,8.864-0.803c1.829-0.538,3.954-1.978,5.88-1.698
		c1.627,0.281,2.423,2.212,1.676,3.655c-1.567,2.917-7.139,2.461-9.782,1.719C34.171,337.466,31.798,336.392,29.794,335.244
		C29.743,335.224,29.847,335.264,29.794,335.244z"/>
	<path fill="#58595B" d="M52.229,333.298c-0.401,0.682-0.569,1.878,0.29,2.283c0.627,0.296,1.781-0.562,1.709-1.227
		c-0.006-0.061-0.093-0.101-0.139-0.055c-0.172,0.167-0.246,0.412-0.397,0.604c-0.226,0.283-0.579,0.521-0.954,0.503
		c-0.521-0.024-0.656-0.679-0.633-1.083c0.019-0.34,0.157-0.655,0.225-0.986C52.341,333.285,52.257,333.251,52.229,333.298
		L52.229,333.298z"/>
	<path fill="#58595B" d="M40.532,340.045c-0.093,0.653,0.866,1.013,1.385,0.918c0.027-0.005,0.035-0.048,0.006-0.058
		c-0.479-0.158-1.234-0.226-1.292-0.862C40.626,339.985,40.54,339.992,40.532,340.045L40.532,340.045z"/>
	<path fill="#58595B" d="M43.011,341.101c0.262,0.481,1,0.7,1.498,0.468c0.037-0.018,0.029-0.075-0.012-0.079
		c-0.207-0.022-0.416,0.008-0.625-0.013c-0.315-0.03-0.583-0.183-0.785-0.421C43.054,341.019,42.985,341.054,43.011,341.101
		L43.011,341.101z"/>
	<path fill="#58595B" d="M45.913,341.827c0.278,0.388,0.887,0.378,1.287,0.201c0.037-0.016,0.028-0.069-0.011-0.073
		c-0.429-0.054-0.854,0.14-1.224-0.184C45.932,341.742,45.889,341.792,45.913,341.827L45.913,341.827z"/>
	<path fill="#58595B" d="M48.216,342.083c0.191,0.177,0.479,0.174,0.715,0.104c0.209-0.062,0.598-0.215,0.615-0.474
		c0.001-0.025-0.021-0.041-0.045-0.033c-0.074,0.025-0.131,0.074-0.189,0.125c-0.101,0.084-0.213,0.144-0.334,0.193
		c-0.227,0.094-0.496,0.117-0.719,0.009C48.21,341.985,48.183,342.052,48.216,342.083L48.216,342.083z"/>
	<path fill="#58595B" d="M41.228,342.134c0.252,0.512,0.981,0.709,1.497,0.471c0.04-0.02,0.028-0.075-0.013-0.082
		c-0.226-0.043-0.461,0.007-0.69-0.01c-0.304-0.023-0.552-0.174-0.723-0.422C41.272,342.053,41.208,342.091,41.228,342.134
		L41.228,342.134z"/>
	<path fill="#58595B" d="M44.431,342.791c0.147,0.615,0.942,0.645,1.42,0.382c0.03-0.017,0.03-0.07-0.011-0.071
		c-0.436-0.011-1.137,0.24-1.317-0.337C44.506,342.712,44.417,342.738,44.431,342.791L44.431,342.791z"/>
	<path fill="#58595B" d="M47.044,343.223c0.146,0.174,0.315,0.258,0.543,0.261c0.206,0.001,0.471-0.075,0.59-0.252
		c0.019-0.027-0.002-0.069-0.038-0.063c-0.153,0.029-0.287,0.111-0.44,0.145c-0.209,0.043-0.438-0.015-0.611-0.135
		C47.059,343.161,47.021,343.195,47.044,343.223L47.044,343.223z"/>
	<path fill="#58595B" d="M41.985,344.048c0.33,0.414,1.01,0.41,1.439,0.141c0.039-0.025,0.006-0.078-0.032-0.074
		c-0.439,0.031-0.993,0.246-1.362-0.113C42.004,343.975,41.962,344.021,41.985,344.048L41.985,344.048z"/>
	<path fill="#58595B" d="M45.655,344.485c0.339,0.228,0.898,0.13,1.182-0.155c0.021-0.022,0.011-0.068-0.027-0.061
		c-0.371,0.068-0.732,0.309-1.117,0.148C45.651,344.402,45.618,344.46,45.655,344.485L45.655,344.485z"/>
	<path fill="#58595B" d="M43.902,345.287c0.408,0.357,1.014,0.291,1.464,0.032c0.037-0.021,0.024-0.079-0.021-0.073
		c-0.486,0.066-0.939,0.287-1.402-0.012C43.905,345.21,43.87,345.259,43.902,345.287L43.902,345.287z"/>
	<path fill="#58595B" d="M44.606,333.921c-0.059,0.738-0.27,1.351-0.666,1.979c-0.184,0.289-0.399,0.555-0.623,0.809
		c-0.205,0.232-0.473,0.426-0.644,0.685c-0.04,0.06,0.018,0.147,0.09,0.114c0.596-0.277,1.089-1.045,1.423-1.582
		c0.352-0.565,0.676-1.328,0.52-2.006C44.693,333.867,44.611,333.863,44.606,333.921L44.606,333.921z"/>
	<path fill="#58595B" d="M42.874,333.99c-0.29,0.777-0.591,1.477-1.099,2.146c-0.247,0.328-0.526,0.632-0.82,0.919
		c-0.26,0.255-0.565,0.468-0.799,0.748c-0.032,0.039,0.017,0.098,0.063,0.076c0.679-0.311,1.265-1.05,1.708-1.629
		c0.479-0.629,0.961-1.437,1.037-2.238C42.968,333.96,42.894,333.941,42.874,333.99L42.874,333.99z"/>
	<path fill="#58595B" d="M41.011,334.688c-0.351,0.545-0.701,1.029-1.188,1.466c-0.445,0.4-0.984,0.711-1.389,1.153
		c-0.024,0.026,0.012,0.073,0.044,0.056c0.555-0.309,1.071-0.756,1.539-1.182c0.441-0.403,0.858-0.893,1.027-1.475
		C41.05,334.687,41.023,334.669,41.011,334.688L41.011,334.688z"/>
	<path fill="#58595B" d="M38.398,335.675c-0.634,0.701-1.432,1.057-2.213,1.549c-0.025,0.017-0.006,0.063,0.022,0.054
		c0.869-0.237,1.738-0.817,2.256-1.554C38.495,335.681,38.434,335.637,38.398,335.675L38.398,335.675z"/>
	<path fill="#58595B" d="M35.858,336.105c-0.202,0.131-0.418,0.244-0.635,0.349c-0.22,0.105-0.451,0.181-0.658,0.312
		c-0.029,0.02-0.004,0.063,0.027,0.059c0.463-0.063,0.974-0.34,1.309-0.664C35.935,336.128,35.896,336.08,35.858,336.105
		L35.858,336.105z"/>
	<path fill="#58595B" d="M33.828,336.009c-0.22,0.076-0.477,0.185-0.639,0.356c-0.028,0.029,0.013,0.063,0.043,0.055
		c0.222-0.065,0.429-0.22,0.63-0.33C33.912,336.063,33.882,335.992,33.828,336.009L33.828,336.009z"/>
</g>
<g>
	<path fill="#726658" d="M277.887,333.266c-0.044,0.021-0.087,0.042-0.126,0.064c-0.801,0.408-1.425,0.817-2.242,1.227
		c-2.152,1.076-4.521,3.014-6.242,4.521c-2.367,2.152-2.582,4.09-5.38,2.152c-3.229-1.938-5.381-7.964-7.318-11.193
		c-3.546-6.717-6.066-14.161-8.637-21.072c0.019-0.731,0.03-1.469,0.029-2.216c0-0.668-0.01-1.344-0.025-2.02
		c-0.646-23.893-3.225-47.783-6.454-71.024c-1.871-14.972-1.571-32.113-7.662-43.878v-0.005c0.509-2.437,3.199-2.927,4.99-4.434
		c2.514-2.079,4.305-5.523,2.151-8.537c-2.294-3.159-7.387-3.947-7.89,0.646c-0.216,1.791,0.111,2.449-1.253,3.813
		c-1.145,1.077-1.076,1.077-2.226,2.152l-0.138,0.13c-4.719-4.964-11.691-8.003-22.195-8.003c-4.521,0-5.993,0.28-10.654-0.323
		c-13.268-1.708-22.639,1.589-29.462,8.274l-0.077-0.078c-1.149-1.075-1.076-1.075-2.227-2.152
		c-1.365-1.364-1.037-2.022-1.253-3.813c-0.503-4.594-5.596-3.806-7.89-0.646c-2.152,3.014-0.361,6.458,2.152,8.537
		c1.79,1.507,4.352,1.008,4.855,3.443c-5.601,8.059-9.045,19.011-11.619,31.313c-5.837,24.804-11.309,55.467-9.784,83.164
		c0.043,0.79,0.099,1.575,0.154,2.361c-1.48,5.351-3.738,10.656-5.647,16.037c-3.443,8.823-10.977,18.51-20.018,21.953
		c-8.394,3.445-9.04-3.228-15.497-6.025c-0.004,0.021-0.009,0.038-0.013,0.06c-0.133,0.517-0.236,1.071-0.318,1.652
		c-0.064,0.487-0.111,0.991-0.143,1.516c-0.103,1.718-0.025,3.621,0.203,5.588h0.004c1.291-6.457,6.724,2.807,7.801,4.959
		c1.722,3.659,4.515,10.792-0.221,13.16v0.004c5.937,2.755,18.489-0.926,23.466-2.402c11.212-3.403,20.306-9.519,31.047-13.475
		c0.436,0.225,0.872,0.442,1.313,0.651c-0.283-0.274-0.551-0.553-0.813-0.833c0.644-0.231,1.292-0.459,1.948-0.674
		c-1.465-0.697-2.906-1.476-4.3-2.339c-4.28-6.623-4.108-14.479-4.288-22.72c-0.219-7.752,0.642-15.109,2.824-22.035
		c2.674,3.977,5.928,7.344,9.66,9.337c1.223,0.543,3.38,1.425,5.347,1.683c0.955,0.125,1.864,0.104,2.6-0.176
		c0.16-0.061,0.306-0.13,0.448-0.216c1.037-0.692,1.348-1.77,1.3-2.961c-0.069-1.773-0.917-3.802-1.3-5.218
		c-1.507-5.596-3.659-10.978-5.166-16.358c-0.641-2.015-1.228-4.149-1.559-6.302c8.809-10.331,23.22-19.789,36.857-13.07
		c5.756,2.881,9.91,7.517,12.962,12.954c-0.245,2.084-0.607,4.142-1.123,6.203c-1.429,6.323-4.594,13.418-4.374,20.004
		c0.014,0.366,0.035,0.728,0.068,1.089c0.064,0.788,0.19,1.452,0.357,2.006c0.361,1.163,0.93,1.83,1.645,2.127
		c3.014,1.244,8.536-4.215,11.003-7.524c2.444,13.366,5.665,28.188,1.619,41.488c-0.626,0.412-1.265,0.813-1.927,1.193
		c0.48,0.16,0.951,0.274,1.416,0.364c-0.065,0.188-0.127,0.375-0.195,0.561c0.262-0.149,0.515-0.307,0.77-0.462
		c2.449,0.367,4.742,0.104,7.122,1.294c4.306,2.367,7.749,5.813,11.408,8.824c3.013,2.584,7.103,7.534,11.191,7.964
		c1.645,0.173,2.976-0.628,4.091-1.858c1.076-9.256,5.979-20.953,14.8-24.83h0.003c0.19-0.539,0.35-1.056,0.47-1.551
		c0.156-0.646,0.245-1.248,0.25-1.799C278.574,334.6,278.368,333.833,277.887,333.266z"/>
	<g>
		<path fill="#594A42" d="M263.035,363.693c1.076-9.256,5.979-20.953,14.8-24.83c-2.273,6.345-9.209,15.328-10.926,18.295
			C265.881,359.087,264.696,361.867,263.035,363.693z"/>
		<g>
			<g>
				<path fill="#594A42" d="M277.139,334.666c0.672-1.291,1.693-2.266,3.1-2.699c0.264-0.081,0.151-0.496-0.114-0.415
					c-1.51,0.466-2.635,1.509-3.358,2.897C276.639,334.695,277.01,334.912,277.139,334.666L277.139,334.666z"/>
			</g>
			<g>
				<path fill="#594A42" d="M277.349,336.464c1.091-0.655,2.188-1.28,3.394-1.699c0.26-0.092,0.148-0.507-0.115-0.416
					c-1.24,0.432-2.373,1.069-3.495,1.744C276.896,336.236,277.11,336.609,277.349,336.464L277.349,336.464z"/>
			</g>
			<g>
				<path fill="#594A42" d="M277.189,337.886c1.16-0.439,2.366-0.623,3.603-0.639c0.277-0.003,0.278-0.434,0-0.43
					c-1.272,0.016-2.522,0.199-3.717,0.652C276.819,337.568,276.93,337.984,277.189,337.886L277.189,337.886z"/>
			</g>
		</g>
	</g>
	<g>
		<path fill="#594A42" d="M107.838,351.41c1.722,3.659,4.515,10.792-0.221,13.16v0.004c-0.994-0.461-1.808-1.105-2.362-1.972
			c-2.489-3.731-4.537-10.224-5.222-16.151h0.004C101.328,339.994,106.761,349.257,107.838,351.41z"/>
		<g>
			<g>
				<path fill="#594A42" d="M98.805,335.54c0.519,1.235,1.274,2.363,2.208,3.323c0.194,0.199,0.498-0.105,0.305-0.304
					c-0.879-0.903-1.609-1.971-2.097-3.134C99.115,335.172,98.698,335.284,98.805,335.54L98.805,335.54z"/>
			</g>
			<g>
				<path fill="#594A42" d="M97.784,338.001c0.725,0.92,1.757,1.522,2.894,1.778c0.27,0.06,0.385-0.355,0.114-0.416
					c-1.074-0.24-2.02-0.799-2.703-1.666C97.917,337.48,97.614,337.786,97.784,338.001L97.784,338.001z"/>
			</g>
			<g>
				<path fill="#594A42" d="M97.722,341.079c1.075,0,2.152,0,3.228,0c0.278,0,0.278-0.431,0-0.431c-1.075,0-2.152,0-3.228,0
					C97.444,340.648,97.444,341.079,97.722,341.079L97.722,341.079z"/>
			</g>
		</g>
	</g>
	<path fill="#F8B5BE" d="M227.824,213.416c3.052,0,5.527,1.955,5.527,4.366c0,2.41-2.476,4.365-5.527,4.365
		c-3.048,0-5.523-1.955-5.523-4.365C222.301,215.371,224.776,213.416,227.824,213.416z"/>
	<ellipse fill="#F8B5BE" cx="167.415" cy="217.781" rx="5.523" ry="4.366"/>
	<path fill="#C2B59B" d="M176.421,311.591c0.16-0.061,0.306-0.13,0.448-0.216c1.037-0.692,1.348-1.77,1.3-2.961
		c-0.069-1.773-0.917-3.802-1.3-5.218c-1.507-5.596-3.659-10.978-5.166-16.358c-0.641-2.015-1.228-4.149-1.559-6.302
		c8.809-10.331,23.22-19.789,36.857-13.07c5.756,2.881,9.91,7.517,12.962,12.954c-0.245,2.084-0.607,4.142-1.123,6.203
		c-1.429,6.323-4.594,13.418-4.374,20.004c0.014,0.366,0.035,0.728,0.068,1.089c0.064,0.788,0.19,1.452,0.357,2.006
		c0.361,1.163,0.93,1.83,1.645,2.127c3.014,1.244,8.536-4.215,11.003-7.524c2.574,14.08,6.019,29.776,0.913,43.606
		c-5.498,3.156-11.605,4.947-19.893,5.867c-14.141,1.619-31.559,2.002-45.118-4.45c-7.534-7.318-7.237-16.664-7.452-26.565
		c-0.219-7.752,0.642-15.109,2.824-22.035c2.674,3.977,5.928,7.344,9.66,9.337c1.223,0.543,3.38,1.425,5.347,1.683
		C174.776,311.892,175.686,311.872,176.421,311.591z"/>
	<path fill="#C2B59B" d="M237.703,177.467c1.58-0.215,2.226,1.722,1.938,3.013c-0.504,2.368-3.518,4.594-5.738,5.167l-0.039-0.035
		c1.263-1.214,1.399-2.78,1.614-4.485C235.624,179.909,236.197,177.682,237.703,177.467z"/>
	<path fill="#C2B59B" d="M162.813,185.612l-0.038,0.035c-2.222-0.573-5.235-2.799-5.738-5.167c-0.289-1.291,0.357-3.228,1.937-3.013
		c1.507,0.215,2.079,2.441,2.226,3.659C161.415,182.832,161.553,184.398,162.813,185.612z"/>
	<path fill="#C2B59B" d="M192.797,239.056c3.013-0.861,7.103-1.507,10.115-0.216c-1.076,3.014-4.734,8.179-7.748,5.38
		C193.873,243.145,193.335,241.273,192.797,239.056z"/>
	<path fill="#594A42" d="M207.32,212.353c12.729,2.889,8.959,9.549,5.334,19.384c-2.755,7.481-11.179,26.497-21.355,14.978
		c-5.678-6.432-12.265-21.435-12.6-30.15C178.423,209.4,203.743,211.54,207.32,212.353z M202.912,238.84
		c-3.013-1.291-7.103-0.646-10.115,0.216c0.538,2.217,1.076,4.089,2.367,5.164C198.178,247.019,201.836,241.854,202.912,238.84z"/>
	<g>
		<path fill="#9B8579" d="M196.513,240.554c1.2-0.382,2.543-0.647,3.708-0.021c0.245,0.131,0.463-0.24,0.219-0.372
			c-1.271-0.683-2.723-0.441-4.041-0.021C196.136,240.223,196.248,240.64,196.513,240.554L196.513,240.554z"/>
	</g>
	<g>
		<path fill="#C2B59B" d="M150.617,280.223c0.848,5.652,2.763,11.145,5.388,16.212c2.61,5.035,6.16,9.853,10.949,13.002
			c2.843,1.87,11.19,5.146,11.435-0.727c0.053-1.272-0.376-2.57-0.751-3.766c-0.478-1.522-0.899-3.059-1.362-4.586
			c-0.989-3.269-2.144-6.484-3.195-9.73c-2.088-6.44-4.789-13.998-1.406-20.47c0.129-0.246-0.243-0.464-0.371-0.218
			c-2.98,5.702-1.26,11.92,0.412,17.724c1.815,6.297,4.195,12.419,5.906,18.75c0.395,1.464,0.648,3.206-0.444,4.432
			c-1.257,1.408-3.863,0.687-5.402,0.249c-2.859-0.813-5.28-2.291-7.493-4.257c-4.66-4.142-7.881-9.861-10.18-15.587
			c-1.436-3.578-2.497-7.328-3.068-11.143C150.992,279.835,150.577,279.953,150.617,280.223L150.617,280.223z"/>
	</g>
	<g>
		<path fill="#C2B59B" d="M220.132,273.494c-0.011,3.56-0.29,7.097-0.951,10.598c-0.592,3.139-1.521,6.199-2.439,9.252
			c-0.913,3.033-1.796,6.082-2.249,9.224c-0.347,2.41-0.676,5.637,0.456,7.903c2.062,4.128,7.028-0.028,9.107-1.955
			c3.915-3.63,6.468-8.198,8.306-13.171c1.029-2.789,1.806-5.669,2.508-8.558c0.352-1.441,0.676-2.89,1-4.338
			c0.309-1.389,0.475-2.787,0.828-4.162c0.069-0.27-0.347-0.384-0.414-0.115c-0.354,1.378-0.521,2.775-0.83,4.164
			c-0.349,1.568-0.706,3.137-1.087,4.699c-0.732,3.008-1.585,5.989-2.679,8.888c-1.977,5.229-4.935,9.867-9.259,13.449
			c-1.465,1.213-3.979,3.154-5.993,2.191c-1.424-0.68-1.602-2.86-1.715-4.209c-0.141-1.677,0-3.377,0.24-5.04
			c0.91-6.313,3.53-12.255,4.712-18.521c0.641-3.393,0.88-6.851,0.89-10.3C220.563,273.216,220.132,273.216,220.132,273.494
			L220.132,273.494z"/>
	</g>
	<g>
		<g>
			<path fill="#594A42" d="M172.779,309.869c0.114,1.626,1.645,3.18,2.905,4.061c0.228,0.159,0.442-0.214,0.218-0.371
				c-1.127-0.787-2.591-2.236-2.692-3.689C173.191,309.594,172.76,309.591,172.779,309.869L172.779,309.869z"/>
		</g>
		<g>
			<path fill="#594A42" d="M174.531,309.762c0.85,1.254,1.903,2.373,3.357,2.896c0.261,0.095,0.373-0.321,0.113-0.415
				c-1.341-0.483-2.317-1.545-3.1-2.698C174.748,309.316,174.375,309.532,174.531,309.762L174.531,309.762z"/>
		</g>
		<g>
			<path fill="#594A42" d="M175.951,308.355c1.509,0.39,3.037,0.238,4.577,0.222c0.277-0.001,0.277-0.433,0-0.43
				c-1.5,0.015-2.992,0.172-4.464-0.207C175.796,307.871,175.683,308.286,175.951,308.355L175.951,308.355z"/>
		</g>
	</g>
	<g>
		<g>
			<path fill="#594A42" d="M216.631,305.357c-1.826,0.73-3.455,1.886-5.381,2.367c-0.27,0.067-0.154,0.482,0.114,0.415
				c1.929-0.482,3.552-1.636,5.382-2.367C217,305.67,216.889,305.254,216.631,305.357L216.631,305.357z"/>
		</g>
		<g>
			<path fill="#594A42" d="M216.32,307.996c-0.936,1.141-2.089,2.083-3.399,2.765c-0.247,0.126-0.029,0.499,0.216,0.371
				c1.34-0.695,2.531-1.665,3.488-2.833C216.799,308.087,216.497,307.78,216.32,307.996L216.32,307.996z"/>
		</g>
		<g>
			<path fill="#594A42" d="M218.043,309.502c-1.063,1.096-1.783,2.436-2.617,3.702c-0.153,0.232,0.22,0.447,0.372,0.217
				c0.813-1.235,1.513-2.544,2.55-3.615C218.54,309.606,218.236,309.302,218.043,309.502L218.043,309.502z"/>
		</g>
	</g>
	<path d="M176.116,205.806c0,1.252-0.495,2.264-1.106,2.264s-1.107-1.012-1.107-2.264c0-1.254,0.496-2.265,1.107-2.265
		S176.116,204.552,176.116,205.806z"/>
	<path d="M222.994,205.806c0,1.252-0.494,2.264-1.105,2.264s-1.107-1.012-1.107-2.264c0-1.254,0.496-2.265,1.107-2.265
		S222.994,204.552,222.994,205.806z"/>
</g>
<g>
	<path fill="#2B2E31" d="M100.068,277.34c0.438,0.137,0.689,0.809,0.308,1.079c-0.408,0.327-0.931,0.038-1.43-0.615l-0.025-0.022
		C99.229,277.384,99.608,277.176,100.068,277.34z"/>
	<path fill="#2B2E31" d="M97.902,281.374c0.112-0.632,0.242-1.259,0.418-1.878c0.131-0.46,0.306-0.904,0.535-1.324
		c0.215-0.392,0.881-1.212,1.462-0.418c-0.293,0.117-0.586,0.234-0.879,0.352c-0.138-0.127-0.263-0.267-0.376-0.417
		c-0.134-0.164-0.364,0.07-0.23,0.231c0.451,0.549,1.143,1.151,1.774,0.498c0.5-0.518-0.256-1.182-0.719-1.288
		c-1.624-0.374-2.132,3.194-2.302,4.157C97.549,281.494,97.865,281.582,97.902,281.374L97.902,281.374z"/>
	<path fill="#E6E7E8" d="M92.629,282.835c-0.551,0.267-1.1,0.546-1.642,0.836c-0.1,0.051-0.2,0.104-0.3,0.158l-0.053-0.1
		c0.082-1.195-0.387-2.483-0.765-3.598c-0.464-1.276-1.062-2.476-1.849-3.56c-0.938-1.251-2.409-2.599-4.035-3.2l0.015-0.033
		c0.138-0.813,0.404-1.826,0.813-2.531c1.113-1.905,3.371-1.905,5.189-1.032c5.112,2.39,4.87,8.738,2.588,12.981L92.629,282.835z"/>
	<path fill="#F1F2F2" d="M90.635,283.73l0.053,0.1c-0.446,0.237-0.891,0.479-1.334,0.725c-0.608,0.338-1.213,0.676-1.818,1.006
		l-0.033-0.06c-2.855-0.271-6.114-1.154-8.045-3.411c-1.14-1.359-1.686-3.315-1.303-5.057c0.353-1.548,1.737-3.616,3.422-3.912
		c0.811-0.152,1.627-0.033,2.41,0.252c1.626,0.602,3.097,1.949,4.035,3.2c0.787,1.084,1.385,2.283,1.849,3.56
		C90.248,281.247,90.717,282.535,90.635,283.73z"/>
	<path fill="#2B2E31" d="M90.541,296.114c-0.768,0.309-1.577,0.468-2.412,0.383c-0.386-0.034-0.81-0.118-1.244-0.249l0.008-0.029
		c-0.615-1.032-1.203-2.201-1.671-3.326c-0.419-0.98-0.616-1.941-0.727-2.992c-0.052-0.705-0.041-1.652-0.13-2.361l-0.037-0.049
		c0.753-0.552,1.586-1.027,2.35-1.451l0.029,0.056c0.127,1.994,0.346,4.259,0.869,6.182c0.419,1.522,1.181,2.68,2.521,3.534
		c0.089,0.07,0.322,0.211,0.431,0.268L90.541,296.114z"/>
	<path fill="#2B2E31" d="M96.255,291.244c-0.568,0.798-1.206,1.541-1.926,2.209c-0.334,0.308-0.688,0.631-1.062,0.939l-0.09-0.104
		c-1.27-0.979-2.049-2.609-2.646-4.062c-0.672-1.629-1.051-3.37-1.158-5.126c0-0.13,0-0.405,0-0.513l-0.02-0.033
		c0.443-0.245,0.888-0.487,1.334-0.725c0.1-0.055,0.2-0.107,0.3-0.158c0.237,3.173,2.209,5.523,4.745,7.245
		c0.125,0.071,0.37,0.223,0.479,0.294L96.255,291.244z"/>
	<path fill="#FDBE68" d="M84.365,287.539c0.089,0.709,0.078,1.656,0.13,2.361c0.11,1.051,0.308,2.012,0.727,2.992
		c0.468,1.125,1.056,2.294,1.671,3.326l-0.008,0.029c-2.334-0.693-5.089-2.673-4.955-5.078c0.078-1.563,1.121-2.739,2.398-3.68
		L84.365,287.539z"/>
	<path fill="#FDBE68" d="M89.373,285.1c0.107,1.756,0.486,3.497,1.158,5.126c0.598,1.452,1.377,3.082,2.646,4.062l0.09,0.104
		c-0.825,0.687-1.741,1.324-2.727,1.722l-0.014-0.036c-0.108-0.057-0.342-0.197-0.431-0.268c-1.34-0.854-2.102-2.012-2.521-3.534
		c-0.523-1.923-0.742-4.188-0.869-6.182l-0.029-0.056c0.26-0.145,0.508-0.281,0.746-0.415c0.037-0.019,0.074-0.041,0.111-0.063
		c0.605-0.33,1.21-0.668,1.818-1.006l0.02,0.033C89.373,284.695,89.373,284.97,89.373,285.1z"/>
	<path fill="#FDBE68" d="M96.4,281.224c0.174-0.063,0.353-0.118,0.538-0.167c0.924-0.382,1.767,0.49,2.146,1.277
		c0.517,1.113,0.301,2.42-0.107,3.534c-0.676,1.866-1.553,3.73-2.722,5.375l-0.044-0.033c-0.108-0.071-0.354-0.223-0.479-0.294
		c-2.536-1.722-4.508-4.072-4.745-7.245c0.542-0.29,1.091-0.569,1.642-0.836c0.79-0.383,1.593-0.735,2.404-1.043
		C95.505,281.614,95.94,281.394,96.4,281.224z"/>
	<g>
		<path fill="#2B2E31" d="M96.523,277.348c0.215-0.404,1.139-0.924,1.139-0.107c0,0.49-0.264,1.032-1.27,0.416
			C96.43,277.549,96.471,277.449,96.523,277.348z"/>
	</g>
	<g>
		<path fill="#2B2E31" d="M96.551,277.701c0.099-0.276,0.224-0.462,0.473-0.616c0.149-0.093,0.399-0.204,0.463,0.026
			c0.049,0.178,0.003,0.441-0.123,0.577c-0.22,0.238-0.689-0.056-0.887-0.173c-0.184-0.108-0.349,0.176-0.167,0.283
			c0.343,0.203,0.853,0.456,1.226,0.174c0.279-0.213,0.326-0.625,0.268-0.948c-0.07-0.386-0.476-0.433-0.779-0.306
			c-0.409,0.171-0.643,0.487-0.789,0.895C96.163,277.812,96.48,277.898,96.551,277.701z"/>
		<path fill="#2B2E31" d="M96.798,281.999c-0.298-0.688-0.305-1.437-0.356-2.174c-0.051-0.722-0.088-1.418,0.109-2.124
			c0.057-0.204-0.26-0.291-0.316-0.088c-0.229,0.816-0.16,1.635-0.103,2.471c0.05,0.72,0.093,1.412,0.384,2.08
			C96.6,282.359,96.881,282.191,96.798,281.999L96.798,281.999z"/>
	</g>
	<path fill="#2B2E31" d="M96.166,291.279c-0.104-0.068-0.35-0.22-0.475-0.29c-2.965-2.015-4.573-4.473-4.785-7.312l0.162-0.013
		c0.21,2.786,1.794,5.204,4.709,7.185c0.127,0.07,0.373,0.224,0.479,0.293L96.166,291.279z"/>
	<path fill="#2B2E31" d="M93.129,294.353c-1.275-0.984-2.068-2.623-2.674-4.096c-0.661-1.604-1.053-3.338-1.164-5.152v-0.518h0.164
		v0.513c0.109,1.792,0.497,3.508,1.152,5.095c0.597,1.453,1.376,3.066,2.62,4.027L93.129,294.353z"/>
	<path fill="#2B2E31" d="M90.489,296.15c-0.108-0.056-0.348-0.2-0.444-0.276c-1.291-0.822-2.103-1.96-2.548-3.576
		c-0.56-2.056-0.766-4.521-0.872-6.197l0.164-0.011c0.105,1.669,0.311,4.123,0.866,6.165c0.434,1.574,1.224,2.683,2.485,3.486
		c0.091,0.072,0.323,0.211,0.425,0.264L90.489,296.15z"/>
	<path fill="#2B2E31" d="M86.822,296.26c-0.612-1.026-1.208-2.212-1.676-3.337c-0.38-0.889-0.606-1.818-0.734-3.015
		c-0.02-0.284-0.03-0.598-0.042-0.929c-0.017-0.495-0.033-1.007-0.087-1.431l0.163-0.021c0.054,0.432,0.071,0.947,0.088,1.446
		c0.013,0.33,0.021,0.642,0.042,0.92c0.125,1.176,0.348,2.092,0.721,2.966c0.467,1.119,1.057,2.297,1.666,3.316L86.822,296.26z"/>
	<path fill="#2B2E31" d="M97.473,283.777c-0.337,0.785-1.607,0.918-1.854-0.009c-0.054-0.204-0.371-0.117-0.316,0.087
		c0.313,1.178,1.998,1.148,2.453,0.088C97.838,283.75,97.556,283.583,97.473,283.777L97.473,283.777z"/>
</g>
<g>
	<path fill="#2B2E31" d="M274.08,211.147c-0.438,0.137-0.691,0.809-0.309,1.08c0.408,0.326,0.933,0.037,1.43-0.616l0.025-0.022
		C274.919,211.191,274.54,210.983,274.08,211.147z"/>
	<path fill="#2B2E31" d="M276.563,215.093c-0.171-0.962-0.68-4.531-2.303-4.156c-0.535,0.123-1.087,0.67-0.744,1.254
		c0.488,0.834,1.445-0.033,1.801-0.465c0.133-0.161-0.098-0.395-0.231-0.231c-0.112,0.15-0.237,0.29-0.376,0.418
		c-0.292-0.117-0.586-0.235-0.878-0.353c0.638-0.319,1.092-0.233,1.36,0.258c0.273,0.377,0.428,0.84,0.572,1.277
		c0.225,0.677,0.357,1.384,0.481,2.086C276.282,215.389,276.599,215.3,276.563,215.093L276.563,215.093z"/>
	<path fill="#E6E7E8" d="M281.52,216.642c0.55,0.268,1.099,0.546,1.641,0.836c0.101,0.052,0.201,0.104,0.301,0.159l0.053-0.101
		c-0.082-1.195,0.386-2.483,0.765-3.597c0.464-1.277,1.062-2.477,1.849-3.56c0.938-1.252,2.408-2.6,4.035-3.201l-0.016-0.032
		c-0.137-0.813-0.403-1.827-0.813-2.533c-1.113-1.903-3.371-1.903-5.189-1.031c-5.111,2.391-4.871,8.739-2.588,12.981
		L281.52,216.642z"/>
	<path fill="#F1F2F2" d="M283.514,217.537l-0.053,0.101c0.446,0.237,0.892,0.479,1.333,0.724c0.608,0.338,1.214,0.676,1.819,1.006
		l0.033-0.06c2.854-0.271,6.113-1.154,8.045-3.411c1.14-1.358,1.685-3.315,1.303-5.056c-0.354-1.548-1.738-3.616-3.422-3.913
		c-0.811-0.152-1.627-0.033-2.41,0.252c-1.627,0.602-3.097,1.949-4.035,3.201c-0.787,1.083-1.385,2.282-1.849,3.56
		C283.899,215.053,283.432,216.341,283.514,217.537z"/>
	<path fill="#2B2E31" d="M283.605,229.92c0.77,0.309,1.578,0.468,2.414,0.384c0.385-0.034,0.809-0.12,1.243-0.25l-0.007-0.029
		c0.615-1.032,1.202-2.201,1.67-3.326c0.42-0.98,0.616-1.941,0.728-2.992c0.052-0.705,0.041-1.651,0.13-2.361l0.037-0.048
		c-0.754-0.554-1.585-1.028-2.35-1.452l-0.03,0.057c-0.126,1.993-0.346,4.258-0.868,6.181c-0.42,1.521-1.181,2.681-2.521,3.534
		c-0.089,0.07-0.323,0.211-0.431,0.267L283.605,229.92z"/>
	<path fill="#2B2E31" d="M277.893,225.051c0.568,0.798,1.207,1.54,1.927,2.208c0.333,0.308,0.688,0.631,1.062,0.939l0.089-0.104
		c1.271-0.98,2.05-2.609,2.647-4.061c0.672-1.63,1.051-3.371,1.158-5.127c0-0.13,0-0.404,0-0.513l0.019-0.033
		c-0.441-0.245-0.887-0.486-1.333-0.724c-0.1-0.056-0.2-0.107-0.301-0.159c-0.237,3.173-2.209,5.523-4.744,7.246
		c-0.126,0.07-0.371,0.223-0.479,0.293L277.893,225.051z"/>
	<path fill="#FDBE68" d="M289.783,221.345c-0.089,0.71-0.078,1.656-0.13,2.361c-0.111,1.051-0.308,2.012-0.728,2.992
		c-0.468,1.125-1.055,2.294-1.67,3.326l0.007,0.029c2.335-0.693,5.09-2.672,4.956-5.078c-0.078-1.563-1.121-2.739-2.398-3.679
		L289.783,221.345z"/>
	<path fill="#FDBE68" d="M284.775,218.907c-0.107,1.756-0.486,3.497-1.158,5.127c-0.598,1.451-1.377,3.08-2.647,4.061l-0.089,0.104
		c0.824,0.687,1.741,1.325,2.725,1.722l0.016-0.037c0.107-0.056,0.342-0.196,0.431-0.267c1.34-0.854,2.101-2.013,2.521-3.534
		c0.522-1.923,0.742-4.188,0.868-6.181l0.03-0.057c-0.26-0.145-0.509-0.281-0.746-0.415c-0.038-0.019-0.075-0.041-0.111-0.063
		c-0.605-0.33-1.211-0.668-1.819-1.006l-0.019,0.033C284.775,218.502,284.775,218.777,284.775,218.907z"/>
	<path fill="#FDBE68" d="M277.747,215.032c-0.173-0.063-0.352-0.119-0.538-0.167c-0.924-0.383-1.767,0.489-2.146,1.276
		c-0.517,1.113-0.301,2.42,0.108,3.534c0.676,1.867,1.552,3.731,2.721,5.376l0.045-0.034c0.107-0.07,0.353-0.223,0.479-0.293
		c2.535-1.723,4.507-4.073,4.744-7.246c-0.542-0.29-1.091-0.568-1.641-0.836c-0.791-0.382-1.592-0.735-2.406-1.043
		C278.643,215.421,278.208,215.203,277.747,215.032z"/>
	<g>
		<path fill="#2B2E31" d="M277.625,211.156c-0.215-0.405-1.14-0.924-1.14-0.107c0,0.49,0.265,1.031,1.271,0.415
			C277.718,211.356,277.678,211.255,277.625,211.156z"/>
	</g>
	<g>
		<path fill="#2B2E31" d="M277.914,211.42c-0.144-0.397-0.361-0.695-0.751-0.878c-0.318-0.15-0.667-0.113-0.806,0.242
			c-0.116,0.299-0.012,0.754,0.223,0.969c0.361,0.328,0.913,0.057,1.258-0.147c0.182-0.107,0.018-0.392-0.165-0.283
			c-0.23,0.136-0.595,0.363-0.863,0.196c-0.159-0.1-0.163-0.373-0.158-0.534c0.009-0.281,0.257-0.208,0.431-0.118
			c0.271,0.143,0.413,0.358,0.515,0.641C277.668,211.705,277.985,211.62,277.914,211.42z"/>
		<path fill="#2B2E31" d="M277.633,215.971c0.289-0.666,0.339-1.362,0.384-2.08c0.052-0.839,0.126-1.652-0.103-2.471
			c-0.057-0.203-0.374-0.117-0.317,0.087c0.198,0.706,0.161,1.402,0.109,2.124c-0.052,0.737-0.058,1.484-0.356,2.175
			C277.267,215.998,277.549,216.166,277.633,215.971L277.633,215.971z"/>
	</g>
	<path fill="#2B2E31" d="M277.982,225.085l-0.09-0.137c0.111-0.073,0.355-0.225,0.484-0.296c2.909-1.978,4.493-4.395,4.701-7.182
		l0.164,0.012c-0.213,2.84-1.82,5.298-4.779,7.309C278.332,224.864,278.089,225.015,277.982,225.085z"/>
	<path fill="#2B2E31" d="M281.02,228.16l-0.1-0.13c1.243-0.959,2.023-2.574,2.621-4.027c0.654-1.588,1.043-3.304,1.152-5.101v-0.508
		h0.164v0.513c-0.111,1.82-0.503,3.554-1.164,5.157C283.087,225.538,282.294,227.176,281.02,228.16z"/>
	<path fill="#2B2E31" d="M283.659,229.958l-0.076-0.146c0.102-0.052,0.334-0.191,0.418-0.259c1.269-0.809,2.058-1.917,2.492-3.491
		c0.556-2.042,0.76-4.496,0.865-6.165l0.164,0.011c-0.106,1.676-0.312,4.142-0.871,6.197c-0.446,1.616-1.258,2.755-2.556,3.581
		C284.008,229.756,283.768,229.901,283.659,229.958z"/>
	<path fill="#2B2E31" d="M287.326,230.067l-0.142-0.084c0.608-1.02,1.2-2.196,1.665-3.315c0.375-0.875,0.598-1.789,0.723-2.97
		c0.02-0.275,0.03-0.588,0.041-0.918c0.017-0.498,0.034-1.013,0.088-1.444l0.163,0.021c-0.053,0.424-0.07,0.935-0.087,1.429
		c-0.011,0.333-0.021,0.646-0.042,0.928c-0.128,1.199-0.354,2.13-0.734,3.019C288.533,227.856,287.938,229.042,287.326,230.067z"/>
	<path fill="#2B2E31" d="M276.393,217.75c0.455,1.061,2.139,1.09,2.453-0.087c0.054-0.205-0.262-0.292-0.316-0.088
		c-0.247,0.928-1.516,0.794-1.854,0.009C276.592,217.39,276.31,217.557,276.393,217.75L276.393,217.75z"/>
</g>
<g>
	<path fill="#2B2E31" d="M59.713,194.656c-0.402,0.126-0.634,0.742-0.283,0.99c0.375,0.3,0.854,0.034,1.311-0.564l0.022-0.021
		C60.481,194.697,60.135,194.506,59.713,194.656z"/>
	<path fill="#2B2E31" d="M61.987,198.274c-0.156-0.882-0.622-4.153-2.109-3.81c-0.491,0.112-0.996,0.613-0.683,1.149
		c0.447,0.763,1.326-0.031,1.651-0.426c0.122-0.148-0.09-0.362-0.213-0.213c-0.104,0.138-0.218,0.266-0.345,0.383
		c-0.268-0.107-0.536-0.215-0.805-0.323c0.584-0.292,1-0.213,1.247,0.236c0.25,0.346,0.392,0.77,0.524,1.171
		c0.206,0.62,0.328,1.269,0.441,1.911C61.731,198.544,62.021,198.463,61.987,198.274L61.987,198.274z"/>
	<path fill="#E6E7E8" d="M66.531,199.693c0.503,0.245,1.006,0.5,1.504,0.766c0.092,0.047,0.184,0.095,0.274,0.146l0.049-0.092
		c-0.075-1.095,0.353-2.276,0.7-3.296c0.426-1.171,0.973-2.27,1.695-3.264c0.859-1.146,2.207-2.381,3.697-2.933l-0.014-0.03
		c-0.125-0.745-0.371-1.674-0.745-2.32c-1.021-1.745-3.089-1.745-4.757-0.945c-4.685,2.191-4.463,8.009-2.37,11.896L66.531,199.693z
		"/>
	<path fill="#F1F2F2" d="M68.358,200.512l-0.049,0.092c0.409,0.218,0.817,0.439,1.222,0.664c0.559,0.31,1.113,0.619,1.668,0.922
		l0.03-0.055c2.616-0.248,5.604-1.058,7.372-3.127c1.045-1.245,1.545-3.038,1.195-4.633c-0.324-1.419-1.593-3.314-3.138-3.586
		c-0.741-0.14-1.49-0.031-2.208,0.23c-1.49,0.552-2.838,1.786-3.697,2.933c-0.723,0.994-1.27,2.093-1.695,3.264
		C68.711,198.236,68.283,199.417,68.358,200.512z"/>
	<path fill="#2B2E31" d="M68.442,211.862c0.705,0.283,1.447,0.429,2.212,0.351c0.354-0.03,0.741-0.108,1.14-0.228l-0.007-0.027
		c0.564-0.946,1.102-2.018,1.531-3.049c0.385-0.897,0.564-1.779,0.667-2.741c0.048-0.646,0.037-1.515,0.118-2.164l0.034-0.045
		c-0.69-0.507-1.452-0.941-2.153-1.329l-0.027,0.05c-0.115,1.827-0.316,3.903-0.796,5.665c-0.384,1.395-1.081,2.457-2.31,3.239
		c-0.082,0.064-0.296,0.193-0.395,0.245L68.442,211.862z"/>
	<path fill="#2B2E31" d="M63.207,207.399c0.521,0.731,1.105,1.411,1.766,2.023c0.306,0.283,0.63,0.579,0.974,0.861l0.081-0.096
		c1.164-0.897,1.878-2.392,2.426-3.722c0.615-1.493,0.963-3.089,1.062-4.698c0-0.119,0-0.371,0-0.47l0.017-0.03
		c-0.404-0.225-0.813-0.446-1.222-0.664c-0.091-0.051-0.183-0.099-0.274-0.146c-0.219,2.908-2.024,5.063-4.348,6.641
		c-0.116,0.064-0.341,0.204-0.439,0.269L63.207,207.399z"/>
	<path fill="#FDBE68" d="M74.104,204.003c-0.081,0.649-0.07,1.518-0.118,2.164c-0.103,0.962-0.282,1.844-0.667,2.741
		c-0.43,1.031-0.967,2.103-1.531,3.049l0.007,0.027c2.141-0.636,4.664-2.45,4.542-4.654c-0.071-1.433-1.027-2.511-2.198-3.372
		L74.104,204.003z"/>
	<path fill="#FDBE68" d="M69.515,201.768c-0.099,1.609-0.446,3.205-1.062,4.698c-0.548,1.33-1.262,2.824-2.426,3.722l-0.081,0.096
		c0.755,0.63,1.595,1.215,2.496,1.578l0.015-0.033c0.099-0.052,0.313-0.181,0.395-0.245c1.229-0.782,1.926-1.845,2.31-3.239
		c0.479-1.762,0.681-3.838,0.796-5.665l0.027-0.05c-0.238-0.133-0.466-0.259-0.684-0.382c-0.034-0.017-0.068-0.037-0.102-0.058
		c-0.555-0.303-1.109-0.612-1.668-0.922l-0.017,0.03C69.515,201.397,69.515,201.649,69.515,201.768z"/>
	<path fill="#FDBE68" d="M63.074,198.216c-0.16-0.059-0.322-0.109-0.494-0.153c-0.846-0.351-1.618,0.449-1.966,1.171
		c-0.473,1.02-0.275,2.218,0.099,3.238c0.619,1.711,1.422,3.419,2.494,4.927l0.041-0.031c0.099-0.064,0.323-0.204,0.439-0.269
		c2.323-1.578,4.129-3.732,4.348-6.641c-0.498-0.266-1.001-0.521-1.504-0.766c-0.726-0.351-1.46-0.674-2.205-0.956
		C63.895,198.574,63.496,198.373,63.074,198.216z"/>
	<g>
		<path fill="#2B2E31" d="M62.962,194.665c-0.197-0.371-1.045-0.847-1.045-0.099c0,0.449,0.242,0.945,1.164,0.381
			C63.047,194.848,63.01,194.756,62.962,194.665z"/>
	</g>
	<g>
		<path fill="#2B2E31" d="M63.226,194.907c-0.131-0.364-0.33-0.637-0.688-0.805c-0.292-0.138-0.61-0.104-0.738,0.223
			c-0.106,0.273-0.011,0.69,0.204,0.888c0.331,0.301,0.837,0.052,1.152-0.136c0.168-0.099,0.016-0.358-0.151-0.26
			c-0.21,0.125-0.545,0.333-0.79,0.181c-0.146-0.092-0.149-0.342-0.146-0.49c0.009-0.257,0.235-0.19,0.395-0.107
			c0.25,0.13,0.379,0.328,0.473,0.587C63.001,195.167,63.292,195.09,63.226,194.907z"/>
		<path fill="#2B2E31" d="M62.97,199.078c0.265-0.61,0.31-1.249,0.351-1.906c0.047-0.769,0.115-1.514-0.095-2.265
			c-0.052-0.187-0.342-0.106-0.289,0.08c0.181,0.646,0.146,1.285,0.1,1.946c-0.048,0.676-0.053,1.361-0.327,1.993
			C62.634,199.102,62.893,199.255,62.97,199.078L62.97,199.078z"/>
	</g>
	<path fill="#2B2E31" d="M63.289,207.431l-0.082-0.126c0.102-0.067,0.326-0.206,0.443-0.271c2.667-1.813,4.118-4.027,4.31-6.581
		l0.149,0.012c-0.194,2.602-1.668,4.854-4.38,6.697C63.61,207.228,63.387,207.367,63.289,207.431z"/>
	<path fill="#2B2E31" d="M66.073,210.248l-0.092-0.119c1.139-0.879,1.854-2.359,2.402-3.691c0.6-1.454,0.955-3.026,1.056-4.674
		v-0.465h0.15v0.47c-0.102,1.668-0.461,3.257-1.066,4.727C67.967,207.845,67.24,209.347,66.073,210.248z"/>
	<path fill="#2B2E31" d="M68.492,211.895l-0.07-0.134c0.093-0.048,0.306-0.176,0.383-0.236c1.162-0.741,1.886-1.757,2.284-3.2
		c0.509-1.871,0.696-4.12,0.794-5.649l0.149,0.009c-0.097,1.536-0.286,3.796-0.798,5.68c-0.409,1.482-1.153,2.525-2.343,3.283
		C68.811,211.711,68.591,211.843,68.492,211.895z"/>
	<path fill="#2B2E31" d="M71.853,211.996l-0.13-0.076c0.558-0.935,1.1-2.014,1.525-3.039c0.344-0.801,0.548-1.641,0.662-2.721
		c0.02-0.253,0.028-0.539,0.039-0.843c0.015-0.456,0.03-0.928,0.08-1.323l0.149,0.02c-0.049,0.388-0.064,0.856-0.08,1.31
		c-0.01,0.304-0.019,0.592-0.038,0.85c-0.117,1.1-0.324,1.952-0.673,2.767C72.958,209.97,72.413,211.056,71.853,211.996z"/>
	<path fill="#2B2E31" d="M61.832,200.708c0.418,0.972,1.961,0.999,2.248-0.08c0.05-0.188-0.24-0.267-0.29-0.08
		c-0.227,0.85-1.39,0.729-1.698,0.009C62.015,200.378,61.756,200.532,61.832,200.708L61.832,200.708z"/>
</g>
<g>
	<path fill="#2B2E31" d="M227.215,99.645c0.356-0.153,0.888,0.139,0.792,0.522c-0.082,0.434-0.577,0.537-1.255,0.392h-0.029
		C226.701,100.135,226.83,99.793,227.215,99.645z"/>
	<path fill="#2B2E31" d="M227.796,103.54c-0.42-0.71-2.059-3.276-0.812-3.931c0.41-0.215,1.064-0.168,1.166,0.395
		c0.146,0.803-0.944,0.774-1.409,0.694c-0.175-0.03-0.155-0.308,0.021-0.276c0.155,0.034,0.313,0.055,0.471,0.061
		c0.123-0.236,0.246-0.473,0.369-0.709c-0.584,0.146-0.827,0.451-0.729,0.913c0.032,0.393,0.188,0.774,0.335,1.134
		c0.229,0.558,0.533,1.084,0.84,1.602C228.138,103.575,227.887,103.693,227.796,103.54L227.796,103.54z"/>
	<path fill="#E6E7E8" d="M225.472,107.26c-0.205,0.474-0.403,0.954-0.592,1.438c-0.036,0.089-0.071,0.177-0.104,0.269l-0.089-0.036
		c-0.605-0.811-1.614-1.379-2.47-1.884c-1-0.563-2.042-1.002-3.143-1.265c-1.291-0.284-2.974-0.339-4.348,0.171l-0.008-0.03
		c-0.36-0.596-0.746-1.393-0.872-2.069c-0.335-1.833,1.111-3.074,2.757-3.517c4.591-1.281,7.93,2.919,8.801,6.895L225.472,107.26z"
		/>
	<path fill="#F1F2F2" d="M224.687,108.93l0.089,0.036c-0.155,0.396-0.309,0.797-0.456,1.196c-0.204,0.552-0.405,1.102-0.612,1.646
		l-0.054-0.019c-1.978,1.396-4.553,2.624-7.031,2.239c-1.479-0.243-2.904-1.196-3.617-2.521c-0.626-1.187-0.876-3.273,0.04-4.391
		c0.435-0.543,1.023-0.916,1.682-1.164c1.374-0.51,3.057-0.455,4.348-0.171c1.101,0.263,2.143,0.701,3.143,1.265
		C223.072,107.551,224.081,108.12,224.687,108.93z"/>
	<path fill="#2B2E31" d="M231.441,116.917c-0.322,0.62-0.754,1.168-1.336,1.573c-0.266,0.19-0.584,0.368-0.934,0.524l-0.012-0.023
		c-0.963-0.322-1.981-0.749-2.9-1.212c-0.809-0.396-1.463-0.905-2.112-1.517c-0.421-0.423-0.935-1.036-1.382-1.441l-0.051-0.011
		c0.179-0.769,0.449-1.531,0.707-2.223l0.049,0.019c1.179,1.208,2.565,2.539,3.958,3.483c1.106,0.744,2.231,1.067,3.56,0.877
		c0.096-0.004,0.323-0.042,0.424-0.065L231.441,116.917z"/>
	<path fill="#2B2E31" d="M232.423,110.652c0.075,0.824,0.074,1.651-0.02,2.476c-0.044,0.381-0.093,0.782-0.163,1.187l-0.115-0.019
		c-1.353,0.071-2.748-0.545-3.93-1.146c-1.328-0.675-2.528-1.582-3.563-2.647c-0.071-0.083-0.224-0.26-0.282-0.328l-0.03-0.012
		c0.147-0.399,0.301-0.8,0.456-1.196c0.033-0.092,0.068-0.18,0.104-0.269c1.898,1.903,4.454,2.324,7.026,2.033
		c0.121-0.024,0.361-0.062,0.469-0.076L232.423,110.652z"/>
	<path fill="#FDBE68" d="M222.766,114.821c0.447,0.405,0.961,1.019,1.382,1.441c0.649,0.611,1.304,1.12,2.112,1.517
		c0.919,0.463,1.938,0.89,2.9,1.212l0.012,0.023c-1.878,0.84-4.732,1.088-5.97-0.526c-0.811-1.045-0.789-2.373-0.487-3.678
		L222.766,114.821z"/>
	<path fill="#FDBE68" d="M224.632,110.502c1.035,1.065,2.235,1.973,3.563,2.647c1.182,0.601,2.577,1.217,3.93,1.146l0.115,0.019
		c-0.15,0.893-0.387,1.807-0.799,2.603l-0.029-0.016c-0.101,0.023-0.328,0.062-0.424,0.065c-1.328,0.19-2.453-0.133-3.56-0.877
		c-1.393-0.944-2.779-2.275-3.958-3.483l-0.049-0.019c0.086-0.236,0.17-0.461,0.249-0.677c0.014-0.032,0.025-0.067,0.036-0.103
		c0.207-0.544,0.408-1.094,0.612-1.646l0.03,0.012C224.408,110.243,224.561,110.419,224.632,110.502z"/>
	<path fill="#FDBE68" d="M227.002,104.152c0.076-0.136,0.16-0.27,0.253-0.402c0.382-0.754,1.401-0.658,2.077-0.363
		c0.943,0.43,1.524,1.386,1.876,2.324c0.595,1.568,1.059,3.244,1.215,4.941l-0.048,0.003c-0.107,0.015-0.348,0.052-0.469,0.076
		c-2.572,0.291-5.128-0.13-7.026-2.033c0.188-0.483,0.387-0.964,0.592-1.438c0.296-0.681,0.615-1.348,0.968-1.992
		C226.643,104.895,226.801,104.515,227.002,104.152z"/>
	<g>
		<path fill="#2B2E31" d="M224.948,101.601c-0.085-0.377,0.222-1.219,0.671-0.695c0.27,0.313,0.398,0.807-0.585,0.965
			C224.999,101.781,224.97,101.694,224.948,101.601z"/>
	</g>
	<g>
		<path fill="#2B2E31" d="M224.908,101.93c-0.126-0.334-0.15-0.645-0.002-0.977c0.121-0.271,0.365-0.438,0.65-0.287
			c0.238,0.127,0.422,0.477,0.39,0.743c-0.051,0.409-0.554,0.538-0.888,0.597c-0.176,0.032-0.226-0.241-0.049-0.271
			c0.222-0.04,0.581-0.095,0.66-0.35c0.047-0.151-0.101-0.329-0.192-0.429c-0.159-0.176-0.278,0.008-0.341,0.161
			c-0.096,0.241-0.067,0.457,0.023,0.693C225.223,101.977,224.973,102.097,224.908,101.93z"/>
		<path fill="#2B2E31" d="M227.593,104.692c-0.552-0.269-0.967-0.688-1.391-1.123c-0.494-0.509-0.99-0.988-1.294-1.639
			c-0.074-0.162,0.176-0.281,0.252-0.119c0.262,0.562,0.668,0.987,1.098,1.422c0.439,0.444,0.854,0.919,1.426,1.196
			C227.842,104.507,227.753,104.77,227.593,104.692L227.593,104.692z"/>
	</g>
	<path fill="#2B2E31" d="M232.385,110.724l-0.019-0.138c-0.111,0.015-0.352,0.052-0.474,0.077c-2.952,0.334-5.297-0.344-6.963-2.015
		l-0.099,0.098c1.698,1.703,4.082,2.394,7.083,2.053C232.037,110.775,232.277,110.738,232.385,110.724z"/>
	<path fill="#2B2E31" d="M232.129,114.365l-0.007-0.139c-1.325,0.069-2.713-0.536-3.896-1.138c-1.293-0.657-2.486-1.543-3.545-2.634
		l-0.279-0.326l-0.105,0.091l0.282,0.328c1.073,1.104,2.278,2,3.584,2.665C229.363,113.822,230.772,114.436,232.129,114.365z"/>
	<path fill="#2B2E31" d="M231.428,116.968l-0.032-0.135c-0.094,0.022-0.319,0.061-0.41,0.063c-1.257,0.181-2.372-0.096-3.519-0.865
		c-1.479-1.003-2.96-2.463-3.946-3.474l-0.099,0.097c0.99,1.016,2.479,2.481,3.968,3.491c1.176,0.791,2.322,1.073,3.608,0.89
		C231.094,117.032,231.327,116.992,231.428,116.968z"/>
	<path fill="#2B2E31" d="M229.139,119.057l0.044-0.132c-0.95-0.318-1.978-0.747-2.892-1.208c-0.721-0.354-1.367-0.818-2.097-1.505
		c-0.165-0.166-0.343-0.36-0.532-0.566c-0.284-0.31-0.579-0.63-0.85-0.877l-0.094,0.104c0.268,0.242,0.56,0.56,0.842,0.867
		c0.189,0.207,0.369,0.402,0.537,0.571c0.742,0.698,1.398,1.17,2.133,1.53C227.148,118.304,228.182,118.737,229.139,119.057z"/>
	<path fill="#2B2E31" d="M229.366,105.148c0.292,0.931-0.771,1.876-1.62,1.294c-0.147-0.101,0.008-0.331,0.155-0.229
		c0.668,0.458,1.408-0.325,1.192-1.015C229.041,105.028,229.314,104.98,229.366,105.148L229.366,105.148z"/>
</g>
<path fill="#87A15D" d="M324,331.33c-2.765-1.71-6.605-1.554-9.621-2.225c-3.287-0.641-5.922-2.825-9.27-3.184
	c2.601-0.567,4.515-1.519,7.237-0.997c2.632,0.53,4.61,2.604,7.162,3.236c-3.371-2.193-5.675-7.17-10.19-6.479
	c-5.604,0.813-11.44,1.194-16.083-2.51c3.114-0.901,6.048-0.13,9.014,0.916c1.735,0.724,6.011,1.988,7.692,0.604
	c-4.025-3.129-8.887-4.695-13.387-7.13c-5.487-3.057-9.164-7.972-11.471-13.774c6.141,0.688,8.55,8.225,12.809,11.787
	c-1.475-2.498-2.547-4.674-3.145-7.546c-0.578-2.691-0.794-5.423-1.645-8.083c4.893,2.664,4.439,10.064,6.754,14.306
	c1.869,3.556,6.158,7.392,9.729,8.919c-5.377-3.713-9.005-9.827-10.272-16.207c3.338,1.095,6.722,5.858,8.61,8.769
	c2.111,3.254,2.843,7.307,5.981,9.892c-1.333-2.054-2.667-4.108-3.386-6.416c-0.567-1.774-0.438-3.901-1.269-5.554
	c3.956,2.496,6.675,7.885,8.162,12.127c1.336,3.708,5.069,5.86,6.576,9.458"/>
<g>
	<path fill="#594A42" d="M99.452,109.125l1.82,2.639c19.407-11.737,41.019-28.657,41.188-33.705
		C136.155,84.939,111.188,102.79,99.452,109.125z"/>
	<path fill="#594A42" d="M0,104.184v9.622c67.957,4.083,150.2-0.885,159.226-13.066C131.917,106.991,39.798,108.535,0,104.184z"/>
	<path fill="#594A42" d="M21.785,110.031l-0.79,3.107c21.607,6.892,48.569,12.032,52.481,8.839
		C64.147,121.756,34.278,114.7,21.785,110.031z"/>
	<g>
		<path fill="#72923B" d="M133.308,79.594c-0.965,1.563-2.094,2.746-3.328,3.536c-1.194,0.79-2.522,1.171-3.69,0.765
			c-1.156-0.401-1.92-1.578-2.1-3.263c-0.154-1.656,0.34-3.802,1.524-5.714c1.19-1.908,3.219-2.839,4.903-3.287
			c1.688-0.448,3.075-0.469,3.075-0.469s0.422,1.322,0.558,3.054C134.387,75.949,134.278,78.038,133.308,79.594z"/>
	</g>
	<g>
		<path fill="#87A15D" d="M26.15,121.732c1.883-1.126,3.942-1.735,5.692-1.734c1.763,0.001,3.175,0.615,3.837,1.8
			c0.663,1.188,0.487,2.702-0.3,4.194c-0.792,1.501-2.218,3.015-4.201,4.201c-1.998,1.185-4.516,1.18-6.448,0.771
			c-0.959-0.191-1.799-0.507-2.364-0.743c-0.572-0.242-0.9-0.428-0.9-0.428s0.086-0.38,0.263-0.971
			c0.176-0.6,0.44-1.375,0.789-2.254C23.226,124.836,24.271,122.844,26.15,121.732z"/>
	</g>
	<g>
		<path fill="#72923B" d="M44.176,133.092c-1.189-1.748-1.738-3.667-1.671-5.204c0.073-1.551,0.717-2.688,1.762-3.13
			c1.058-0.447,2.302-0.17,3.467,0.507c1.18,0.682,2.318,1.752,3.257,3.14c0.951,1.367,1.113,3.187,1.135,4.762
			c0.003,0.787-0.021,1.483-0.068,2.004c-0.042,0.518-0.091,0.84-0.091,0.84s-0.313,0.046-0.836,0.061
			c-0.518,0.012-1.263,0.007-2.08-0.138C47.417,135.66,45.385,134.836,44.176,133.092z"/>
	</g>
	<g>
		<path fill="#72923B" d="M100.977,93.812c1.205,1.586,1.856,3.116,2.138,4.545c0.063,0.381,0.118,0.705,0.142,1.046
			c0.024,0.34,0.021,0.681-0.015,1.015c-0.071,0.668-0.264,1.308-0.641,1.836c-0.377,0.529-0.91,0.895-1.595,1.066
			c-0.342,0.086-0.723,0.124-1.135,0.112c-0.411-0.014-0.87-0.071-1.292-0.206c-1.79-0.493-3.722-1.897-5.118-3.748
			c-1.371-1.845-1.497-4.063-1.383-5.854c0.063-0.904,0.17-1.68,0.27-2.27c0.099-0.582,0.186-0.944,0.186-0.944
			s0.359-0.021,0.952,0.012c0.584,0.033,1.438,0.126,2.34,0.354C97.649,91.232,99.776,92.199,100.977,93.812z"/>
	</g>
	<g>
		<path fill="#87A15D" d="M141.77,99.889c-2.642-0.171-4.996-0.904-6.531-2.125c-1.557-1.175-2.361-2.63-2.139-4.098
			c0.224-1.467,1.398-2.675,3.041-3.449c1.655-0.725,3.753-1.228,6.021-1.069c1.131,0.003,2.201,0.345,3.203,0.854
			c0.252,0.128,0.497,0.266,0.738,0.412c0.24,0.141,0.476,0.27,0.705,0.415c0.459,0.286,0.896,0.596,1.301,0.907
			c1.621,1.246,2.758,2.521,2.758,2.521s-0.854,1.399-2.453,2.845c-0.398,0.36-0.844,0.725-1.331,1.069
			c-0.243,0.17-0.497,0.346-0.761,0.495c-0.265,0.143-0.538,0.278-0.82,0.403C144.373,99.57,143.098,99.899,141.77,99.889z"/>
	</g>
	<g>
		<path fill="#87A15D" d="M117.358,85.18c1.243,0.857,2.331,1.967,2.978,3.126c0.656,1.158,0.836,2.348,0.327,3.288
			c-0.507,0.937-1.592,1.452-2.967,1.494c-1.376,0.031-3.088-0.423-4.76-1.573c-0.827-0.608-1.479-1.378-1.907-2.272
			c-0.451-0.842-0.646-1.808-0.73-2.595c-0.05-0.389-0.029-0.786-0.005-1.123c0.026-0.34,0.069-0.635,0.115-0.875
			c0.091-0.481,0.187-0.755,0.187-0.755s0.312,0.013,0.793,0.049c0.236,0.02,0.518,0.043,0.826,0.068
			c0.306,0.026,0.618,0.067,0.984,0.084c0.72,0.048,1.418,0.141,2.156,0.271C116.044,84.524,116.766,84.737,117.358,85.18z"/>
	</g>
	<g>
		<path fill="#87A15D" d="M154.065,75.051c-1.077,1.671-2.5,2.904-3.825,3.589c-1.354,0.684-2.745,0.83-3.814,0.221
			c-1.07-0.608-1.607-1.879-1.58-3.488c0.014-1.634,0.643-3.478,1.778-5.238c1.136-1.708,3.095-2.634,4.743-3.122
			c1.659-0.496,3.053-0.588,3.053-0.588s0.485,1.293,0.677,3.033C155.284,71.212,155.19,73.36,154.065,75.051z"/>
	</g>
	<g>
		<g>
			<path fill="#FAA629" d="M103.446,118.531c0.768-4.493,6.903-6.574,10.848-7.013s9.204,0.657,11.725,3.944
				c0.767,1.096,0.986,2.739,2.082,2.958c0.876,0.22,2.191-0.548,3.177-0.548c0.986,0.109,1.645,0.329,2.411,0.877
				c1.206,0.767,2.739,2.082,3.068,3.506c0.181,0.787-0.021,1.265-0.411,1.927c-0.301,0.509-1.372,1.563-0.491,1.866
				c0.701,0.241,1.44,0.293,2.137,0.592c1.349,0.578,2.441,1.617,2.819,3.066c0.767,2.521-0.876,3.944-2.63,5.26
				c5.04,0.877,6.903,5.697,1.972,8.218c1.535,1.644,3.397,3.726,1.974,5.917c-1.206,1.863-3.726,2.41-5.698,2.63
				c0.986,1.972,2.521,3.506,0.986,5.697c-1.096,1.754-3.287,1.863-5.04,1.315c-1.534,8.766-13.807,11.066-21.038,9.752
				c-4.164-0.767-6.574-2.301-8.984-5.808c-2.083-2.958-3.069-3.835-6.575-4.712c-2.191-0.548-4.054-1.424-3.835-4.054
				c0.109-1.754,1.534-3.507,3.287-3.507c-1.973-0.876-4.821-2.191-5.479-4.602c-0.438-1.973,1.096-4.383,3.178-3.835
				c-1.314-1.644-4.164-3.068-3.396-5.588c0.767-2.63,4.054-2.85,6.245-2.959c-2.081-0.985-5.588-3.178-3.726-5.917
				c1.315-1.862,4.821-1.753,6.685-1.096c-1.315-1.973-2.959-4.492-1.096-6.793c1.096-1.315,4.163-2.191,5.587-1.096"/>
			<g>
				<path fill="none" d="M138.264,134.903c-0.027,0.021-0.055,0.043-0.083,0.063C138.4,134.885,138.42,134.871,138.264,134.903z"/>
				<path fill="#FDD98B" d="M128.101,118.42c-1.096-0.219-1.315-1.862-2.082-2.958c-0.342-0.445-0.735-0.85-1.168-1.217
					c-6.851,3.945-12.479,1.93-16.587-1.035c-2.385,1.14-4.398,2.871-4.817,5.32h-0.22
					C115.525,126.454,128.101,118.42,128.101,118.42z"/>
				<path fill="#FDD98B" d="M135.702,125.976c-0.021-0.006-0.029-0.016-0.033-0.027c-0.506-0.388,0.403-1.303,0.677-1.767
					c0.39-0.662,0.592-1.14,0.411-1.927c-0.266-1.15-1.318-2.229-2.349-3.006c-12.342,8.252-18.719,12.278-36.956,0.627
					c-1.556,2.232,0.016,4.643,1.283,6.543c-0.165-0.058-0.343-0.111-0.53-0.16c0.011,0.02,0.021,0.041,0.032,0.06
					C114.316,135.97,131.656,128.064,135.702,125.976z"/>
				<path fill="#FDD98B" d="M138.264,134.903c1.722-1.297,3.302-2.716,2.547-5.196c-0.075-0.288-0.18-0.56-0.308-0.814
					c-18.951,11.043-41.237,3.733-48.85-0.586c-0.787,2.367,2.246,4.237,4.123,5.126
					C115.72,140.866,136.648,135.246,138.264,134.903z"/>
				<path fill="#FDD98B" d="M140.539,142.973c0.001-0.001,0.002-0.002,0.004-0.003c-0.072-0.1-0.032-0.055,0.008-0.005
					c0.266-0.225,0.645-0.479,1.065-0.759c1.296-1.141,1.658-2.511,1.286-3.76c-22.714,9.174-45.527,2.654-53.498-1.242
					c-0.014,2.03,2.357,3.316,3.523,4.774C110.64,149.92,133.238,145.071,140.539,142.973z"/>
				<path fill="#FDD98B" d="M136.428,151.731c1.973-0.22,4.492-0.767,5.698-2.63c0.432-0.665,0.56-1.319,0.487-1.955
					c-21.497,7.676-45.03,1.347-52.926-2.317c-0.027,0.331-0.009,0.663,0.063,0.985c0.657,2.41,3.506,3.726,5.479,4.602
					C110.354,159.406,128.445,154.473,136.428,151.731z"/>
				<path fill="#FDD98B" d="M137.414,157.428c0.461-0.657,0.643-1.256,0.648-1.825c-18.264,4.731-37.924,1.5-46.122-1.637
					c-0.194,2.595,1.657,3.466,3.836,4.01c1.454,0.364,2.475,0.729,3.32,1.24c11.776,1.603,26.535,0.71,33.277-0.473
					c0.002-0.009,0.014-0.005,0.033,0.01C134.154,159.29,136.325,159.17,137.414,157.428z"/>
				<path fill="#FDD98B" d="M103.382,164.06c2.099,2.55,4.381,3.777,7.954,4.436c5.189,0.943,12.977,0.024,17.526-3.811
					C117.66,168.316,107.998,165.801,103.382,164.06z"/>
			</g>
		</g>
		<g>
			<ellipse fill="#FDD98B" cx="116.814" cy="149.535" rx="6.974" ry="8.4"/>
			
				<pattern  id="SVGID_1_" xlink:href="#New_Pattern_Swatch_3" patternTransform="matrix(0.3148 0 0 0.3148 -4054.8242 -4585.3687)">
			</pattern>
			<ellipse fill="url(#SVGID_1_)" cx="116.109" cy="149.127" rx="6.975" ry="8.4"/>
		</g>
	</g>
</g>
<g>
	<pattern  id="SVGID_2_" xlink:href="#New_Pattern_Swatch_3" patternTransform="matrix(0.3148 0 0 0.3148 -4054.8242 -4585.3687)">
	</pattern>
	<path fill="url(#SVGID_2_)" d="M140.662,154.339c-0.975,0-1.967-0.041-2.982-0.094c-6.496-0.406-12.496-2.494-18.299-4.514
		c-0.583-0.202-1.167-0.405-1.749-0.606l0.145-0.42c0.583,0.201,1.167,0.404,1.751,0.607c5.773,2.009,11.745,4.087,18.178,4.489
		c4.166,0.22,7.919,0.222,11.645-1.969c2.244-1.418,4.213-3.452,6.117-5.42c1.637-1.691,3.331-3.441,5.191-4.784
		c5.282-3.774,10.906-2.833,16.347-1.923c3.646,0.61,7.399,1.237,11.023,0.422c-7.832-2.462-14.8-9.794-16.133-17.604
		c-0.991-6.244,0.919-8.428,2.695-9.161c3.42-1.412,9.354,1.582,13.159,6.574c0.683-3.303,3.701-6.632,6.593-7.159
		c1.453-0.264,3.51,0.031,5.062,2.942c1.989,3.769,2.002,9.017,0.033,14.037c-1.973,5.032-5.519,8.868-9.483,10.262
		c-0.089,0.033-0.18,0.065-0.27,0.097c0.735,0.167,1.476,0.288,2.217,0.36c6.355,0.614,13.72-1.091,19.7-4.563
		c5.683-3.299,8.965-8.822,11.84-14.197l0.392,0.21c-2.905,5.431-6.226,11.015-12.009,14.372
		c-6.059,3.517-13.519,5.246-19.966,4.621c-1-0.098-1.999-0.282-2.987-0.547c-3.936,1.111-8,0.432-11.94-0.229
		c-5.35-0.895-10.882-1.82-16.014,1.846c-1.827,1.32-3.507,3.055-5.131,4.733c-1.923,1.986-3.91,4.04-6.206,5.489
		C146.662,153.929,143.753,154.339,140.662,154.339z M176.542,113.449c-0.647,0-1.247,0.104-1.782,0.325
		c-2.335,0.964-3.174,3.965-2.426,8.679c1.347,7.889,8.565,15.283,16.531,17.46c0.314-0.092,0.627-0.194,0.938-0.311
		c3.849-1.353,7.294-5.092,9.22-10.006c1.922-4.902,1.918-10.012-0.012-13.667c-1.128-2.116-2.717-3.055-4.589-2.713
		c-2.878,0.523-5.891,4.004-6.321,7.302l-0.071,0.555l-0.328-0.454C184.615,116.344,179.938,113.449,176.542,113.449z"/>
</g>
<g>
	<pattern  id="SVGID_3_" xlink:href="#New_Pattern_Swatch_3" patternTransform="matrix(0.3148 0 0 0.3148 -4054.8242 -4585.3687)">
	</pattern>
	<path fill="url(#SVGID_3_)" d="M93.347,236.236c-1.397,0-3.127-1.419-4.702-3.92c-2.601-4.257-4.305-11.671-3.916-18.407
		c-1.65-1.751-3.517-3.23-5.734-3.931l0.134-0.423c2.181,0.688,4.017,2.085,5.642,3.752c0.186-2.423,0.652-4.741,1.453-6.774
		c1.509-3.823,4.01-6.244,7.437-7.196c1.539-0.402,3.273-0.396,5.109-0.011c0.011-0.303,0.03-0.605,0.06-0.907
		c0.837-8.511,6.195-13.813,11.376-18.942c3.142-3.108,6.39-6.323,8.64-10.239c3.464-5.845,0.449-12.646-3.526-17.063l0.331-0.297
		c4.08,4.534,7.164,11.535,3.579,17.584c-2.278,3.966-5.548,7.202-8.711,10.332c-5.361,5.307-10.426,10.318-11.247,18.67
		c-0.031,0.32-0.05,0.642-0.06,0.963c2.914,0.7,6.06,2.332,9.067,4.77c5.682,4.605,9.207,10.632,8.981,15.354
		c-0.061,2.185-0.66,3.493-1.782,3.887c-2.602,0.911-7.092-3.523-8.603-5.309c-2.529-3.063-8.147-10.729-8.114-18.352
		c-1.797-0.388-3.489-0.401-4.985-0.01c-3.281,0.912-5.685,3.244-7.138,6.931c-0.82,2.079-1.274,4.517-1.427,7.076
		c1.29,1.394,2.448,2.938,3.543,4.4l0.258,0.345c2.339,3.189,4.885,7.037,6.033,11.402c0.837,3.243,0.481,5.548-0.951,6.165
		C93.858,236.186,93.608,236.236,93.347,236.236z M85.179,214.398c-0.26,6.479,1.356,13.613,3.844,17.684
		c2.085,3.312,3.938,4.006,4.895,3.596c1.177-0.508,1.451-2.725,0.697-5.646c-1.129-4.292-3.647-8.096-5.961-11.25l-0.256-0.343
		C87.395,217.1,86.34,215.691,85.179,214.398z M99.204,199.877c0.015,7.443,5.525,14.956,8.011,17.965
		c2.022,2.39,6.017,5.912,8.114,5.174c0.932-0.327,1.432-1.499,1.486-3.484c0.216-4.52-3.328-10.542-8.817-14.991
		C105.071,202.168,102.022,200.575,99.204,199.877z"/>
</g>
</svg>
