<?xml version="1.0" standalone="no"?><!DOCTYPE svg PUBLIC "-//W3C//DTD SVG 1.1//EN" "http://www.w3.org/Graphics/SVG/1.1/DTD/svg11.dtd">
<svg t="1488489392925" class="icon" style="" viewBox="0 0 1024 1024" version="1.1" xmlns="http://www.w3.org/2000/svg" p-id="2808" xmlns:xlink="http://www.w3.org/1999/xlink"><defs>
    <style type="text/css">
        path{
            fill: #f44836;
        }
    </style></defs><path d="M236.146836 189.026144l46.591131-46.590108c28.15013-28.097942 74.186629-28.097942 102.283548 0L522.777973 280.19147l137.65208-137.755434c28.152177-28.097942 74.185606-28.097942 102.282524 0l46.591131 46.590108c28.151154 28.15013 28.151154 74.185606 0 102.284571L671.651628 429.014984 809.303708 566.717206c28.151154 28.101012 28.151154 74.187653 0 102.284571l-46.591131 46.592155c-28.096918 28.094872-74.130348 28.094872-102.282524 0l-137.65208-137.706315-137.756457 137.706315c-28.096918 28.094872-74.133418 28.094872-102.283548 0l-46.591131-46.592155c-28.095895-28.096918-28.095895-74.18356 0-102.284571l137.758504-137.702222L236.146836 291.310715C208.050941 263.21175 208.050941 217.176274 236.146836 189.026144z" p-id="2809"></path></svg>