<?xml version="1.0" encoding="utf-8"?>
<!-- Generator: Adobe Illustrator 16.0.0, SVG Export Plug-In . SVG Version: 6.00 Build 0)  -->
<!DOCTYPE svg PUBLIC "-//W3C//DTD SVG 1.1//EN" "http://www.w3.org/Graphics/SVG/1.1/DTD/svg11.dtd">
<svg version="1.1" id="Calque_2" xmlns="http://www.w3.org/2000/svg" xmlns:xlink="http://www.w3.org/1999/xlink" viewBox="0 0 432 432" enable-background="new 0 0 432 432" xml:space="preserve">
    <style type="text/css">
        path{
            cursor: pointer;
            fill: #fff;
            stroke: #000;
            stroke-opacity: 0.8;
        }
    </style>
<g>
	<path d="M275.313,250.755c-1.213-0.023-2.424,0.188-3.57,0.58c-1.272,0.434-2.465,1.088-3.54,1.895
		c-0.534,0.4-0.989,0.902-1.52,1.303c-0.559,0.422-0.989,1.01-1.482,1.512c-0.303,0.309-1.281,1.34-0.354,1.613
		c4.61,1.365,9.671,0.869,14.39,0.461c1.627-0.141,3.288-0.299,4.866-0.746c0.174-0.049,0.306-0.049,0.353-0.209
		c0.039-0.131-0.133-0.459-0.184-0.582c-0.139-0.336-0.334-0.643-0.566-0.922c-0.57-0.68-1.313-1.123-2.037-1.605
		c-0.747-0.494-1.463-1.037-2.219-1.521C278.255,251.773,276.781,250.785,275.313,250.755z"/>
	<g>
		<path d="M273.052,255.525c0.057-0.082,0.027-0.219-0.097-0.203c-2.094,0.25-4.839,1.068-6.359,2.766
			c0.105,0.02,0.212,0.037,0.315,0.055c1.455-1.516,3.965-2.285,5.92-2.539c-0.053,0.031-0.105,0.063-0.158,0.092
			c-0.028-0.018-0.064-0.027-0.106-0.016c-1.478,0.457-3.315,1.344-4.389,2.658c0.103,0.012,0.205,0.025,0.309,0.037
			c0.85-0.967,2.15-1.689,3.335-2.15c-0.921,0.615-1.771,1.352-2.416,2.236c0.104,0.008,0.209,0.014,0.314,0.02
			c0.878-1.145,2.115-2.033,3.361-2.715C273.193,255.705,273.146,255.56,273.052,255.525z"/>
		<path d="M282.319,257.751c0.142-0.023,0.281-0.047,0.421-0.072c-2.087-1.127-4.199-2.418-6.655-2.318
			c-0.166,0.008-0.168,0.254-0.01,0.262c-0.122-0.018-0.19,0.117-0.146,0.199c-0.005,0.035,0.005,0.07,0.043,0.1
			c0.79,0.623,1.671,1.037,2.292,1.859c0.097,0.129,0.179,0.264,0.266,0.398c0.093-0.008,0.186-0.016,0.277-0.023
			c-0.148-0.248-0.304-0.494-0.479-0.727c-0.479-0.637-1.182-1.002-1.822-1.443c1.041,0.273,1.907,0.807,2.74,1.539
			c0.173,0.152,0.335,0.348,0.496,0.549c0.121-0.012,0.245-0.023,0.37-0.037c-0.034-0.043-0.066-0.09-0.1-0.129
			c-0.306-0.381-0.72-0.721-1.104-1.014c-0.855-0.656-1.744-1.078-2.807-1.268C278.384,255.539,280.372,256.687,282.319,257.751z"/>
	</g>
	<path d="M276.546,262.207c-0.246-1.623-0.606-3.256-0.656-4.887c-0.021-0.639-0.23-4.096-2.159-2.695
		c-0.118,0.086-0.076,0.193,0.021,0.256c-0.619,1.934-0.933,3.898-1.196,5.869c-0.277,2.084-0.797,4.168-1.003,6.25
		c-0.132,1.322,1.129,1.615,2.815,1.797c1.464,0.158,2.803-0.246,2.897-1.354c0.053-0.623-0.077-1.229-0.214-1.842
		C276.8,264.482,276.718,263.333,276.546,262.207z"/>
	<path d="M275.924,255.066c-0.091-0.053-0.188-0.1-0.297-0.143c-0.929-0.367-1.771-0.189-2.627,0.256
		c-0.368,0.191-0.507,0.512-0.696,0.875c-0.227,0.434-0.429,0.881-0.668,1.307c-0.371,0.664-0.651,1.396-0.91,2.109
		c-0.113,0.314-0.495,1.193-0.177,1.482c0.352,0.322,0.956-0.576,1.115-0.791c0.391-0.523,0.721-1.184,1.35-1.457
		c0.253-0.111,0.335-0.002,0.429,0.234c0.23,0.588,0.202,1.258,0.414,1.852c0.048,0.139,0.177,0.5,0.383,0.42
		c0.192-0.078,0.177-0.631,0.191-0.789c0.036-0.383,0.042-0.766,0.075-1.146c0.017-0.207,0.025-0.453,0.186-0.607
		c0.263,0.141,0.354,0.91,0.449,1.178c0.075,0.209,0.342,1.137,0.649,1.137c0.295,0.002-0.096-1.969,0.255-2.262
		c0.181,0.133,0.26,0.639,0.373,0.852c0.185,0.344,0.405,0.684,0.656,0.982c0.102,0.121,0.429,0.52,0.621,0.336
		c0.202-0.195-0.02-0.91-0.074-1.123c-0.267-1.043-0.355-2.148-0.669-3.176C276.747,255.923,276.493,255.398,275.924,255.066z"/>
	<path d="M280.855,249.171c-1.073-1.826-2.995-2.85-5.264-2.871c-1.763-0.018-3.51,0.617-4.955,1.598
		c-1.442,0.977-2.403,2.379-3.091,3.955c-0.779,1.123-1.698,2.141-2.515,3.238c-0.464,0.623-1.24,1.602-0.585,2.346
		c0.32,0.363,0.887,0.355,1.305,0.188c0.357-0.143,0.656-0.402,0.999-0.576c0.825-0.42,1.687-0.738,2.598-0.922
		c1.891-0.387,3.849-0.668,5.78-0.678c1.824-0.014,3.726,0.098,5.412,0.846c0.805,0.355,1.637,0.652,2.494,0.844
		c0.506,0.113,1.361,0.391,1.757-0.102c0.5-0.623-0.212-1.57-0.556-2.096C283.017,253.072,282.255,250.876,280.855,249.171z"/>
	<path d="M272.311,247.996c-1.157,0-1.157,1.793,0,1.793C273.466,249.789,273.466,247.996,272.311,247.996z"/>
	<path d="M280.931,252.4c-1.156,0-1.156,2.334,0,2.334C282.088,254.734,282.088,252.4,280.931,252.4z"/>
	<path d="M272.669,253.732c-1.156,0-1.156,1.311,0,1.311S273.825,253.732,272.669,253.732z"/>
	<path d="M268.951,254.294c0-1.699-1.924-1.699-1.924,0S268.951,255.994,268.951,254.294z"/>
	<path d="M265.875,255.152c-1.155,0-1.155,1.793,0,1.793C267.032,256.945,267.032,255.152,265.875,255.152z"/>
	<path d="M283.022,254.734c-1.157,0-1.157,1.793,0,1.793C284.179,256.527,284.179,254.734,283.022,254.734z"/>
	<path d="M279.401,249.246c-1.715,0-1.715,2.678,0,2.678S281.116,249.246,279.401,249.246z"/>
	<path d="M276.529,247.257c-1.488,0-1.488,2.887,0,2.887C278.017,250.144,278.017,247.257,276.529,247.257z"/>
	<path d="M274.427,250.365c-1.783,0-1.783,2.934,0,2.934C276.211,253.298,276.211,250.365,274.427,250.365z"/>
	<path d="M270.482,250.576c-2.041,0-2.041,3.164,0,3.164C272.522,253.74,272.522,250.576,270.482,250.576z"/>
	<path d="M277.691,252.351c-1.157,0-1.157,1.793,0,1.793C278.848,254.144,278.848,252.351,277.691,252.351z"/>
</g>
<g>
	<path d="M246.038,232.261c1.764,4.74,2.984,12.057-0.813,16.123c-3.196,3.418-9.829,4.92-13.439,1.15
		c-2.396-2.502-3.16-5.924-3.352-9.281c-0.209-3.631-0.553-7.113,1.175-10.492c0.809-1.578,1.904-2.957,3.121-4.262
		c1.694-1.818,3.892-3.781,6.627-2.904C242.741,223.681,244.958,229.144,246.038,232.261z"/>
	<path d="M240.217,251.003l1.473-0.191c-4.064,2.303-11.504,2.313-16.108,2.449
		c-7.317,0.137-14.768-0.676-22.222-1.354c-13.955-1.354-28.315-1.354-42.407,0c-6.098,0.678-17.207,3.656-20.458-3.523
		c-2.577-5.42-2.577-17.748,1.487-22.492c2.577-2.979,7.861-2.574,11.381-2.711c4.472-0.135,8.809-0.135,13.281,0
		c6.636,0.271,16.123,2.711,22.488-0.268c2.577-1.221,4.61-4.064,6.643-6.235c2.166-2.301,4.332-4.74,6.503-7.18
		c2.979-3.524,6.564-7.35,9.682-10.601c-0.87,0.988-0.976,2.43-0.472,4.097c1.358,4.334,7.778,4.835,11.437,4.835
		c-2.438,2.166-5.474,3.969-7.911,6.14c-1.492,1.487-2.846,2.978-3.793,4.878c-1.218,2.031-1.358,2.844,1.082,3.385
		c7.99,1.621,17.057,0.262,25.271,0.172c-3.342,0.727-6.485,4.918-7.388,7.959c-1.487,4.877-1.354,10.84,0.813,15.445
		C233.007,250.187,236.167,250.812,240.217,251.003z M208.781,236.189c-0.536-0.428-1.23-0.752-2.007-0.744
		c-0.817-0.135-2.158-0.289-2.603-0.07C202.006,236.734,207.83,237.953,208.781,236.189z"/>
	<path d="M222.463,202.589c1.144,2.542,1.939,5.45-1.369,6.308c-2.646,0.686-6.044,0.244-8.407-1.14
		c-4.523-2.654-2.488-10.409,2.866-10.183C218.537,197.711,221.243,199.878,222.463,202.589z"/>
	<path d="M206.774,235.445c0.776-0.008,1.471,0.316,2.007,0.744c-0.951,1.764-6.775,0.545-4.609-0.814
		C204.616,235.156,205.957,235.31,206.774,235.445z"/>
	<g>
		<path d="M237.016,226.642c-2.241-0.375-3.616,2.701-4.284,4.344c-0.729,1.787-1.096,3.559-1.236,5.473
			c-0.18,2.402-0.439,9.975,3.895,8.6c0.25-0.078,0.143-0.471-0.107-0.391c-3.904,1.238-3.527-6.074-3.382-8.209
			c0.097-1.41,0.315-2.773,0.755-4.117c0.53-1.615,1.971-5.689,4.253-5.305C237.164,227.078,237.274,226.687,237.016,226.642
			L237.016,226.642z"/>
	</g>
	<g>
		<path d="M237.641,233.005c-3.243-0.01-1.957,8.014,1.184,6.07c0.222-0.139,0.019-0.49-0.205-0.352
			c-2.524,1.563-3.518-5.318-0.979-5.311C237.903,233.414,237.903,233.005,237.641,233.005L237.641,233.005z"/>
	</g>
	<g>
		<path d="M239.798,229.56c2.716,2.236,3.707,6.127,4.143,9.475c0.237,1.805,0.34,3.664-0.134,5.441
			c-0.359,1.344-2.708,3.924-4.128,2.408c-0.18-0.191-0.467,0.096-0.288,0.287c1.107,1.182,2.714,0.176,3.674-0.689
			c1.482-1.342,1.529-3.656,1.465-5.51c-0.142-3.98-1.222-9.047-4.444-11.699C239.884,229.107,239.595,229.394,239.798,229.56
			L239.798,229.56z"/>
	</g>
	<g>
		<path d="M215.97,200.141c-1.018-1.283-2.115-0.28-2.453,0.96c-0.465,1.714,0.465,3.212,1.977,3.979
			c1.155,0.587,2.799,0.688,3.835-0.194c1.259-1.07-0.063-2.733-0.919-3.525c-0.193-0.178-0.481,0.109-0.289,0.286
			c0.748,0.693,1.91,1.98,0.92,2.953c-0.73,0.717-2.047,0.583-2.925,0.3c-1.3-0.417-2.273-1.508-2.304-2.892
			c-0.022-1.023,0.785-2.948,1.87-1.58C215.845,200.633,216.131,200.343,215.97,200.141L215.97,200.141z"/>
	</g>
	<g>
		<path d="M210.397,207.999c-3.252,3.657-5.694,7.943-8.829,11.694c-1.682,2.014-3.585,3.838-5.778,5.287
			c-2.339,1.545-5.019,2.559-7.709,3.301c-5.161,1.424-10.931,1.893-16.235,1.078c-4.699-0.723-9.308-2.035-14.086-2.168
			c-2.632-0.07-5.376,0.301-7.613,1.777c-0.218,0.145-0.015,0.496,0.205,0.352c4.072-2.688,9.616-1.74,14.115-0.936
			c2.343,0.42,4.666,0.939,7.016,1.324c2.327,0.383,4.666,0.443,7.021,0.369c5.34-0.174,10.771-1.221,15.567-3.641
			c4.465-2.252,7.701-6.105,10.583-10.086c1.967-2.72,3.795-5.551,6.03-8.066C210.858,208.091,210.572,207.802,210.397,207.999
			L210.397,207.999z"/>
	</g>
	<g>
		<path d="M215.449,209.731c-1.154,0.576-2.101,1.587-2.962,2.522c-1.247,1.356-2.353,2.847-3.349,4.392
			c-0.979,1.519-1.839,3.136-2.418,4.849c-0.403,1.197-0.688,2.607-0.217,3.826c1.095,2.83,5.472,3.26,8,3.455
			c3.76,0.291,7.517-0.105,11.272-0.227c0.25-0.01,0.501-0.014,0.751-0.014c0.263,0,0.263-0.408,0-0.408
			c-3.274,0.016-6.534,0.381-9.812,0.338c-3.007-0.041-7.583-0.1-9.567-2.811c-0.806-1.104-0.458-2.664-0.097-3.863
			c0.509-1.684,1.385-3.256,2.31-4.739c0.962-1.542,2.064-3.001,3.272-4.355c0.865-0.972,1.843-2.026,3.021-2.616
			C215.889,209.963,215.683,209.614,215.449,209.731L215.449,209.731z"/>
	</g>
	<g>
		<path d="M141.659,236.25c4.476,1.873,9.77,1.482,14.494,1.164c6.015-0.404,11.995-1.133,17.987-1.76
			c3.255-0.338,6.531-0.689,9.803-0.777c3.071-0.08,6.124,0.416,9.193,0.451c1.368,0.016,2.729-0.104,4.072-0.354
			c1.612-0.297,3.12-0.967,4.685-1.441c1.6-0.484,3.24-0.66,4.898-0.426c1.481,0.211,2.9,0.787,4.302,1.285
			c2.327,0.828,4.727,1.289,7.194,1.379c1.213,0.049,2.473,0.053,3.68-0.094c1.334-0.16,2.621-0.568,3.965-0.24
			c0.255,0.061,0.363-0.328,0.109-0.393c-1.166-0.285-2.31-0.074-3.471,0.129c-1.644,0.287-3.375,0.244-5.038,0.158
			c-3.17-0.162-5.959-1.313-8.947-2.225c-2.814-0.859-5.458-0.451-8.19,0.486c-1.563,0.537-3.064,1.01-4.714,1.207
			c-1.563,0.186-3.147,0.133-4.714,0.039c-3.145-0.184-6.211-0.451-9.363-0.246c-3.283,0.213-6.556,0.553-9.824,0.908
			c-5.818,0.631-11.631,1.305-17.477,1.619c-4.126,0.223-8.652,0.363-12.536-1.262C141.525,235.757,141.421,236.15,141.659,236.25
			L141.659,236.25z"/>
	</g>
	<g>
		<path d="M142.424,240.972c4.183,2.674,9.517,2.836,14.326,2.736c5.998-0.121,11.854-0.996,17.73-2.158
			c6.336-1.254,12.776-2.824,19.246-3.148c3.255-0.162,6.25,0.494,9.385,1.271c2.89,0.715,5.586,0.869,8.526,0.373
			c2.382-0.4,4.688-0.896,7.115-0.955c2.243-0.057,4.463,0.127,6.694,0.283c0.261,0.02,0.26-0.389,0-0.406
			c-2.957-0.207-5.897-0.418-8.863-0.172c-3.027,0.25-5.923,1.254-8.989,1.203c-3.192-0.055-6.246-1.371-9.382-1.84
			c-2.873-0.432-5.848-0.143-8.706,0.244c-6.366,0.859-12.627,2.334-18.941,3.48c-5.788,1.053-11.686,1.625-17.573,1.391
			c-3.564-0.139-7.305-0.697-10.363-2.654C142.407,240.48,142.203,240.833,142.424,240.972L142.424,240.972z"/>
	</g>
	<g>
		<path d="M206.828,235.25c-0.951-0.15-2.327-0.52-3.106,0.225c-0.463,0.441-0.138,0.963,0.301,1.244
			c1.221,0.785,4.069,0.98,4.935-0.428c0.063-0.102,0.015-0.213-0.073-0.279c-0.643-0.475-1.308-0.736-2.109-0.77
			c-0.262-0.012-0.261,0.396,0,0.408c0.731,0.029,1.324,0.283,1.905,0.715c-0.025-0.094-0.05-0.188-0.073-0.279
			c-0.652,1.061-2.537,0.846-3.551,0.602c-0.272-0.064-1.333-0.35-1.132-0.809c0.345-0.789,2.191-0.332,2.797-0.238
			C206.977,235.681,207.087,235.289,206.828,235.25z"/>
	</g>
	<g>
		<path d="M206.774,235.65c0.262,0,0.262-0.408,0-0.408S206.513,235.65,206.774,235.65L206.774,235.65z"/>
	</g>
	<g>
		<path d="M148.624,248.859c6.205-0.664,12.42-1.232,18.637-1.783c6.231-0.549,12.443-1.285,18.676-1.824
			c6.165-0.537,12.297-0.582,18.447,0.166c5.976,0.729,11.9,1.891,17.945,1.814c0.262-0.004,0.262-0.408,0-0.406
			c-6.041,0.074-11.975-1.068-17.945-1.813c-6.148-0.77-12.283-0.689-18.447-0.17c-6.232,0.527-12.445,1.277-18.676,1.826
			c-6.217,0.549-12.432,1.119-18.637,1.781C148.366,248.48,148.362,248.886,148.624,248.859L148.624,248.859z"/>
	</g>
</g>
<g>
	<path d="M325.729,217.309c-3.117-3.318-10.559-7.291-15.032,1.272c-4.474,8.564-8.052,33.486-8.052,33.486
		c-2.94,1.408-2.94,3.965-2.813,4.348s4.09,0.639,4.857,0.51c0.767-0.127,3.067-20.449,5.88-20.32
		c2.811,0.125-1.023,15.977-1.023,15.977c-2.301,2.043-2.939,3.451-2.173,4.344c0.768,0.896,3.451,0.639,4.475,0.256
		c0.56-0.209,1.045-6.635,2.35-12.436c1.333-4.033,5.381-11.346,6.469-7.152c0.671,2.59-5.815,10.514-4.857,16.01
		c0.784,4.492,8.736,4.502,11.618,4.354c6.073-0.066,12.394-1.25,12.394-1.25C342.409,231.974,325.729,217.309,325.729,217.309z"/>
	<g>
		<path d="M374.187,220.123c-1.723-1.596-8.273,7.59-9.479,7.189c-1.208-0.398-2.931-9.586-3.447-10.984
			c-0.37-1-4.98,0.354-7.57,1.203c-1.182,7.57-1.269,15.102-2.253,19.967c-2.586,12.783-12.237,16.576-12.237,16.576l0.173,2.598
			c27.024-4.006,38.187-15.645,41.949-27.994c-1.726,1.402-3.128,2.23-3.517,2.23C376.601,230.908,375.911,221.72,374.187,220.123z"
			/>
		<path d="M381.554,227.886c0.007-0.027,0.014-0.055,0.022-0.08c0.304-1.104,0.552-2.209,0.747-3.314
			c0.002-0.008,0.003-0.016,0.004-0.021c0.047-0.266,0.091-0.531,0.133-0.799c0.003-0.02,0.005-0.039,0.009-0.057
			c0.04-0.266,0.079-0.535,0.114-0.801c0-0.006,0.002-0.01,0.002-0.016c0.146-1.111,0.244-2.223,0.3-3.326
			c0-0.006,0-0.014,0.001-0.02c0.014-0.271,0.024-0.539,0.033-0.809c0-0.004,0-0.01,0-0.016c0.041-1.373,0.019-2.731-0.056-4.067
			c0-0.003-0.001-0.008-0.001-0.013c-0.091-1.603-0.258-3.171-0.479-4.687c0-0.001,0-0.002,0-0.003
			c-0.186-1.264-0.408-2.49-0.657-3.671c-0.001-0.002-0.001-0.004-0.003-0.007c-0.297-1.415-0.634-2.761-0.986-4.025
			c-0.002-0.006-0.003-0.012-0.005-0.018c-0.293-1.05-0.599-2.042-0.902-2.967c-0.003-0.006-0.005-0.013-0.007-0.021
			c-0.059-0.178-0.117-0.354-0.176-0.526c-0.003-0.007-0.006-0.013-0.007-0.02c-0.241-0.713-0.481-1.383-0.714-2.003
			c-0.005-0.014-0.011-0.027-0.016-0.041c-0.053-0.14-0.104-0.278-0.156-0.413c-0.006-0.014-0.01-0.027-0.016-0.042
			c-0.055-0.14-0.108-0.279-0.161-0.414c-0.001-0.004-0.003-0.009-0.005-0.012c-0.167-0.427-0.327-0.824-0.479-1.192
			c-0.005-0.009-0.009-0.02-0.013-0.03c-0.045-0.108-0.088-0.212-0.131-0.313c-0.008-0.018-0.017-0.037-0.023-0.056
			c-0.043-0.096-0.082-0.19-0.121-0.281c-0.006-0.014-0.012-0.029-0.019-0.043c-0.042-0.097-0.082-0.19-0.122-0.281
			c-0.003-0.007-0.007-0.016-0.011-0.024c-0.087-0.2-0.17-0.385-0.246-0.555c-0.004-0.005-0.005-0.01-0.007-0.015
			c-0.035-0.076-0.068-0.149-0.101-0.219c-0.007-0.016-0.014-0.03-0.02-0.044c-0.027-0.059-0.055-0.117-0.08-0.172
			c-0.007-0.016-0.015-0.03-0.021-0.044c-0.025-0.053-0.049-0.103-0.072-0.152c-0.006-0.012-0.012-0.025-0.018-0.037
			c-0.056-0.12-0.106-0.222-0.148-0.31c0-0.001-0.001-0.002-0.001-0.004c-0.021-0.041-0.038-0.078-0.055-0.11
			c-0.005-0.011-0.01-0.021-0.015-0.03c-0.011-0.023-0.021-0.043-0.03-0.061c-0.006-0.012-0.012-0.023-0.017-0.034
			c-0.006-0.012-0.012-0.025-0.018-0.036c-0.004-0.008-0.009-0.017-0.012-0.023c-0.005-0.01-0.009-0.017-0.013-0.023
			c-0.001-0.003-0.003-0.008-0.006-0.011c-0.002-0.007-0.006-0.012-0.006-0.012c-0.468,0.035-0.925,0.083-1.375,0.137
			c-0.14,0.017-0.275,0.036-0.413,0.055c-0.311,0.041-0.619,0.086-0.922,0.137c-0.15,0.025-0.299,0.05-0.447,0.078
			c-0.295,0.053-0.583,0.111-0.869,0.173c-0.133,0.029-0.266,0.057-0.395,0.086c-0.361,0.083-0.716,0.173-1.062,0.271
			c-0.045,0.012-0.091,0.022-0.136,0.036c-0.391,0.111-0.772,0.231-1.147,0.359c-0.103,0.035-0.203,0.073-0.305,0.11
			c-0.27,0.096-0.535,0.195-0.796,0.298c-0.12,0.048-0.239,0.098-0.357,0.148c-0.244,0.103-0.485,0.208-0.721,0.318
			c-0.109,0.05-0.218,0.099-0.326,0.152c-0.275,0.134-0.546,0.274-0.813,0.417c-0.056,0.03-0.114,0.059-0.17,0.089
			c-0.321,0.178-0.635,0.364-0.941,0.555c-0.068,0.043-0.134,0.088-0.202,0.131c-0.234,0.152-0.466,0.305-0.69,0.464
			c-0.092,0.065-0.183,0.13-0.273,0.196c-0.201,0.147-0.398,0.298-0.594,0.45c-0.086,0.068-0.172,0.136-0.258,0.205
			c-0.215,0.176-0.426,0.356-0.633,0.54c-0.051,0.046-0.106,0.091-0.158,0.139c-0.26,0.234-0.513,0.477-0.76,0.723
			c-0.037,0.037-0.071,0.077-0.108,0.114c-0.204,0.208-0.404,0.421-0.6,0.637c-0.068,0.075-0.134,0.152-0.2,0.227
			c-0.165,0.188-0.325,0.377-0.482,0.571c-0.066,0.079-0.133,0.159-0.197,0.241c-0.167,0.21-0.33,0.425-0.49,0.643
			c-0.044,0.059-0.088,0.117-0.133,0.177c-0.206,0.285-0.405,0.572-0.6,0.866c-0.005,0.008-0.01,0.017-0.016,0.024
			c-0.183,0.28-0.359,0.565-0.532,0.851c-0.046,0.077-0.09,0.154-0.136,0.231c-0.134,0.226-0.263,0.456-0.39,0.687
			c-0.047,0.085-0.093,0.17-0.139,0.255c-0.13,0.244-0.257,0.489-0.381,0.737c-0.032,0.065-0.066,0.131-0.099,0.197
			c-0.313,0.639-0.604,1.291-0.875,1.955c-0.026,0.067-0.053,0.135-0.08,0.202c-0.106,0.266-0.21,0.534-0.311,0.803
			c-0.032,0.083-0.063,0.167-0.093,0.251c-0.1,0.272-0.195,0.543-0.288,0.817c-0.023,0.068-0.047,0.135-0.068,0.204
			c-0.233,0.695-0.447,1.401-0.646,2.113c-0.012,0.045-0.023,0.091-0.037,0.136c-0.084,0.308-0.165,0.616-0.244,0.926
			c-0.02,0.074-0.038,0.149-0.057,0.225c-0.074,0.297-0.146,0.595-0.215,0.893c-0.015,0.062-0.029,0.124-0.043,0.185
			c-0.168,0.736-0.32,1.477-0.462,2.221c-0.001,0.007-0.003,0.015-0.004,0.023c-0.067,0.354-0.13,0.709-0.192,1.065
			c-0.01,0.059-0.02,0.116-0.029,0.175c-0.055,0.318-0.105,0.638-0.156,0.957c-0.006,0.031-0.011,0.063-0.016,0.092
			c2.59-0.849,7.2-2.202,7.57-1.203c0.517,1.398,2.239,10.585,3.447,10.984c1.205,0.4,7.756-8.785,9.479-7.189
			c1.725,1.598,2.414,10.785,3.619,10.785c0.389,0,1.791-0.828,3.517-2.23c0.006-0.018,0.011-0.033,0.016-0.053
			C381.413,228.38,381.483,228.134,381.554,227.886z"/>
	</g>
	<g>
		<path d="M348.188,154.964c2.279,8.657,5.519,20.331,1.69,28.64l-0.122,0.268c-1.785-0.827-4.148-1.354-6.798-2.001
			c-6.201-1.595-12.406-3.193-18.965-4.023C325.654,162.742,344.036,157.416,348.188,154.964z"/>
		<path d="M298.274,150.104c9.558,7.2,15.305,13.799,13.609,26.227l-0.001,0.013
			c-9.364-1.131-19.234-1.792-27.16,1.524C284.22,167.786,293.454,158.628,298.274,150.104z"/>
		<path d="M344.515,162.067c1.652,6.271,3.996,14.727,1.226,20.745l-0.089,0.193
			c-1.293-0.601-3.003-0.981-4.922-1.449c-4.492-1.156-8.985-2.312-13.737-2.914C328.197,167.701,341.508,163.844,344.515,162.067z"
			/>
		<path d="M298.935,156.849c6.921,5.217,11.085,9.998,9.856,18.995l-0.001,0.011
			c-6.783-0.818-13.932-1.298-19.67,1.104C288.757,169.657,295.442,163.023,298.935,156.849z"/>
		<path d="M349.861,182.914c3.099,1.423,4.473,3.733,2.654,9.067c-0.19,0.523-0.383,1.04-0.579,1.552
			c-6.181-5.533-24.978,4.36-29.125,9.725c-3.908,4.9-5.381,12.014-7.113,17.033c-0.274-0.105-0.578-0.176-0.89-0.211
			c-0.382-0.041-0.754-0.023-1.105,0.043c0.15-16.659-15.235-33.952-33.362-32.547c-1.123-4.033-1.24-7.387,0.687-8.655
			c1.203-0.794,2.476-1.458,3.802-2.01c7.925-3.318,17.796-2.655,27.159-1.525c3.747,0.449,7.41,0.978,10.837,1.355
			c0.427,0.047,0.854,0.098,1.273,0.15c6.559,0.83,12.763,2.427,18.965,4.021C345.713,181.559,348.076,182.086,349.861,182.914z"/>
		<g>
			<path d="M322.812,203.257c-3.908,4.9-5.381,12.014-7.113,17.033c1.148,0.412,1.953,1.34,2.021,2.381
				c1.994-0.223,4.104-0.74,6.666-1.451c1.494-0.492,2.922-1.037,4.289-1.633c11.619-5.082,18.636-13.982,23.262-26.055
				C345.756,188,326.959,197.893,322.812,203.257z"/>
			<path d="M280.341,187.575c2.1,7.566,7.75,17.518,10.162,20.524c3.002,3.276,6.711,6.625,10.638,9.29
				c2.116,1.44,4.294,2.675,6.458,3.593c1.356,0.553,2.59,0.971,3.747,1.258c0.182-1.082,1.137-1.896,2.357-2.117
				C313.854,203.463,298.468,186.17,280.341,187.575z"/>
		</g>
		<g>
			<path d="M315.698,220.291c-0.274-0.105-0.578-0.176-0.89-0.211c-0.382-0.041-0.754-0.023-1.105,0.043
				c-1.221,0.221-2.176,1.035-2.357,2.117c-0.01,0.037-0.014,0.082-0.019,0.123c-0.16,1.459,1.137,2.793,2.901,2.988
				c1.765,0.193,3.326-0.826,3.486-2.283c0.016-0.133,0.015-0.264,0.005-0.396C317.651,221.63,316.847,220.703,315.698,220.291z"/>
			<path d="M328.37,207.282c-0.304-0.068-0.741,0.723-0.98,1.764c-0.237,1.04-0.185,1.942,0.121,2.01
				c0.298,0.072,0.74-0.718,0.975-1.759C328.723,208.252,328.673,207.352,328.37,207.282z"/>
			<path d="M303.578,204.048c-0.311-0.013-0.602,0.841-0.654,1.91c-0.048,1.065,0.164,1.941,0.476,1.956
				c0.31,0.013,0.6-0.835,0.651-1.904C304.099,204.94,303.89,204.063,303.578,204.048z"/>
		</g>
		<g>
			<path d="M289.832,182.67c2.032,0.284,3.755,1.424,5.445,2.514c0.206,0.134,0.438-0.173,0.228-0.306
				c-1.747-1.13-3.531-2.296-5.631-2.588C289.628,182.254,289.587,182.634,289.832,182.67L289.832,182.67z"/>
		</g>
		<g>
			<path d="M298.431,180.037c1.417,0.922,2.724,1.99,3.803,3.3c0.158,0.19,0.457-0.049,0.298-0.241
				c-1.096-1.334-2.428-2.428-3.872-3.367C298.452,179.593,298.224,179.901,298.431,180.037L298.431,180.037z"/>
		</g>
		<g>
			<path d="M303.535,187.417c0.637,0.084,0.988,0.595,1.364,1.063c0.155,0.194,0.456-0.045,0.301-0.239
				c-0.449-0.559-0.871-1.105-1.623-1.205C303.332,187.002,303.29,187.382,303.535,187.417L303.535,187.417z"/>
		</g>
		<g>
			<path d="M317.506,185.58c0.505-1.111,0.925-2.261,1.346-3.406c0.087-0.232-0.272-0.376-0.356-0.142
				c-0.421,1.146-0.84,2.294-1.346,3.407C317.046,185.665,317.404,185.805,317.506,185.58L317.506,185.58z"/>
		</g>
		<g>
			<path d="M314.142,192.645c0.443-0.903,1.208-1.577,1.853-2.334c0.16-0.189-0.148-0.416-0.31-0.228
				c-0.669,0.786-1.438,1.481-1.9,2.421C313.677,192.725,314.033,192.866,314.142,192.645L314.142,192.645z"/>
		</g>
		<g>
			<path d="M320.825,195.763c1.195-0.635,2.198-1.525,2.947-2.654c0.138-0.206-0.172-0.435-0.308-0.229
				c-0.715,1.073-1.657,1.929-2.797,2.532C320.452,195.527,320.604,195.88,320.825,195.763L320.825,195.763z"/>
		</g>
		<g>
			<path d="M327.955,187.424c0.485-0.67,1.502-0.792,2.256-0.954c0.24-0.05,0.181-0.43-0.063-0.378
				c-0.855,0.183-1.949,0.341-2.503,1.104C327.501,187.396,327.81,187.625,327.955,187.424L327.955,187.424z"/>
		</g>
		<g>
			<path d="M336.869,188.446c0.904-0.685,2.071-0.972,3.196-0.882c0.247,0.021,0.289-0.361,0.041-0.381
				c-1.227-0.099-2.49,0.217-3.477,0.963C336.431,188.296,336.671,188.597,336.869,188.446L336.869,188.446z"/>
		</g>
	</g>
	<g>
		<g>
			<path d="M324.181,224.652c0.681,1.184,1.963,1.748,3.154,2.287c0.164,0.074,0.277-0.184,0.112-0.258
				c-1.151-0.521-2.384-1.057-3.045-2.197C324.314,224.328,324.091,224.498,324.181,224.652L324.181,224.652z"/>
		</g>
		<g>
			<path d="M327.716,223.515c0.467-0.055,0.934-0.107,1.4-0.164c0.18-0.02,0.147-0.299-0.032-0.277
				c-0.468,0.055-0.934,0.107-1.4,0.162C327.504,223.257,327.536,223.537,327.716,223.515L327.716,223.515z"/>
		</g>
		<g>
			<path d="M328.401,231.417c0.07,0.523,0.418,0.791,0.891,0.963c0.17,0.063,0.283-0.193,0.112-0.256
				c-0.374-0.139-0.667-0.314-0.725-0.738C328.655,231.207,328.377,231.238,328.401,231.417L328.401,231.417z"/>
		</g>
		<g>
			<path d="M330.504,230.658c0.595,0.447,1.326,0.596,2.04,0.748c0.178,0.037,0.219-0.242,0.042-0.279
				c-0.664-0.139-1.353-0.271-1.908-0.688C330.534,230.33,330.36,230.55,330.504,230.658L330.504,230.658z"/>
		</g>
		<g>
			<path d="M335.751,237.386c0.542,0.855,0.895,1.848,0.796,2.871c-0.017,0.18,0.261,0.225,0.277,0.043
				c0.105-1.104-0.265-2.16-0.849-3.084C335.879,237.064,335.655,237.234,335.751,237.386L335.751,237.386z"/>
		</g>
		<g>
			<path d="M330.857,245.609c0.336,0.717,0.688,1.412,1.197,2.023c0.115,0.139,0.34-0.027,0.224-0.168
				c-0.492-0.594-0.834-1.266-1.161-1.961C331.042,245.341,330.78,245.445,330.857,245.609L330.857,245.609z"/>
		</g>
		<g>
			<path d="M334.206,242.427c0.079,0.529,0.37,0.975,0.655,1.414c0.099,0.152,0.323-0.016,0.225-0.166
				c-0.259-0.398-0.53-0.801-0.601-1.279C334.459,242.216,334.181,242.248,334.206,242.427L334.206,242.427z"/>
		</g>
		<g>
			<path d="M329.5,235.798c0.131,0.967,0.46,1.873,0.8,2.783c0.063,0.17,0.323,0.064,0.26-0.105
				c-0.33-0.885-0.653-1.768-0.78-2.711C329.754,235.587,329.476,235.619,329.5,235.798L329.5,235.798z"/>
		</g>
		<g>
			<path d="M336.541,247.712c-0.11,1.172-0.477,2.277-0.785,3.406c-0.048,0.174,0.229,0.217,0.278,0.043
				c0.309-1.129,0.674-2.234,0.784-3.406C336.837,247.576,336.558,247.535,336.541,247.712L336.541,247.712z"/>
		</g>
		<g>
			<path d="M331.251,253.099c0.063,0.551,0.063,1.074-0.045,1.621c-0.035,0.178,0.242,0.221,0.277,0.043
				c0.113-0.57,0.112-1.119,0.046-1.697C331.509,252.888,331.23,252.919,331.251,253.099L331.251,253.099z"/>
		</g>
	</g>
</g>
<path d="M55.64,229.703c0,0-3.961-4.6,5.113-14.442c9.075-9.842,27.606-10.353,35.532-7.989
	c0,0,18.213,5.752,19.364,21.856c1.416,19.852-27.992,32.4-51.574,26.457L55.64,229.703z"/>
<g>
	<path d="M44.07,245.281c0.071,0.092,0.147,0.182,0.227,0.266c1.505,1.602,3.773,2.619,5.587,3.826
		c2.551,1.695,5.252,3.166,8.127,4.254c5.104,1.928,10.587,3.52,16.05,3.857c5.204,0.322,10.457-0.283,15.487-1.635
		c6.677-1.789,13.213-4.896,18.391-9.533c1.052-3.24,0.233-4.727,0.233-4.727c-22.396,8.781-39.633-3.662-52.532-11.887
		c0,0,0.114,0.195,0,0c-0.455-0.34-0.911-0.662-1.367-0.973c-2.819,0.209-8.416,0.65-8.312,0.859
		c0.14,0.279,5.991,9.334,5.015,9.334c-0.974,0-11.005-2.508-11.145-1.811c0.948,1.854,1.897,3.707,2.847,5.561
		C43.107,243.513,43.484,244.527,44.07,245.281z"/>
	<path d="M39.831,237.113c0.14-0.697,10.171,1.811,11.145,1.811c0.977,0-4.875-9.055-5.015-9.334
		c-0.104-0.209,5.492-0.65,8.312-0.859c0,0,0,0-0.001-0.002c-13.026-8.879-26.46-5.703-32.891-3.27
		c-0.004,0.002-0.006,0.002-0.009,0.002c-0.128,0.051-0.252,0.098-0.374,0.146c-0.013,0.002-0.023,0.008-0.035,0.012
		c-0.112,0.045-0.223,0.09-0.331,0.133c-0.02,0.008-0.04,0.016-0.061,0.023c-0.1,0.041-0.199,0.082-0.297,0.123
		c-0.022,0.008-0.046,0.018-0.07,0.027c-0.091,0.039-0.18,0.076-0.266,0.113c-0.028,0.012-0.056,0.023-0.084,0.035
		c-0.078,0.033-0.155,0.066-0.23,0.1c-0.035,0.016-0.068,0.029-0.101,0.045c-0.068,0.029-0.134,0.059-0.198,0.088
		c-0.036,0.018-0.072,0.033-0.108,0.049c-0.059,0.027-0.116,0.053-0.173,0.078c-0.037,0.018-0.073,0.035-0.109,0.051
		c-0.051,0.025-0.102,0.047-0.15,0.07c-0.038,0.018-0.075,0.035-0.111,0.053c-0.042,0.02-0.084,0.039-0.123,0.059
		c-0.041,0.02-0.08,0.037-0.119,0.057c-0.032,0.018-0.065,0.033-0.097,0.049c-0.038,0.02-0.075,0.037-0.111,0.055
		c-0.028,0.014-0.058,0.029-0.084,0.041c-0.037,0.02-0.072,0.037-0.106,0.057c-0.02,0.008-0.04,0.02-0.059,0.029
		c-0.039,0.02-0.075,0.037-0.109,0.057c-0.012,0.006-0.024,0.012-0.034,0.018c-0.038,0.02-0.074,0.037-0.105,0.055
		c-0.005,0.002-0.011,0.006-0.015,0.008c-0.113,0.061-0.184,0.1-0.21,0.115c0.016,0.002,0.032,0.004,0.048,0.008
		c0.242-0.002,0.483,0.006,0.724,0.02c0.042,0.002,0.085,0.006,0.127,0.01c0.215,0.014,0.429,0.035,0.642,0.063
		c0.03,0.004,0.06,0.008,0.089,0.01c0.489,0.068,0.976,0.168,1.461,0.299c0.038,0.012,0.076,0.021,0.116,0.033
		c0.209,0.059,0.42,0.121,0.629,0.191c0.033,0.01,0.067,0.021,0.101,0.031c0.482,0.164,0.966,0.357,1.446,0.574
		c0.037,0.018,0.073,0.035,0.109,0.051c0.208,0.098,0.415,0.195,0.622,0.301c0.038,0.021,0.077,0.041,0.116,0.059
		c0.479,0.248,0.961,0.52,1.444,0.814c0.034,0.021,0.069,0.045,0.105,0.066c0.206,0.127,0.411,0.256,0.617,0.393
		c0.046,0.029,0.091,0.059,0.136,0.088c0.48,0.316,0.963,0.654,1.447,1.012c0.039,0.029,0.08,0.059,0.121,0.09
		c0.199,0.148,0.402,0.299,0.603,0.453c0.057,0.043,0.113,0.088,0.169,0.131c0.211,0.162,0.422,0.326,0.633,0.496
		c0.03,0.023,0.061,0.047,0.09,0.072c0.242,0.191,0.484,0.389,0.728,0.59c0.057,0.047,0.112,0.092,0.169,0.139
		c0.185,0.152,0.368,0.307,0.554,0.463c0.082,0.068,0.163,0.139,0.244,0.207c0.168,0.143,0.337,0.287,0.505,0.434
		c0.08,0.068,0.161,0.137,0.241,0.207c0.223,0.191,0.444,0.385,0.669,0.582c0.133,0.117,0.267,0.236,0.399,0.354
		c0.1,0.086,0.197,0.174,0.297,0.262c0.169,0.148,0.337,0.301,0.507,0.451c0.029,0.025,0.058,0.051,0.086,0.078
		c3.203,2.859,6.644,6.061,10.535,9.078C42.765,242.494,39.731,237.617,39.831,237.113z"/>
</g>
<g>
	<path d="M93.731,165.481c4.101,6.449,9.763,15.101,8.806,22.85l-0.03,0.25c-1.665-0.209-3.725-0.025-6.046,0.136
		c-5.458,0.311-10.917,0.622-16.466,1.649C77.427,177.652,90.991,168.552,93.731,165.481z"/>
	<path d="M51.882,174.479c9.641,3.375,16.027,7.251,17.872,17.795l0.003,0.012
		c-7.907,1.51-16.106,3.532-21.689,8.286C45.042,192.505,50.174,182.662,51.882,174.479z"/>
	<path d="M92.589,172.209c2.97,4.671,7.07,10.938,6.377,16.551l-0.021,0.18c-1.207-0.152-2.696-0.018-4.379,0.098
		c-3.952,0.227-7.905,0.452-11.926,1.196C80.78,181.025,90.604,174.434,92.589,172.209z"/>
	<path d="M54.17,179.792c6.98,2.446,11.606,5.254,12.942,12.89l0.002,0.008c-5.727,1.094-11.664,2.558-15.708,6.001
		C49.216,192.849,52.933,185.719,54.17,179.792z"/>
	<path d="M102.345,187.773c2.889,0.354,4.606,1.875,4.511,6.686c-0.02,0.474-0.042,0.945-0.068,1.412
		c-6.462-2.896-19.18,10.026-21.16,15.465c-1.906,4.998-1.259,11.166-1.364,15.695c-0.251-0.012-0.517,0.008-0.777,0.061
		c-0.323,0.064-0.62,0.176-0.889,0.322c-4.202-13.586-21.198-23.657-35.575-17.811c-1.959-2.988-2.924-5.686-1.687-7.217
		c0.771-0.958,1.635-1.828,2.569-2.621c5.583-4.755,13.781-6.777,21.689-8.287c3.164-0.608,6.279-1.128,9.165-1.71
		c0.357-0.072,0.719-0.142,1.074-0.209c5.549-1.026,11.007-1.338,16.465-1.649C98.619,187.749,100.678,187.564,102.345,187.773z"/>
	<g>
		<path d="M85.627,211.336c-1.906,4.998-1.259,11.166-1.364,15.695c1.04,0.037,1.935,0.584,2.262,1.412
			c1.563-0.697,3.145-1.666,5.042-2.91c1.088-0.787,2.108-1.6,3.064-2.441c8.131-7.146,11.527-16.203,12.156-27.22
			C100.325,192.975,87.607,205.897,85.627,211.336z"/>
		<path d="M47.021,209.603c3.671,5.607,10.848,12.234,13.591,14.051c3.289,1.889,7.175,3.648,11.059,4.797
			c2.096,0.621,4.187,1.061,6.184,1.244c1.246,0.098,2.357,0.117,3.375,0.051c-0.135-0.926,0.431-1.838,1.367-2.332
			C78.395,213.827,61.398,203.756,47.021,209.603z"/>
	</g>
	<g>
		<path d="M84.263,227.031c-0.251-0.012-0.517,0.008-0.777,0.061c-0.323,0.064-0.62,0.176-0.889,0.322
			c-0.937,0.494-1.502,1.406-1.367,2.332c0.001,0.035,0.008,0.07,0.017,0.105c0.246,1.227,1.648,1.977,3.133,1.678
			c1.486-0.301,2.492-1.535,2.245-2.762c-0.023-0.111-0.058-0.219-0.1-0.324C86.197,227.615,85.303,227.068,84.263,227.031z"/>
		<g>
			<path d="M63.151,218.064c2.094,1.203,4.773,0.395,6.149-1.501c0.179-0.247-0.231-0.482-0.408-0.238
				c-1.226,1.689-3.646,2.4-5.503,1.332C63.125,217.503,62.887,217.912,63.151,218.064L63.151,218.064z"/>
		</g>
		<g>
			<path d="M90.606,213.364c2.057,0.636,4.118-0.707,5.307-2.313c0.18-0.245-0.23-0.479-0.408-0.238
				c-1.064,1.437-2.931,2.664-4.772,2.095C90.44,212.818,90.316,213.275,90.606,213.364L90.606,213.364z"/>
		</g>
	</g>
	<g>
		<path d="M53.467,203.152c1.726-0.298,3.423,0.183,5.081,0.63c0.202,0.055,0.31-0.255,0.105-0.309
			c-1.714-0.464-3.467-0.95-5.251-0.644C53.193,202.866,53.259,203.187,53.467,203.152L53.467,203.152z"/>
	</g>
	<g>
		<path d="M59.775,198.779c1.394,0.383,2.732,0.911,3.949,1.697c0.178,0.113,0.358-0.158,0.181-0.273
			c-1.238-0.8-2.605-1.344-4.023-1.734C59.679,198.413,59.572,198.723,59.775,198.779L59.775,198.779z"/>
	</g>
	<g>
		<path d="M65.841,203.456c0.541-0.097,0.96,0.228,1.387,0.51c0.176,0.117,0.358-0.155,0.182-0.273
			c-0.51-0.337-0.995-0.672-1.633-0.558C65.569,203.171,65.634,203.492,65.841,203.456L65.841,203.456z"/>
	</g>
	<g>
		<path d="M76.726,198.338c0.123-1.036,0.165-2.08,0.21-3.121c0.01-0.211-0.318-0.235-0.326-0.023
			c-0.046,1.042-0.088,2.084-0.211,3.121C76.374,198.525,76.701,198.546,76.726,198.338L76.726,198.338z"/>
	</g>
	<g>
		<path d="M75.824,204.956c0.126-0.851,0.572-1.595,0.899-2.379c0.082-0.195-0.229-0.3-0.31-0.105
			c-0.341,0.813-0.786,1.579-0.918,2.461C75.466,205.142,75.793,205.163,75.824,204.956L75.824,204.956z"/>
	</g>
	<g>
		<path d="M82.067,205.757c0.807-0.827,1.391-1.812,1.708-2.923c0.058-0.204-0.252-0.309-0.311-0.106
			c-0.301,1.059-0.848,1.998-1.616,2.786C81.702,205.663,81.919,205.909,82.067,205.757L82.067,205.757z"/>
	</g>
	<g>
		<path d="M85.701,197.126c0.221-0.671,1.017-1.035,1.587-1.36c0.183-0.104,0.037-0.397-0.147-0.292
			c-0.649,0.371-1.498,0.783-1.75,1.547C85.325,197.221,85.635,197.327,85.701,197.126L85.701,197.126z"/>
	</g>
	<g>
		<path d="M93.214,195.645c0.561-0.792,1.434-1.329,2.371-1.547c0.205-0.047,0.141-0.369-0.064-0.321
			c-1.022,0.237-1.969,0.823-2.579,1.686C92.819,195.636,93.094,195.817,93.214,195.645L93.214,195.645z"/>
	</g>
</g>
<path d="M141.966,249.306c0,0,2.677,2.676,2.834,5.668h3.621c0,0,0-3.465,2.362-5.668c0,0-3.149-0.039-3.778,3.621
	C147.005,252.927,145.745,248.833,141.966,249.306z"/>
<path d="M315.642,275.89c0,0,2.676,2.676,2.833,5.668h3.622c0,0,0-3.465,2.362-5.668c0,0-3.149-0.039-3.778,3.621
	C320.681,279.511,319.42,275.417,315.642,275.89z"/>
<path d="M227.005,185.011c0,0,2.677,2.678,2.835,5.669h3.622c0,0,0-3.464,2.361-5.669c0,0-3.15-0.037-3.779,3.622
	C232.044,188.633,230.784,184.539,227.005,185.011z"/>
<path d="M107.048,302.97c0,0,2.677,2.678,2.835,5.669h3.622c0,0,0-3.464,2.361-5.669c0,0-3.15-0.037-3.779,3.621
	C112.087,306.591,110.827,302.498,107.048,302.97z"/>
<path d="M267.901,265c0,0,2.677,2.676,2.834,5.668h3.622c0,0,0-3.465,2.362-5.668c0,0-3.149-0.039-3.78,3.621
	C272.939,268.621,271.68,264.527,267.901,265z"/>
<g>
	<path d="M36.891,292.883c-1.213-0.023-2.424,0.188-3.57,0.58c-1.272,0.434-2.465,1.088-3.54,1.895
		c-0.534,0.4-0.989,0.902-1.52,1.303c-0.559,0.422-0.989,1.01-1.482,1.512c-0.303,0.309-1.281,1.34-0.354,1.613
		c4.61,1.365,9.671,0.869,14.39,0.461c1.627-0.141,3.288-0.299,4.866-0.746c0.174-0.049,0.306-0.049,0.353-0.209
		c0.039-0.131-0.133-0.459-0.184-0.582c-0.139-0.336-0.334-0.643-0.566-0.922c-0.57-0.68-1.313-1.123-2.037-1.605
		c-0.747-0.494-1.463-1.037-2.219-1.521C39.833,293.901,38.36,292.913,36.891,292.883z"/>
	<g>
		<path d="M34.63,297.653c0.057-0.082,0.027-0.219-0.097-0.203c-2.094,0.25-4.839,1.068-6.359,2.766
			c0.105,0.02,0.212,0.037,0.315,0.055c1.455-1.516,3.965-2.285,5.92-2.539c-0.053,0.031-0.105,0.063-0.158,0.092
			c-0.028-0.018-0.064-0.027-0.106-0.016c-1.478,0.457-3.315,1.344-4.389,2.658c0.103,0.012,0.205,0.025,0.309,0.037
			c0.85-0.967,2.15-1.689,3.335-2.15c-0.921,0.615-1.771,1.352-2.416,2.236c0.104,0.008,0.209,0.014,0.314,0.02
			c0.878-1.145,2.115-2.033,3.361-2.715C34.772,297.833,34.725,297.688,34.63,297.653z"/>
		<path d="M43.898,299.879c0.142-0.023,0.281-0.047,0.421-0.072c-2.087-1.127-4.199-2.418-6.655-2.318
			c-0.166,0.008-0.168,0.254-0.01,0.262c-0.122-0.018-0.19,0.117-0.146,0.199c-0.005,0.035,0.005,0.07,0.043,0.1
			c0.79,0.623,1.671,1.037,2.292,1.859c0.097,0.129,0.179,0.264,0.266,0.398c0.093-0.008,0.186-0.016,0.277-0.023
			c-0.148-0.248-0.304-0.494-0.479-0.727c-0.479-0.637-1.182-1.002-1.822-1.443c1.041,0.273,1.907,0.807,2.74,1.539
			c0.173,0.152,0.335,0.348,0.496,0.549c0.121-0.012,0.245-0.023,0.37-0.037c-0.034-0.043-0.066-0.09-0.1-0.129
			c-0.306-0.381-0.72-0.721-1.104-1.014c-0.855-0.656-1.744-1.078-2.807-1.268C39.962,297.667,41.951,298.815,43.898,299.879z"/>
	</g>
	<path d="M38.125,304.334c-0.246-1.623-0.606-3.256-0.656-4.887c-0.021-0.639-0.23-4.096-2.159-2.695
		c-0.118,0.086-0.076,0.193,0.021,0.256c-0.619,1.934-0.933,3.898-1.196,5.869c-0.277,2.084-0.797,4.168-1.003,6.25
		c-0.132,1.322,1.129,1.615,2.815,1.797c1.464,0.158,2.803-0.246,2.897-1.354c0.053-0.623-0.077-1.229-0.214-1.842
		C38.378,306.61,38.296,305.461,38.125,304.334z"/>
	<path d="M37.502,297.194c-0.091-0.053-0.188-0.1-0.297-0.143c-0.929-0.367-1.771-0.189-2.627,0.256
		c-0.368,0.191-0.507,0.512-0.696,0.875c-0.227,0.434-0.429,0.881-0.668,1.307c-0.371,0.664-0.651,1.396-0.91,2.109
		c-0.113,0.314-0.495,1.193-0.177,1.482c0.352,0.322,0.956-0.576,1.115-0.791c0.391-0.523,0.721-1.184,1.35-1.457
		c0.253-0.111,0.335-0.002,0.429,0.234c0.23,0.588,0.202,1.258,0.414,1.852c0.048,0.139,0.177,0.5,0.383,0.42
		c0.192-0.078,0.177-0.631,0.191-0.789c0.036-0.383,0.042-0.766,0.075-1.146c0.017-0.207,0.025-0.453,0.186-0.607
		c0.263,0.141,0.354,0.91,0.449,1.178c0.075,0.209,0.342,1.137,0.649,1.137c0.295,0.002-0.096-1.969,0.255-2.262
		c0.181,0.133,0.26,0.639,0.373,0.852c0.185,0.344,0.405,0.684,0.656,0.982c0.102,0.121,0.429,0.52,0.621,0.336
		c0.202-0.195-0.02-0.91-0.074-1.123c-0.267-1.043-0.355-2.148-0.669-3.176C38.326,298.051,38.072,297.526,37.502,297.194z"/>
	<path d="M42.434,291.299c-1.073-1.826-2.995-2.85-5.264-2.871c-1.763-0.018-3.51,0.617-4.955,1.598
		c-1.442,0.977-2.403,2.379-3.091,3.955c-0.779,1.123-1.698,2.141-2.515,3.238c-0.464,0.623-1.24,1.602-0.585,2.346
		c0.32,0.363,0.887,0.355,1.305,0.188c0.357-0.143,0.656-0.402,0.999-0.576c0.825-0.42,1.687-0.738,2.598-0.922
		c1.891-0.387,3.849-0.668,5.78-0.678c1.824-0.014,3.726,0.098,5.412,0.846c0.805,0.355,1.637,0.652,2.494,0.844
		c0.506,0.113,1.361,0.391,1.757-0.102c0.5-0.623-0.212-1.57-0.556-2.096C44.595,295.2,43.833,293.004,42.434,291.299z"/>
	<path d="M33.889,290.124c-1.157,0-1.157,1.793,0,1.793C35.044,291.917,35.044,290.124,33.889,290.124z"/>
	<path d="M42.509,294.528c-1.156,0-1.156,2.334,0,2.334C43.667,296.862,43.667,294.528,42.509,294.528z"/>
	<path d="M34.248,295.86c-1.156,0-1.156,1.311,0,1.311S35.404,295.86,34.248,295.86z"/>
	<path d="M30.53,296.422c0-1.699-1.924-1.699-1.924,0S30.53,298.122,30.53,296.422z"/>
	<path d="M27.454,297.28c-1.155,0-1.155,1.793,0,1.793C28.611,299.073,28.611,297.28,27.454,297.28z"/>
	<path d="M44.601,296.862c-1.157,0-1.157,1.793,0,1.793C45.757,298.655,45.757,296.862,44.601,296.862z"/>
	<path d="M40.98,291.374c-1.715,0-1.715,2.678,0,2.678S42.695,291.374,40.98,291.374z"/>
	<path d="M38.108,289.385c-1.488,0-1.488,2.887,0,2.887C39.595,292.272,39.595,289.385,38.108,289.385z"/>
	<path d="M36.005,292.493c-1.783,0-1.783,2.934,0,2.934C37.79,295.426,37.79,292.493,36.005,292.493z"/>
	<path d="M32.061,292.704c-2.041,0-2.041,3.164,0,3.164C34.101,295.868,34.101,292.704,32.061,292.704z"/>
	<path d="M39.27,294.479c-1.157,0-1.157,1.793,0,1.793C40.426,296.272,40.426,294.479,39.27,294.479z"/>
</g>
<path d="M29.48,307.127c0,0,2.677,2.676,2.834,5.668h3.622c0,0,0-3.465,2.362-5.668c0,0-3.149-0.039-3.78,3.621
	C34.518,310.749,33.258,306.655,29.48,307.127z"/>
<path d="M145.232,251.175c0,0,2.362-4.092,4.725-4.25c0,0-2.52,1.418-2.362,5.668h-7.558
	c0,0-1.916-4.824-3.149-5.668c0,0,3.654,2.359,4.127,3.777c0,0-0.505-4.564-2.081-5.982
	C138.934,244.72,142.872,245.822,145.232,251.175z"/>
<path d="M392.612,170.781c0,0,2.677,2.677,2.833,5.668h3.622c0,0,0-3.464,2.362-5.668c0,0-3.149-0.038-3.778,3.621
	C397.651,174.402,396.391,170.308,392.612,170.781z"/>
<path d="M280.555,295.839c0,0,2.677,2.676,2.833,5.668h3.622c0,0,0-3.465,2.362-5.668c0,0-3.149-0.039-3.778,3.621
	C285.594,299.46,284.333,295.367,280.555,295.839z"/>
<path d="M388.947,314.341c0,0,2.677,2.676,2.833,5.668h3.622c0,0,0-3.465,2.362-5.668c0,0-3.149-0.039-3.778,3.621
	C393.986,317.962,392.725,313.869,388.947,314.341z"/>
<path d="M29.623,205.687c0,0-2.677,2.678-2.835,5.669h-3.622c0,0,0-3.464-2.362-5.669c0,0,3.149-0.037,3.78,3.622
	C24.584,209.309,25.844,205.214,29.623,205.687z"/>
<path d="M69.094,275.982c0,0-2.362-4.094-4.725-4.252c0,0,2.521,1.418,2.362,5.67h7.559c0,0,1.916-4.826,3.149-5.67
	c0,0-3.655,2.361-4.127,3.777c0,0,0.506-4.564,2.08-5.982C75.393,269.525,71.455,270.628,69.094,275.982z"/>
<path d="M409.776,234.349c0,0,2.361-4.096,4.724-4.252c0,0-2.521,1.416-2.362,5.668h-7.559
	c0,0-1.916-4.826-3.149-5.668c0,0,3.655,2.359,4.128,3.777c0,0-0.506-4.566-2.08-5.982
	C403.478,227.892,407.414,228.996,409.776,234.349z"/>
<path d="M31.433,260.255c0,0,2.362-4.094,4.725-4.252c0,0-2.519,1.418-2.362,5.67h-7.558c0,0-1.916-4.826-3.149-5.67
	c0,0,3.654,2.361,4.127,3.779c0,0-0.506-4.566-2.081-5.984C25.134,253.798,29.071,254.902,31.433,260.255z"/>
<path d="M227.997,310.456c0,0,2.362-4.094,4.725-4.252c0,0-2.519,1.418-2.362,5.67h-7.558
	c0,0-1.916-4.826-3.149-5.67c0,0,3.654,2.361,4.127,3.779c0,0-0.506-4.566-2.081-5.984
	C221.698,303.999,225.635,305.102,227.997,310.456z"/>
<path d="M266.004,335.358c0,0,2.362-4.094,4.725-4.252c0,0-2.519,1.418-2.362,5.67h-7.558
	c0,0-1.916-4.826-3.149-5.67c0,0,3.654,2.361,4.127,3.779c0,0-0.506-4.566-2.081-5.984
	C259.706,328.901,263.643,330.004,266.004,335.358z"/>
<path d="M378.798,269.976c0,0,2.361-4.096,4.723-4.252c0,0-2.52,1.418-2.361,5.67h-7.559c0,0-1.916-4.826-3.149-5.67
	c0,0,3.654,2.361,4.127,3.777c0,0-0.506-4.564-2.081-5.98C372.497,263.521,376.436,264.623,378.798,269.976z"/>
<path d="M58.361,335.357c0,0,2.361-4.096,4.723-4.252c0,0-2.52,1.418-2.361,5.67h-7.559c0,0-1.916-4.826-3.149-5.67
	c0,0,3.654,2.361,4.127,3.777c0,0-0.506-4.564-2.081-5.98C52.061,328.902,55.999,330.003,58.361,335.357z"/>
<path d="M182.044,272.906c0,0-2.361-4.096-4.724-4.252c0,0,2.521,1.416,2.362,5.668h7.559
	c0,0,1.916-4.826,3.149-5.668c0,0-3.655,2.361-4.128,3.777c0,0,0.506-4.564,2.08-5.982
	C188.343,266.449,184.406,267.552,182.044,272.906z"/>
<path d="M178.979,326.335c0,0-2.361-4.096-4.724-4.252c0,0,2.521,1.416,2.362,5.668h7.559
	c0,0,1.916-4.826,3.149-5.668c0,0-3.655,2.361-4.128,3.777c0,0,0.506-4.564,2.08-5.982
	C185.277,319.878,181.341,320.982,178.979,326.335z"/>
<g>
	<path d="M264.542,216.435c-0.183-0.839-0.441-1.66-0.687-2.485c-0.158-0.531-0.249-1.073-0.479-1.588
		c-0.166-0.371-0.447-0.79-0.971-0.85c-0.632-0.072-1.185,0.299-1.628,0.616c-0.161,0.116-0.331,0.261-0.53,0.345
		c0.005-0.024,0.012-0.047,0.016-0.071c0.016-0.074-0.121-0.105-0.137-0.031c-0.012,0.05-0.023,0.101-0.034,0.151
		c-0.003,0.001-0.007,0.002-0.012,0.003c-0.07,0.013-0.063,0.085-0.012,0.108c-0.381,1.661-1.112,3.257-1.33,4.947
		c-0.099,0.77-0.101,1.598,0.302,2.314c0.389,0.695,1.2,1.07,2.096,1.188c1.16,0.15,2.73,0.076,3.4-0.832
		c0.324-0.438,0.366-0.992,0.352-1.492C264.864,217.982,264.707,217.198,264.542,216.435z"/>
	<path d="M263.356,212.386c-0.078-0.042-0.163-0.08-0.255-0.115c-0.801-0.295-1.525-0.153-2.262,0.205
		c-0.315,0.153-0.437,0.411-0.6,0.703c-0.195,0.348-0.368,0.706-0.574,1.048c-0.319,0.534-0.562,1.121-0.784,1.694
		c-0.097,0.252-0.426,0.955-0.151,1.188c0.303,0.258,0.823-0.462,0.96-0.634c0.335-0.421,0.619-0.95,1.161-1.17
		c0.218-0.09,0.289-0.001,0.369,0.189c0.198,0.472,0.175,1.009,0.355,1.485c0.042,0.112,0.153,0.402,0.33,0.336
		c0.165-0.062,0.153-0.503,0.165-0.632c0.031-0.307,0.036-0.615,0.064-0.92c0.015-0.167,0.021-0.364,0.159-0.488
		c0.227,0.114,0.304,0.732,0.387,0.945c0.064,0.167,0.294,0.913,0.559,0.913c0.254,0.001-0.081-1.581,0.22-1.815
		c0.156,0.106,0.225,0.512,0.322,0.682c0.158,0.276,0.347,0.549,0.563,0.79c0.088,0.098,0.37,0.417,0.534,0.27
		c0.175-0.157-0.016-0.73-0.063-0.901c-0.229-0.837-0.306-1.723-0.576-2.549C264.065,213.073,263.847,212.652,263.356,212.386z"/>
	<path d="M260.955,206.335c-1.576,0.346-2.637,1.925-3.243,3.302c-0.646,1.466-0.998,3.239-0.591,4.818
		c0.015,0.055,0.048,0.092,0.086,0.111c0.021,0.035,0.054,0.063,0.103,0.077c1.528,0.449,3.203,0.223,4.762,0.082
		c1.219-0.109,2.852,0.258,3.904-0.525c0.02-0.015,0.032-0.029,0.043-0.045c0.051-0.017,0.09-0.055,0.102-0.125
		C266.616,211.12,264.802,205.49,260.955,206.335z"/>
	<path d="M260.631,211.331c-0.266-0.041-0.53,0.002-0.731,0.14c-0.109,0.04-0.207,0.105-0.282,0.201
		c-0.324,0.415-0.487,0.901-0.341,1.428c0.177,0.634,0.789,0.951,1.413,0.816c0.582-0.127,1.112-0.739,1.073-1.344
		C261.723,211.956,261.245,211.427,260.631,211.331z"/>
	<path d="M261.134,207.465c-1.101,0-1.101,1.704,0,1.704C262.233,209.169,262.233,207.465,261.134,207.465z"/>
	<path d="M263.037,209.678c-0.103-0.009-0.2,0.005-0.295,0.031c-0.048,0.003-0.096,0.013-0.142,0.032
		c-0.284,0.109-0.551,0.26-0.699,0.539c-0.166,0.313-0.142,0.633,0.006,0.944c0.117,0.245,0.371,0.408,0.616,0.499
		c0.288,0.107,0.6,0.05,0.87-0.076c0.258-0.121,0.438-0.408,0.52-0.671c0.085-0.276,0.033-0.578-0.1-0.829
		C263.659,209.858,263.352,209.706,263.037,209.678z"/>
	<g>
		<path d="M258.306,208.502c-0.232,0.375-0.429,0.761-0.594,1.135c-0.165,0.375-0.31,0.769-0.43,1.175
			c0.138,0.151,0.319,0.268,0.545,0.33c0.291,0.082,0.664,0.068,0.916-0.117c0.345-0.252,0.477-0.555,0.531-0.969
			c0.061-0.45-0.097-0.97-0.4-1.307C258.726,208.585,258.518,208.507,258.306,208.502z"/>
		<path d="M257.113,212.397c-0.046,0-0.093,0.005-0.138,0.013c-0.052,0.587-0.034,1.179,0.078,1.75
			c0.021,0.001,0.041,0.003,0.06,0.003c0.466,0,0.854-0.388,0.854-0.853v-0.06C257.967,212.785,257.579,212.397,257.113,212.397z"/>
		<path d="M264.655,210.369c-0.18,0.693,0.04,1.642,0.849,1.797c0.233,0.045,0.451,0.021,0.647-0.055
			c-0.095-0.892-0.325-1.841-0.69-2.709C265.079,209.547,264.778,209.905,264.655,210.369z"/>
		<path d="M263.367,206.718c-0.375,0.359-0.228,1.171,0.446,1.171c0.27,0,0.453-0.128,0.555-0.307
			C264.069,207.235,263.735,206.942,263.367,206.718z"/>
		<path d="M264.812,213.863c-0.095-0.155-0.206-0.258-0.354-0.36c-0.14-0.095-0.307-0.128-0.473-0.139
			c-0.078-0.004-0.162,0.01-0.239,0.033c-0.163,0.046-0.22,0.099-0.351,0.201c-0.121,0.093-0.215,0.291-0.25,0.435
			c-0.053,0.219-0.032,0.395-0.001,0.614c0.002,0.021,0.007,0.042,0.012,0.063c0.6,0.013,1.226,0.029,1.795-0.084
			c0.016-0.083,0.021-0.17,0.014-0.25C264.943,214.186,264.913,214.029,264.812,213.863z"/>
	</g>
</g>
<g>
	<path d="M334.171,317.042c-0.183-0.839-0.441-1.659-0.687-2.485c-0.158-0.531-0.249-1.073-0.479-1.588
		c-0.166-0.371-0.447-0.79-0.971-0.85c-0.632-0.072-1.185,0.299-1.628,0.616c-0.161,0.116-0.331,0.261-0.53,0.345
		c0.005-0.023,0.012-0.047,0.016-0.07c0.016-0.074-0.121-0.105-0.137-0.031c-0.012,0.05-0.023,0.1-0.034,0.15
		c-0.003,0.001-0.007,0.002-0.012,0.004c-0.07,0.013-0.063,0.084-0.012,0.107c-0.381,1.661-1.112,3.258-1.33,4.947
		c-0.099,0.77-0.101,1.598,0.302,2.314c0.389,0.695,1.2,1.07,2.096,1.188c1.16,0.15,2.73,0.076,3.4-0.832
		c0.324-0.438,0.366-0.992,0.352-1.492C334.494,318.589,334.336,317.804,334.171,317.042z"/>
	<path d="M332.986,312.994c-0.078-0.043-0.163-0.08-0.255-0.115c-0.801-0.295-1.525-0.153-2.262,0.205
		c-0.315,0.152-0.437,0.41-0.6,0.702c-0.195,0.349-0.368,0.706-0.574,1.048c-0.319,0.533-0.562,1.121-0.784,1.694
		c-0.097,0.253-0.426,0.955-0.151,1.188c0.303,0.258,0.823-0.462,0.96-0.635c0.335-0.421,0.619-0.949,1.161-1.17
		c0.218-0.09,0.289-0.001,0.369,0.189c0.198,0.471,0.175,1.008,0.355,1.484c0.042,0.113,0.153,0.402,0.33,0.336
		c0.165-0.062,0.153-0.503,0.165-0.631c0.031-0.308,0.036-0.615,0.064-0.92c0.015-0.167,0.021-0.364,0.159-0.488
		c0.227,0.113,0.304,0.732,0.387,0.945c0.064,0.167,0.294,0.912,0.559,0.912c0.254,0.002-0.081-1.58,0.22-1.814
		c0.156,0.105,0.225,0.512,0.322,0.682c0.158,0.276,0.347,0.549,0.563,0.789c0.088,0.099,0.37,0.417,0.534,0.27
		c0.175-0.156-0.016-0.729-0.063-0.9c-0.229-0.837-0.306-1.723-0.576-2.549C333.695,313.68,333.476,313.259,332.986,312.994z"/>
	<path d="M330.584,306.942c-1.576,0.347-2.637,1.925-3.243,3.302c-0.646,1.466-0.998,3.239-0.591,4.818
		c0.015,0.055,0.048,0.092,0.086,0.111c0.021,0.035,0.054,0.063,0.103,0.076c1.528,0.449,3.203,0.223,4.762,0.082
		c1.219-0.109,2.852,0.258,3.904-0.525c0.02-0.015,0.032-0.029,0.043-0.045c0.051-0.018,0.09-0.056,0.102-0.125
		C336.246,311.727,334.431,306.097,330.584,306.942z"/>
	<path d="M330.26,311.938c-0.266-0.041-0.53,0.003-0.731,0.14c-0.109,0.039-0.207,0.105-0.282,0.201
		c-0.324,0.415-0.487,0.901-0.341,1.428c0.177,0.634,0.789,0.951,1.413,0.816c0.582-0.127,1.112-0.74,1.073-1.344
		C331.352,312.562,330.875,312.034,330.26,311.938z"/>
	<path d="M330.763,308.072c-1.101,0-1.101,1.704,0,1.704C331.863,309.776,331.863,308.072,330.763,308.072z"/>
	<path d="M332.667,310.285c-0.103-0.009-0.2,0.006-0.295,0.031c-0.048,0.004-0.096,0.014-0.142,0.033
		c-0.284,0.108-0.551,0.26-0.699,0.538c-0.166,0.313-0.142,0.633,0.006,0.944c0.117,0.245,0.371,0.408,0.616,0.499
		c0.288,0.107,0.6,0.05,0.87-0.075c0.258-0.121,0.438-0.408,0.52-0.672c0.085-0.276,0.033-0.578-0.1-0.829
		C333.289,310.464,332.981,310.313,332.667,310.285z"/>
	<g>
		<path d="M327.935,309.109c-0.232,0.375-0.429,0.762-0.594,1.135c-0.165,0.375-0.31,0.77-0.43,1.175
			c0.138,0.151,0.319,0.269,0.545,0.33c0.291,0.081,0.664,0.068,0.916-0.117c0.345-0.253,0.477-0.556,0.531-0.97
			c0.061-0.449-0.097-0.97-0.4-1.307C328.355,309.192,328.147,309.114,327.935,309.109z"/>
		<path d="M326.743,313.003c-0.046,0-0.093,0.006-0.138,0.014c-0.052,0.588-0.034,1.179,0.078,1.75
			c0.021,0,0.041,0.003,0.06,0.003c0.466,0,0.854-0.388,0.854-0.853v-0.061C327.596,313.392,327.208,313.003,326.743,313.003z"/>
		<path d="M334.285,310.976c-0.18,0.692,0.04,1.642,0.849,1.797c0.233,0.045,0.451,0.021,0.647-0.055
			c-0.095-0.892-0.325-1.841-0.69-2.709C334.708,310.154,334.408,310.511,334.285,310.976z"/>
		<path d="M332.997,307.326c-0.375,0.358-0.228,1.171,0.446,1.171c0.27,0,0.453-0.128,0.555-0.307
			C333.699,307.841,333.365,307.548,332.997,307.326z"/>
		<path d="M334.441,314.47c-0.095-0.156-0.206-0.259-0.354-0.36c-0.14-0.095-0.307-0.128-0.473-0.14
			c-0.078-0.004-0.162,0.01-0.239,0.033c-0.163,0.047-0.22,0.1-0.351,0.201c-0.121,0.093-0.215,0.291-0.25,0.434
			c-0.053,0.219-0.032,0.396-0.001,0.614c0.002,0.021,0.007,0.042,0.012,0.063c0.6,0.014,1.226,0.029,1.795-0.084
			c0.016-0.084,0.021-0.17,0.014-0.25C334.573,314.792,334.542,314.636,334.441,314.47z"/>
	</g>
</g>
<g>
	<path d="M134,271.214c-0.182-0.838-0.44-1.658-0.686-2.484c-0.158-0.533-0.249-1.072-0.479-1.59
		c-0.167-0.369-0.446-0.789-0.971-0.848c-0.633-0.072-1.185,0.299-1.627,0.615c-0.163,0.115-0.332,0.262-0.531,0.344
		c0.006-0.021,0.012-0.045,0.017-0.07c0.015-0.072-0.124-0.104-0.138-0.029c-0.011,0.051-0.023,0.1-0.034,0.15
		c-0.005,0.002-0.008,0.002-0.012,0.004c-0.07,0.014-0.063,0.086-0.012,0.107c-0.382,1.662-1.111,3.256-1.329,4.947
		c-0.101,0.77-0.101,1.598,0.3,2.314c0.391,0.695,1.201,1.068,2.097,1.186c1.16,0.152,2.729,0.078,3.4-0.83
		c0.324-0.439,0.366-0.992,0.352-1.492C134.323,272.763,134.166,271.978,134,271.214z"/>
	<path d="M132.815,267.166c-0.079-0.041-0.163-0.08-0.255-0.113c-0.801-0.295-1.525-0.152-2.263,0.203
		c-0.314,0.154-0.436,0.412-0.599,0.705c-0.194,0.348-0.368,0.705-0.574,1.047c-0.32,0.533-0.562,1.121-0.783,1.693
		c-0.098,0.252-0.427,0.957-0.152,1.189c0.303,0.258,0.823-0.461,0.96-0.635c0.335-0.422,0.619-0.949,1.162-1.17
		c0.216-0.09,0.288,0,0.367,0.189c0.199,0.471,0.176,1.008,0.356,1.484c0.042,0.111,0.153,0.402,0.33,0.336
		c0.165-0.061,0.152-0.504,0.165-0.631c0.031-0.307,0.036-0.615,0.064-0.922c0.015-0.164,0.021-0.361,0.159-0.488
		c0.227,0.113,0.304,0.732,0.387,0.945c0.064,0.17,0.294,0.914,0.559,0.914c0.254,0-0.082-1.582,0.221-1.814
		c0.155,0.105,0.224,0.512,0.32,0.682c0.159,0.277,0.349,0.549,0.563,0.791c0.089,0.096,0.37,0.416,0.535,0.268
		c0.175-0.156-0.016-0.73-0.063-0.902c-0.229-0.836-0.306-1.723-0.575-2.547C133.523,267.855,133.306,267.431,132.815,267.166z"/>
	<path d="M130.414,261.115c-1.576,0.346-2.636,1.926-3.243,3.303c-0.646,1.467-0.998,3.24-0.591,4.818
		c0.015,0.055,0.047,0.092,0.086,0.111c0.021,0.033,0.053,0.063,0.102,0.076c1.529,0.449,3.204,0.223,4.763,0.082
		c1.218-0.109,2.852,0.258,3.904-0.525c0.019-0.014,0.032-0.029,0.043-0.047c0.051-0.016,0.09-0.053,0.102-0.123
		C136.073,265.9,134.261,260.271,130.414,261.115z"/>
	<path d="M130.089,266.113c-0.265-0.043-0.529,0-0.731,0.139c-0.107,0.039-0.206,0.105-0.281,0.201
		c-0.324,0.416-0.487,0.902-0.341,1.428c0.177,0.635,0.788,0.951,1.413,0.814c0.583-0.127,1.112-0.738,1.073-1.344
		C131.181,266.736,130.705,266.207,130.089,266.113z"/>
	<path d="M130.592,262.244c-1.1,0-1.1,1.707,0,1.707C131.693,263.951,131.693,262.244,130.592,262.244z"/>
	<path d="M132.496,264.46c-0.102-0.01-0.201,0.002-0.294,0.029c-0.049,0.004-0.097,0.014-0.143,0.031
		c-0.284,0.111-0.551,0.262-0.699,0.541c-0.166,0.311-0.141,0.633,0.006,0.941c0.117,0.248,0.371,0.408,0.616,0.502
		c0.288,0.107,0.6,0.049,0.87-0.076c0.259-0.121,0.438-0.41,0.52-0.672c0.085-0.277,0.033-0.578-0.1-0.828
		C133.118,264.638,132.811,264.486,132.496,264.46z"/>
	<g>
		<path d="M127.765,263.283c-0.232,0.373-0.429,0.762-0.594,1.135c-0.165,0.375-0.31,0.768-0.43,1.176
			c0.138,0.148,0.318,0.266,0.545,0.33c0.291,0.08,0.664,0.066,0.916-0.117c0.345-0.254,0.477-0.557,0.531-0.969
			c0.061-0.451-0.097-0.971-0.4-1.309C128.185,263.365,127.977,263.287,127.765,263.283z"/>
		<path d="M126.573,267.177c-0.047,0-0.094,0.004-0.138,0.014c-0.053,0.588-0.035,1.18,0.077,1.748
			c0.021,0.004,0.041,0.004,0.061,0.004c0.465,0,0.853-0.387,0.853-0.852v-0.061C127.426,267.564,127.038,267.177,126.573,267.177z"
			/>
		<path d="M134.115,265.15c-0.181,0.691,0.038,1.641,0.849,1.797c0.232,0.045,0.45,0.02,0.646-0.057
			c-0.095-0.889-0.325-1.838-0.69-2.709C134.537,264.328,134.237,264.685,134.115,265.15z"/>
		<path d="M132.826,261.498c-0.376,0.361-0.228,1.174,0.446,1.174c0.269,0,0.453-0.131,0.554-0.309
			C133.528,262.015,133.194,261.722,132.826,261.498z"/>
		<path d="M134.271,268.642c-0.096-0.154-0.206-0.256-0.354-0.357c-0.14-0.096-0.309-0.129-0.473-0.141
			c-0.078-0.006-0.162,0.01-0.238,0.031c-0.164,0.047-0.221,0.102-0.352,0.201c-0.12,0.096-0.215,0.291-0.25,0.436
			c-0.054,0.219-0.032,0.396-0.001,0.615c0.003,0.021,0.007,0.041,0.012,0.063c0.6,0.014,1.226,0.029,1.795-0.084
			c0.016-0.084,0.021-0.17,0.013-0.25C134.402,268.966,134.372,268.81,134.271,268.642z"/>
	</g>
</g>
<g>
	<path d="M142.475,342.339c-0.182-0.838-0.44-1.658-0.686-2.484c-0.158-0.533-0.249-1.072-0.479-1.59
		c-0.167-0.369-0.446-0.789-0.971-0.848c-0.633-0.072-1.185,0.299-1.627,0.615c-0.163,0.115-0.332,0.262-0.531,0.344
		c0.006-0.021,0.012-0.045,0.017-0.07c0.015-0.072-0.124-0.104-0.138-0.029c-0.011,0.051-0.023,0.1-0.034,0.15
		c-0.005,0.002-0.008,0.002-0.012,0.004c-0.07,0.014-0.063,0.086-0.012,0.107c-0.382,1.662-1.111,3.256-1.329,4.947
		c-0.101,0.77-0.101,1.598,0.3,2.314c0.391,0.695,1.201,1.068,2.097,1.186c1.16,0.152,2.729,0.078,3.4-0.83
		c0.324-0.439,0.366-0.992,0.352-1.492C142.798,343.888,142.641,343.103,142.475,342.339z"/>
	<path d="M141.291,338.291c-0.079-0.041-0.163-0.08-0.255-0.113c-0.801-0.295-1.525-0.152-2.263,0.203
		c-0.314,0.154-0.436,0.412-0.599,0.705c-0.194,0.348-0.368,0.705-0.574,1.047c-0.32,0.533-0.562,1.121-0.783,1.693
		c-0.098,0.252-0.427,0.957-0.152,1.189c0.303,0.258,0.823-0.461,0.96-0.635c0.335-0.422,0.619-0.949,1.162-1.17
		c0.216-0.09,0.288,0,0.367,0.189c0.199,0.471,0.176,1.008,0.356,1.484c0.042,0.111,0.153,0.402,0.33,0.336
		c0.165-0.061,0.152-0.504,0.165-0.631c0.031-0.307,0.036-0.615,0.064-0.922c0.015-0.164,0.021-0.361,0.159-0.488
		c0.227,0.113,0.304,0.732,0.387,0.945c0.064,0.17,0.294,0.914,0.559,0.914c0.254,0-0.082-1.582,0.221-1.814
		c0.155,0.105,0.224,0.512,0.32,0.682c0.159,0.277,0.349,0.549,0.563,0.791c0.089,0.096,0.37,0.416,0.535,0.268
		c0.175-0.156-0.016-0.73-0.063-0.902c-0.229-0.836-0.306-1.723-0.575-2.547C141.999,338.98,141.781,338.556,141.291,338.291z"/>
	<path d="M138.889,332.24c-1.576,0.346-2.636,1.926-3.243,3.303c-0.646,1.467-0.998,3.24-0.591,4.818
		c0.015,0.055,0.047,0.092,0.086,0.111c0.021,0.033,0.053,0.063,0.102,0.076c1.529,0.449,3.204,0.223,4.763,0.082
		c1.218-0.109,2.852,0.258,3.904-0.525c0.019-0.014,0.032-0.029,0.043-0.047c0.051-0.016,0.09-0.053,0.102-0.123
		C144.548,337.025,142.736,331.396,138.889,332.24z"/>
	<path d="M138.564,337.238c-0.265-0.043-0.529,0-0.731,0.139c-0.107,0.039-0.206,0.105-0.281,0.201
		c-0.324,0.416-0.487,0.902-0.341,1.428c0.177,0.635,0.788,0.951,1.413,0.814c0.583-0.127,1.112-0.738,1.073-1.344
		C139.656,337.861,139.18,337.332,138.564,337.238z"/>
	<path d="M139.067,333.369c-1.1,0-1.1,1.707,0,1.707C140.168,335.076,140.168,333.369,139.067,333.369z"/>
	<path d="M140.971,335.585c-0.102-0.01-0.201,0.002-0.294,0.029c-0.049,0.004-0.097,0.014-0.143,0.031
		c-0.284,0.111-0.551,0.262-0.699,0.541c-0.166,0.311-0.141,0.633,0.006,0.941c0.117,0.248,0.371,0.408,0.616,0.502
		c0.288,0.107,0.6,0.049,0.87-0.076c0.259-0.121,0.438-0.41,0.52-0.672c0.085-0.277,0.033-0.578-0.1-0.828
		C141.593,335.763,141.286,335.611,140.971,335.585z"/>
	<g>
		<path d="M136.24,334.408c-0.232,0.373-0.429,0.762-0.594,1.135c-0.165,0.375-0.31,0.768-0.43,1.176
			c0.138,0.148,0.318,0.266,0.545,0.33c0.291,0.08,0.664,0.066,0.916-0.117c0.345-0.254,0.477-0.557,0.531-0.969
			c0.061-0.451-0.097-0.971-0.4-1.309C136.66,334.49,136.452,334.412,136.24,334.408z"/>
		<path d="M135.048,338.302c-0.047,0-0.094,0.004-0.138,0.014c-0.053,0.588-0.035,1.18,0.077,1.748
			c0.021,0.004,0.041,0.004,0.061,0.004c0.465,0,0.853-0.387,0.853-0.852v-0.061C135.901,338.689,135.513,338.302,135.048,338.302z"
			/>
		<path d="M142.59,336.275c-0.181,0.691,0.038,1.641,0.849,1.797c0.232,0.045,0.45,0.02,0.646-0.057
			c-0.095-0.889-0.325-1.838-0.69-2.709C143.012,335.453,142.712,335.81,142.59,336.275z"/>
		<path d="M141.301,332.623c-0.376,0.361-0.228,1.174,0.446,1.174c0.269,0,0.453-0.131,0.554-0.309
			C142.003,333.14,141.669,332.847,141.301,332.623z"/>
		<path d="M142.746,339.767c-0.096-0.154-0.206-0.256-0.354-0.357c-0.14-0.096-0.309-0.129-0.473-0.141
			c-0.078-0.006-0.162,0.01-0.238,0.031c-0.164,0.047-0.221,0.102-0.352,0.201c-0.12,0.096-0.215,0.291-0.25,0.436
			c-0.054,0.219-0.032,0.396-0.001,0.615c0.003,0.021,0.007,0.041,0.012,0.063c0.6,0.014,1.226,0.029,1.795-0.084
			c0.016-0.084,0.021-0.17,0.013-0.25C142.877,340.091,142.847,339.935,142.746,339.767z"/>
	</g>
</g>
<g>
	<g>
		<path d="M175.097,198.161c0.697,0.417,1.216,0.464,1.901,1.383c-0.589-0.715-0.867-1.828-1.253-2.641
			c0.706-0.086,1.519-0.472,2.225-0.558c-0.299-0.107-2.609-0.256-2.311-0.148"/>
		<g>
			<path d="M174.964,198.356c0.707,0.404,1.333,0.68,1.855,1.342c0.188,0.239,0.539-0.067,0.357-0.309
				c-0.582-0.772-0.826-1.719-1.217-2.588c-0.058,0.113-0.116,0.223-0.174,0.334c0.759-0.121,1.466-0.437,2.225-0.558
				c0.228-0.035,0.27-0.388,0.039-0.455c-0.437-0.125-0.92-0.13-1.37-0.163c-0.351-0.024-0.803-0.113-1.146,0.002
				c-0.107,0.036-0.136,0.158-0.131,0.254c0,0.003,0,0.007,0,0.01c0.004,0.088,0.084,0.147,0.153,0.182
				c0.008,0.003,0.016,0.008,0.023,0.012c0.274,0.134,0.43-0.313,0.158-0.445c0.044,0.054,0.087,0.106,0.131,0.16
				c-0.045,0.085-0.088,0.17-0.133,0.254c0.259-0.086,0.766,0.034,1.044,0.053c0.36,0.025,0.762,0.026,1.11,0.126
				c0.013-0.152,0.025-0.304,0.039-0.455c-0.759,0.12-1.466,0.436-2.225,0.558c-0.154,0.024-0.234,0.196-0.173,0.333
				c0.412,0.913,0.677,1.886,1.287,2.695c0.119-0.103,0.237-0.206,0.357-0.309c-0.549-0.699-1.195-0.995-1.945-1.424
				C174.969,197.816,174.7,198.204,174.964,198.356L174.964,198.356z"/>
		</g>
	</g>
	<path d="M143.843,200.208c4.194,6.224,11.517,24.029,21.374,14.378c4.212-4.237,1.536-10.932,5.033-14.579
		c1.538-1.477,4.138-0.719,5.175-2.206c0.834-1.392-0.804-4.845-2.087-5.978c-3.467-2.587-5.165,1.701-6.533,4.59
		c-1.476,3.188-2.726,5.273-5.978,6.815C155.139,205.926,147.565,204.913,143.843,200.208z"/>
	<path d="M150.596,197.131c2.78,1.668,13.419,2.846,12.425,7.05c-0.896,4.406-7.283,1.959-9.048-0.19
		C152.303,202.045,151.249,199.559,150.596,197.131z"/>
	<g>
		<path d="M161.13,215.357c1.021,3.39,1.704,7.681,5.563,8.935c0.291,0.094,0.412-0.361,0.125-0.455
			c-3.66-1.189-4.268-5.406-5.232-8.605C161.498,214.941,161.042,215.065,161.13,215.357L161.13,215.357z"/>
	</g>
	<g>
		<path d="M158.198,215.97c-0.008,3.332-0.335,6.457-2.629,9.051c-0.2,0.229,0.132,0.564,0.334,0.336
			c2.383-2.695,2.759-5.918,2.768-9.387C158.671,215.665,158.198,215.665,158.198,215.97L158.198,215.97z"/>
	</g>
	<g>
		<ellipse transform="matrix(0.9033 -0.4289 0.4289 0.9033 -66.7779 92.6526)" cx="172.176" cy="194.484" rx="0.58" ry="0.654"/>
		<g>
			<path d="M172.487,194.337c0.199,0.486-0.372,0.757-0.621,0.294c-0.097-0.18-0.051-0.422,0.132-0.524
				C172.191,194,172.401,194.177,172.487,194.337c0.144,0.267,0.572,0.066,0.426-0.202c-0.225-0.419-0.662-0.635-1.117-0.455
				c-0.456,0.181-0.52,0.76-0.357,1.153c0.183,0.439,0.695,0.624,1.119,0.455c0.455-0.181,0.519-0.758,0.355-1.153
				C172.797,193.854,172.371,194.057,172.487,194.337z"/>
		</g>
	</g>
</g>
<g>
	<path d="M167.315,257.277c-5.101-0.494-8.185,5.408-9.108,9.621c-0.107,0.492,0.159,0.994,0.589,1.113
		c0.092,0.061,0.198,0.104,0.322,0.127c4.968,0.914,7.928-5.941,8.928-9.73C168.186,257.875,167.897,257.333,167.315,257.277z"/>
	<path d="M167.033,258.367c-0.547,0.736-1.073,1.486-1.628,2.217c-0.752-0.813-1.08-1.855-0.93-2.887
		c-0.066,0.027-0.134,0.053-0.199,0.082c-0.123,1.061,0.229,2.127,1.015,2.959c-0.117,0.152-0.238,0.303-0.359,0.455
		c0.004-0.029-0.005-0.063-0.035-0.086c-0.982-0.744-1.494-1.742-1.539-2.818c-0.06,0.039-0.121,0.078-0.181,0.119
		c0.078,1.092,0.618,2.102,1.611,2.854c0.027,0.02,0.056,0.023,0.079,0.016c-1.02,1.268-2.122,2.451-3.266,3.611
		c-0.031,0.031-0.061,0.064-0.092,0.096c-0.041,0.01-0.077,0.045-0.08,0.084c-0.321,0.334-0.635,0.68-0.946,1.023
		c-0.79-0.605-1.384-1.66-1.128-2.66c-0.086,0.191-0.167,0.383-0.245,0.572c0.036,0.863,0.564,1.699,1.244,2.227
		c-0.152,0.172-0.307,0.34-0.463,0.508c-0.002,0-0.003-0.002-0.005-0.002c-0.638-0.135-1.113-0.734-1.262-1.387
		c-0.032,0.104-0.065,0.207-0.096,0.313c0.208,0.568,0.646,1.057,1.222,1.227c-0.352,0.373-0.715,0.73-1.098,1.064
		c0.046,0.025,0.092,0.045,0.143,0.059c0.015,0.01,0.033,0.018,0.049,0.025c0.602-0.539,1.148-1.137,1.693-1.738
		c0.014-0.01,0.023-0.021,0.032-0.035c0.318-0.352,0.637-0.703,0.968-1.041c0.574,0.58,1.625,1.141,2.506,1.055
		c0.072-0.076,0.143-0.152,0.215-0.229c-0.862,0.225-2.005-0.365-2.59-0.961c0.844-0.859,1.648-1.736,2.432-2.639
		c0.571,0.607,1.45,0.59,2.271,0.406c0.035-0.072,0.071-0.143,0.105-0.213c-0.809,0.203-1.705,0.268-2.253-0.336
		c0.387-0.447,0.769-0.9,1.144-1.363c0.025-0.031,0.047-0.063,0.072-0.094c0.063,0,0.118-0.063,0.093-0.121
		c0.264-0.336,0.518-0.682,0.765-1.029c0.01,0.018,0.024,0.035,0.047,0.043c0.355,0.154,0.866,0.162,1.289,0.049
		c0.023-0.076,0.049-0.15,0.073-0.223c-0.403,0.143-0.938,0.152-1.299-0.002c-0.005-0.002-0.008-0.002-0.013-0.002
		c0.165-0.232,0.329-0.463,0.497-0.689c0.313-0.424,0.626-0.848,0.951-1.26c0.01-0.012,0.021-0.029,0.036-0.049
		c-0.038-0.047-0.083-0.09-0.133-0.127C167.502,257.744,167.267,258.054,167.033,258.367z"/>
	<g>
		<path d="M165.945,260.341c-0.096-0.074-0.202,0.08-0.106,0.154c0.415,0.318,0.9,0.402,1.403,0.381
			c0.025-0.063,0.05-0.127,0.073-0.191C166.821,260.718,166.351,260.65,165.945,260.341z"/>
		<path d="M162.528,263.691c-1.056-0.164-1.539-1.303-1.726-2.234c-0.032-0.158-0.058-0.322-0.08-0.488
			c-0.056,0.082-0.11,0.164-0.164,0.246c0.034,0.199,0.079,0.393,0.13,0.578c0.259,0.934,0.774,1.922,1.824,2.086
			C162.632,263.896,162.646,263.708,162.528,263.691z"/>
		<path d="M163.883,262.88c-0.078-0.092-0.221,0.029-0.144,0.123c0.537,0.65,1.357,0.803,2.167,0.721
			c0.037-0.064,0.074-0.131,0.111-0.197C165.227,263.632,164.405,263.515,163.883,262.88z"/>
	</g>
	<path d="M158.742,267.873c-0.218,0.305-0.451,0.598-0.637,0.924c-0.06,0.105,0.095,0.213,0.154,0.107
		c0.186-0.326,0.419-0.619,0.637-0.926C158.968,267.88,158.813,267.775,158.742,267.873z"/>
</g>
<g>
	<path d="M358.079,297.672c2.283,4.588,8.922,4.078,12.985,2.63c0.474-0.17,0.759-0.662,0.632-1.089
		c0.002-0.11-0.017-0.224-0.063-0.341c-1.856-4.698-9.239-3.577-12.982-2.419C358.125,296.618,357.818,297.149,358.079,297.672z"/>
	<path d="M359.153,297.334c0.914,0.074,1.829,0.123,2.742,0.207c-0.291,1.067-1.001,1.898-1.956,2.317
		c0.059,0.042,0.116,0.086,0.175,0.125c0.965-0.457,1.683-1.32,1.972-2.428c0.191,0.019,0.383,0.042,0.577,0.064
		c-0.027,0.012-0.05,0.037-0.054,0.075c-0.111,1.228-0.687,2.189-1.576,2.798c0.065,0.03,0.13,0.062,0.197,0.09
		c0.885-0.645,1.455-1.637,1.567-2.878c0.002-0.033-0.009-0.06-0.029-0.075c1.615,0.193,3.203,0.502,4.793,0.857
		c0.043,0.01,0.087,0.017,0.13,0.027c0.03,0.029,0.079,0.041,0.114,0.023c0.454,0.096,0.913,0.178,1.369,0.26
		c-0.095,0.991-0.675,2.054-1.659,2.366c0.208-0.028,0.413-0.062,0.615-0.096c0.713-0.487,1.142-1.378,1.229-2.234
		c0.227,0.038,0.451,0.08,0.676,0.124c0.001,0.002,0,0.003,0.001,0.005c0.224,0.612-0.033,1.333-0.508,1.805
		c0.104-0.027,0.21-0.054,0.315-0.084c0.372-0.478,0.555-1.107,0.394-1.687c0.502,0.101,0.998,0.22,1.484,0.367
		c-0.003-0.052-0.011-0.102-0.026-0.151c0-0.018-0.003-0.038-0.004-0.056c-0.776-0.225-1.572-0.371-2.371-0.516
		c-0.016-0.006-0.031-0.008-0.047-0.008c-0.467-0.084-0.934-0.168-1.396-0.27c0.188-0.795,0.107-1.982-0.433-2.685
		c-0.103-0.021-0.205-0.04-0.308-0.062c0.647,0.613,0.752,1.895,0.557,2.706c-1.176-0.261-2.346-0.479-3.526-0.665
		c0.212-0.807-0.268-1.542-0.858-2.141c-0.08,0.008-0.158,0.015-0.236,0.023c0.601,0.578,1.13,1.305,0.909,2.089
		c-0.584-0.092-1.171-0.175-1.762-0.248c-0.04-0.005-0.078-0.007-0.118-0.012c-0.033-0.053-0.116-0.067-0.152-0.015
		c-0.425-0.046-0.853-0.078-1.278-0.104c0.01-0.018,0.017-0.039,0.012-0.063c-0.058-0.383-0.321-0.82-0.642-1.119
		c-0.077,0.021-0.153,0.038-0.228,0.056c0.335,0.267,0.626,0.715,0.687,1.103c0.001,0.006,0.002,0.008,0.005,0.012
		c-0.284-0.017-0.567-0.033-0.848-0.057c-0.525-0.04-1.05-0.081-1.572-0.139c-0.015-0.002-0.036-0.003-0.061-0.005
		c-0.02,0.057-0.032,0.118-0.037,0.18C358.376,297.267,358.764,297.302,359.153,297.334z"/>
	<g>
		<path d="M361.404,297.211c-0.012,0.12,0.175,0.129,0.187,0.009c0.05-0.521-0.135-0.977-0.42-1.393
			c-0.066,0.012-0.134,0.025-0.201,0.039C361.259,296.269,361.451,296.705,361.404,297.211z"/>
		<path d="M366.055,298.335c0.42,0.982-0.29,1.995-0.981,2.647c-0.117,0.11-0.243,0.22-0.372,0.326
			c0.099,0.004,0.198,0.007,0.296,0.009c0.151-0.135,0.291-0.275,0.421-0.416c0.655-0.714,1.22-1.675,0.803-2.652
			C366.174,298.139,366.008,298.227,366.055,298.335z"/>
		<path d="M364.65,297.616c-0.037,0.115,0.142,0.172,0.18,0.057c0.267-0.8-0.038-1.576-0.536-2.22
			c-0.075,0.003-0.15,0.007-0.227,0.01C364.576,296.078,364.912,296.836,364.65,297.616z"/>
	</g>
	<path d="M371.607,299.333c0.374,0.022,0.746,0.065,1.121,0.05c0.121-0.005,0.13-0.192,0.009-0.188
		c-0.375,0.016-0.747-0.027-1.123-0.05C371.494,299.136,371.487,299.324,371.607,299.333z"/>
</g>
<g>
	<path d="M241.206,272.63c-0.51,0.049-1.02,0.111-1.52,0.211c0.113-0.357,0.328-0.754,0.37-0.848
		c0.459-1.031,0.182-2.166-0.95-2.602c-0.828-0.318-1.553,0.158-2.091,0.764c-0.286,0.322-0.536,0.674-0.798,1.018
		c-0.095,0.123-0.196,0.238-0.311,0.346c-0.331-0.592,0.01-1.285,0.168-1.879c0.155-0.584,0.133-1.148-0.161-1.68
		c-0.687-1.24-2.468-1.564-3.605-0.809c-0.261,0.172-0.45,0.418-0.596,0.701c-0.455,0.422-0.711,1.111-1.023,1.66
		c-0.235-0.447-0.551-0.857-1.031-1.197c-0.439-0.311-1.009-0.025-1.183,0.432c-0.266,0.701-0.169,1.414,0.128,2.057
		c-1.33-0.527-2.842-1.148-3.419,0.467c-0.572,1.604,0.91,2.518,2.475,2.969c-0.551,0.434-0.968,0.984-1.069,1.803
		c-0.052,0.412,0.344,0.834,0.753,0.832c0.66-0.002,1.213-0.184,1.732-0.5c-0.285,0.529-0.246,1.131-0.031,1.705
		c0.523,1.389,1.787,0.605,2.491-0.102c0.412-0.412,0.818-0.801,1.349-1.061c0.025-0.012,0.045-0.021,0.06-0.029
		c0.04,0.182,0.023,0.383,0.015,0.564c-0.049,1.053-0.304,2.135-0.022,3.176c0.247,0.912,1.137,1.512,2.054,1.17
		c0.909-0.34,1.372-1.652,1.766-2.439c0.195-0.389,0.394-0.832,0.715-1.137c0.03-0.029,0.056-0.047,0.081-0.053
		c0.07,0.195,0.135,0.393,0.193,0.592c0.002,0.035,0.003,0.066,0.004,0.092c0.055,0.842,0.189,2.355,1.438,1.939
		c0.619-0.207,1.249-0.777,1.301-1.465c0.054-0.717-0.323-1.334-0.592-1.975c-0.123-0.291-0.114-0.541-0.025-0.76
		c1.281-0.547,2.23-1.648,2.291-3.146C242.183,272.894,241.71,272.583,241.206,272.63z"/>
	<path d="M241.536,277.113c-0.785-0.32-1.589-0.59-2.398-0.842c-0.009-0.057-0.02-0.111-0.024-0.166
		c0.069-0.789,0.354-1.547,0.375-2.342c0.005-0.184-0.247-0.223-0.311-0.055c-0.281,0.748-0.451,1.578-0.382,2.383
		c-0.002,0.023-0.006,0.049-0.008,0.07c0.001,0.002,0.001,0.002,0.001,0.002c-0.195-0.059-0.39-0.117-0.585-0.176
		c-0.018-0.248-0.08-0.488-0.157-0.729c-0.055-0.283-0.133-0.553-0.155-0.668c-0.146-0.762-0.348-1.516-0.472-2.281
		c-0.029-0.188-0.292-0.146-0.313,0.023c-0.149,1.184,0.059,2.352,0.46,3.467c-0.269-0.08-0.536-0.158-0.803-0.238
		c-0.186-0.055-0.366-0.113-0.546-0.176c-0.343-0.139-0.685-0.277-1.025-0.414v-0.002c-0.253-1.475-0.446-2.961-0.792-4.42
		c-0.042-0.178-0.301-0.156-0.313,0.025c-0.095,1.373-0.025,2.914,0.585,4.178c-0.662-0.309-1.307-0.652-1.969-1.023
		c-0.07-0.039-0.143-0.08-0.213-0.121c-0.004-1.268,0.127-2.574-0.262-3.805c-0.043-0.135-0.267-0.186-0.307-0.014
		c-0.272,1.162-0.297,2.416,0.091,3.553c-0.249-0.135-0.504-0.271-0.761-0.4c-0.041-0.047-0.081-0.094-0.121-0.139
		c-0.643-1.135-1.082-2.49-2.106-3.33c-0.135-0.111-0.277,0.076-0.227,0.205c0.424,1.082,1.047,2.047,1.77,2.943
		c-0.967-0.418-1.982-0.693-3.025-0.58c-0.112,0.014-0.145,0.139-0.104,0.227c-0.045,0.08-0.03,0.193,0.081,0.229
		c0.759,0.248,1.513,0.506,2.266,0.771c-0.823,0.883-1.309,1.994-1.915,3.021c-0.087,0.146,0.116,0.34,0.24,0.201
		c0.828-0.918,1.606-1.922,2.037-3.092c0.844,0.299,1.685,0.611,2.522,0.93c-1.003,0.764-2.011,1.52-2.924,2.395
		c-0.134,0.129,0.015,0.326,0.179,0.26c1.206-0.5,2.494-1.361,3.246-2.461c0.404,0.154,0.811,0.307,1.214,0.467
		c0.31,0.15,0.624,0.291,0.945,0.42c-0.677,0.486-1.354,0.971-2.033,1.453c-0.155,0.111,0.023,0.32,0.177,0.26
		c0.794-0.316,1.859-0.775,2.334-1.533c0.134,0.047,0.268,0.094,0.405,0.137c0.053,0.021,0.106,0.043,0.159,0.064
		c-0.94,0.84-1.454,1.957-1.907,3.111c-0.068,0.172,0.188,0.279,0.284,0.133c0.435-0.652,0.961-1.248,1.436-1.873
		c0.006-0.01,0.016-0.021,0.023-0.033c0.079-0.084,0.154-0.174,0.224-0.266c0.204-0.248,0.454-0.574,0.521-0.832
		c0.422,0.174,0.842,0.352,1.262,0.527c0.012,0.73,0.094,1.449,0.342,2.139c0,0,0,0.002,0,0.004l0,0
		c0.005,0.012,0.009,0.025,0.014,0.037c0.066,0.186,0.312,0.059,0.297-0.102c-0.058-0.623-0.11-1.246-0.151-1.867
		c1.536,0.65,3.067,1.311,4.595,1.98c0.098,0.043,0.197-0.049,0.206-0.143C243.586,277.798,242.085,277.335,241.536,277.113z"/>
</g>
<g>
	<path d="M156.921,308.173c0.162-0.486,0.312-0.978,0.424-1.475c0.281,0.248,0.556,0.605,0.625,0.683
		c0.756,0.838,1.906,1.045,2.763,0.188c0.627-0.628,0.486-1.483,0.151-2.221c-0.178-0.393-0.398-0.764-0.606-1.143
		c-0.074-0.137-0.138-0.276-0.19-0.424c0.675-0.063,1.17,0.53,1.649,0.916c0.471,0.379,0.996,0.588,1.601,0.534
		c1.412-0.124,2.431-1.62,2.203-2.967c-0.051-0.308-0.199-0.581-0.399-0.829c-0.201-0.587-0.727-1.101-1.102-1.608
		c0.504-0.034,1.007-0.156,1.513-0.457c0.462-0.275,0.433-0.911,0.086-1.256c-0.533-0.527-1.224-0.729-1.932-0.718
		c1.022-1.002,2.203-2.131,0.961-3.314c-1.233-1.174-2.67-0.19-3.717,1.057c-0.173-0.68-0.507-1.284-1.213-1.709
		c-0.356-0.215-0.902-0.024-1.066,0.351c-0.266,0.604-0.324,1.183-0.246,1.786c-0.368-0.476-0.934-0.685-1.546-0.721
		c-1.481-0.086-1.278,1.388-0.918,2.317c0.209,0.544,0.399,1.073,0.421,1.663c0,0.028,0.001,0.05,0.003,0.066
		c-0.182-0.037-0.359-0.134-0.522-0.216c-0.942-0.472-1.828-1.144-2.893-1.31c-0.934-0.145-1.843,0.425-1.903,1.402
		c-0.059,0.969,0.953,1.925,1.513,2.604c0.276,0.336,0.601,0.697,0.749,1.115c0.014,0.039,0.02,0.069,0.015,0.095
		c-0.207-0.015-0.413-0.036-0.619-0.063c-0.033-0.013-0.062-0.024-0.085-0.033c-0.792-0.292-2.229-0.783-2.356,0.527
		c-0.062,0.649,0.204,1.457,0.811,1.783c0.633,0.34,1.351,0.246,2.045,0.261c0.316,0.006,0.541,0.115,0.705,0.285
		c-0.021,1.393,0.601,2.708,1.946,3.371C156.283,308.958,156.759,308.653,156.921,308.173z"/>
	<path d="M152.69,306.655c0.611-0.587,1.184-1.212,1.743-1.85c0.056,0.015,0.11,0.027,0.162,0.045
		c0.693,0.384,1.27,0.952,1.988,1.293c0.166,0.079,0.304-0.136,0.176-0.262c-0.569-0.561-1.259-1.053-2.022-1.316
		c-0.021-0.011-0.042-0.024-0.061-0.035c-0.002,0-0.002,0-0.002,0c0.133-0.154,0.265-0.309,0.398-0.463
		c0.234,0.084,0.479,0.125,0.73,0.151c0.281,0.065,0.559,0.104,0.673,0.13c0.755,0.176,1.526,0.297,2.276,0.495
		c0.183,0.049,0.252-0.208,0.106-0.297c-1.021-0.616-2.173-0.9-3.355-0.986c0.182-0.213,0.362-0.426,0.543-0.637
		c0.125-0.147,0.252-0.289,0.382-0.428c0.266-0.257,0.531-0.514,0.794-0.77l0.002,0.001c1.45,0.367,2.887,0.794,4.361,1.07
		c0.179,0.034,0.265-0.211,0.104-0.297c-1.216-0.644-2.653-1.206-4.056-1.161c0.551-0.479,1.126-0.93,1.735-1.384
		c0.064-0.048,0.131-0.098,0.197-0.146c1.16,0.512,2.301,1.161,3.583,1.306c0.141,0.016,0.278-0.169,0.137-0.274
		c-0.951-0.721-2.087-1.253-3.284-1.359c0.225-0.173,0.453-0.351,0.675-0.533c0.06-0.019,0.119-0.036,0.176-0.054
		c1.298-0.127,2.715,0.021,3.898-0.573c0.157-0.078,0.043-0.285-0.095-0.291c-1.161-0.052-2.296,0.126-3.408,0.423
		c0.774-0.714,1.438-1.53,1.758-2.529c0.033-0.108-0.068-0.188-0.165-0.187c-0.055-0.074-0.165-0.106-0.242-0.02
		c-0.535,0.593-1.077,1.178-1.625,1.758c-0.473-1.11-1.291-2.006-1.984-2.977c-0.099-0.139-0.358-0.032-0.281,0.138
		c0.502,1.13,1.104,2.248,1.999,3.117c-0.616,0.649-1.243,1.291-1.874,1.928c-0.291-1.227-0.573-2.455-1.001-3.645
		c-0.063-0.175-0.304-0.119-0.31,0.058c-0.033,1.306,0.232,2.832,0.931,3.966c-0.305,0.308-0.609,0.616-0.919,0.92
		c-0.263,0.222-0.52,0.452-0.768,0.693c-0.17-0.815-0.337-1.632-0.503-2.447c-0.039-0.188-0.302-0.109-0.309,0.056
		c-0.033,0.854-0.046,2.014,0.454,2.756c-0.097,0.103-0.194,0.206-0.289,0.314c-0.041,0.039-0.083,0.08-0.124,0.119
		c-0.386-1.2-1.198-2.123-2.069-3.006c-0.129-0.132-0.332,0.058-0.237,0.206c0.42,0.662,0.75,1.385,1.129,2.072
		c0.007,0.009,0.014,0.022,0.021,0.034c0.044,0.106,0.096,0.212,0.152,0.313c0.144,0.287,0.341,0.648,0.549,0.813
		c-0.33,0.315-0.663,0.627-0.994,0.939c-0.672-0.286-1.363-0.503-2.093-0.556c0,0-0.002-0.001-0.004-0.002l0,0
		c-0.013,0-0.026-0.002-0.039-0.003c-0.197-0.015-0.18,0.261-0.028,0.313c0.593,0.2,1.184,0.405,1.768,0.62
		c-1.218,1.14-2.443,2.271-3.675,3.395c-0.079,0.072-0.036,0.2,0.046,0.247C151.231,308.25,152.264,307.066,152.69,306.655z"/>
</g>
<g>
	<g>
		<path d="M55.47,242.685c0.652,0.357,1.305,0.713,1.956,1.072c0.157,0.088,0.009,0.326-0.148,0.238
			c-0.65-0.359-1.302-0.715-1.954-1.072C55.164,242.837,55.313,242.599,55.47,242.685L55.47,242.685z"/>
	</g>
	<g>
		<path d="M48.487,243.439c0.341,0.311,0.831,0.521,1.234,0.736c0.673,0.355,1.384,0.697,2.134,0.854
			c0.177,0.035,0.093,0.305-0.081,0.268c-0.72-0.15-1.394-0.475-2.045-0.805c-0.48-0.242-1.046-0.494-1.448-0.861
			C48.147,243.509,48.355,243.318,48.487,243.439L48.487,243.439z"/>
	</g>
	<g>
		<path d="M57.889,249.095c1.313,1.021,2.891,1.408,4.53,1.484c0.182,0.01,0.171,0.289-0.011,0.281
			c-1.683-0.08-3.318-0.479-4.668-1.525C57.598,249.224,57.745,248.986,57.889,249.095L57.889,249.095z"/>
	</g>
	<g>
		<path d="M66.361,249.251c1.019,0.717,2.136,1.256,3.26,1.785c0.163,0.078,0.013,0.314-0.148,0.238
			c-1.124-0.529-2.24-1.068-3.26-1.785C66.066,249.386,66.213,249.148,66.361,249.251L66.361,249.251z"/>
	</g>
	<g>
		<path d="M76.229,255.708c-1.696,0.451-3.475,0.049-5.193-0.029c-0.181-0.008-0.171-0.287,0.011-0.281
			c1.692,0.078,3.452,0.48,5.122,0.037C76.343,255.388,76.403,255.664,76.229,255.708L76.229,255.708z"/>
	</g>
	<g>
		<path d="M85.209,252.212c-1.383,0.912-2.984,1.211-4.611,1.34c-0.18,0.014-0.168-0.266,0.012-0.279
			c1.577-0.127,3.129-0.422,4.47-1.309C85.23,251.865,85.358,252.115,85.209,252.212L85.209,252.212z"/>
	</g>
	<g>
		<path d="M79.052,250.498c-0.725-0.018-1.443,0.109-2.106,0.4c-0.165,0.07-0.296-0.178-0.13-0.25
			c0.708-0.309,1.475-0.449,2.247-0.43C79.243,250.222,79.231,250.501,79.052,250.498L79.052,250.498z"/>
	</g>
	<g>
		<path d="M88.984,252.666c-0.558,0.824-1.26,1.473-2.124,1.967c-0.156,0.09-0.286-0.16-0.128-0.25
			c0.823-0.471,1.481-1.078,2.014-1.865C88.847,252.369,89.085,252.515,88.984,252.666L88.984,252.666z"/>
	</g>
	<g>
		<path d="M96.92,248.832c-1.676,0.834-3.448,1.182-5.315,1.109c-0.181-0.006-0.165-0.285,0.016-0.279
			c1.821,0.07,3.537-0.268,5.172-1.078C96.955,248.501,97.083,248.751,96.92,248.832L96.92,248.832z"/>
	</g>
</g>
</svg>
