<svg xmlns="http://www.w3.org/2000/svg" viewBox="131.2 132.5 136.3 135" enable-background="new 131.2 132.5 136.3 135"><g fill="#242424"><path d="M147.5 165c5 0 8.8-1.3 11.2-5 3.8-3.8 5-7.5 5-11.2 0-8.8-7.5-16.2-16.2-16.2s-16.2 7.5-16.2 16.2c-.1 8.7 7.5 16.2 16.2 16.2zM161.2 173.7H135c-2.5 0-3.8 2.5-3.8 3.8v86.2c0 2.5 2.5 3.8 3.8 3.8h26.2c2.5 0 3.8-2.5 3.8-3.8v-86.2c0-1.3-1.2-3.8-3.8-3.8zM231.2 171.2c-7.5 0-15 2.5-21.3 6.2l-1.2 1.2c0-3.8-1.2-5-5-5H180c-2.5 0-6.2 1.2-6.2 3.8v86.2c0 2.5 3.8 3.8 6.2 3.8h25c2.5 0 3.8-2.5 3.8-3.8v-47.5c0-12.5 5-18.8 15-18.8 8.8 0 10 3.7 10 12.5v52.5c0 2.5 2.5 3.8 5 3.8h25c2.5 0 3.8-2.5 3.8-3.8v-58.8c1.2-19.7-12.6-32.3-36.4-32.3z"></path></g></svg>