<?xml version="1.0" encoding="utf-8"?>
<!-- Generator: Adobe Illustrator 16.0.0, SVG Export Plug-In . SVG Version: 6.00 Build 0)  -->
<!DOCTYPE svg PUBLIC "-//W3C//DTD SVG 1.1//EN" "http://www.w3.org/Graphics/SVG/1.1/DTD/svg11.dtd">
<svg version="1.1" id="Calque_2" xmlns="http://www.w3.org/2000/svg" xmlns:xlink="http://www.w3.org/1999/xlink" viewBox="0 0 432 432" enable-background="new 0 0 432 432" xml:space="preserve">
    <style type="text/css">
        path, polygon, ellipse{
            cursor: pointer;
            fill: #fff;
            stroke: #000;
            stroke-opacity: 0.8;
        }
    </style>
<g>
	<path fill="#594A42" d="M183.36,145.257c-10.868,1.553-21.733,5.434-32.601,6.984c-31.821,3.882-60.538-0.774-92.36-3.88
		c-13.445-1.312-27.362-1.471-40.698,0.885c-6.02,1.064-12.536,2.635-17.701,6.124v22.044c2.069-1.423,4.122-2.753,6.005-4.019
		c9.889-6.652,20.768-11.519,32.081-15.005c16.205-4.99,32.382-5.036,48.631-1.37c11.099,2.505,25.13,3.508,34.5,9.658
		c5.567,3.656,21.317,19.53,10.616,24.85c-4.323,2.148-6.662-0.017-7.492-4.165c-5.741,9.381,4.141,16.396,12.981,12.534
		c5.251-2.294,8.304-8.124,8.143-13.736c-0.201-7.007-5.608-12.696-8.684-18.628c7.55-2.689,15.065-4.257,22.486-7.649
		C167.835,155.97,175.908,151.015,183.36,145.257z"/>
	<g>
		<path fill="#F7941E" d="M59.935,149.714c-0.207-0.696-0.488-1.493-0.841-2.152c-2.351,0.25-4.708,0.465-7.06,0.537
			c-0.342,1.133-0.645,2.546-0.42,3.442c0.463,2.058,2.82,2.563,2.959,0.578c0.287,1.687,2.723,0.761,2.723-1.085
			C58.516,154.281,60.446,152.455,59.935,149.714z M54.556,151.541c0.025,0.206,0.03,0.396,0.018,0.571
			C54.544,151.949,54.862,151.73,54.556,151.541z"/>
		<path fill="#F7941E" d="M45.398,100.526c0.305,0.913,0.914,2.589,1.523,3.502c0.913-0.607,1.523-2.436,1.827-3.654
			C47.835,100.069,46.313,100.223,45.398,100.526z"/>
		<path fill="#F7941E" d="M39.626,147.16c-1.085-0.183-2.126-0.39-3.13-0.628l-1.348-0.268c-0.608,0.706-1.018,2.229-1.32,3.248
			c-0.507,2.74,1.419,4.568,2.637,1.322c0,1.845,2.436,2.764,2.723,1.089c0.146,1.975,2.498,1.468,2.967-0.584
			c0.305-1.219,0-2.639-0.407-3.759L39.626,147.16z M39.188,151.911c-0.012-0.176-0.007-0.364,0.019-0.571
			C38.884,151.549,39.217,151.747,39.188,151.911z"/>
	</g>
	<path fill="#FFFFFF" d="M67.612,88.19c-2.741-4.874-7.309-5.178-12.183-3.654c-2.74,0.913-4.74,3.008-8.527,2.588
		c-6.615-0.731-17.057-9.594-21.624,0.456c-6.093,14.011,15.533,21.321,25.583,20.104C59.39,106.464,73.096,98.241,67.612,88.19z
		 M46.896,104.028c-0.608-0.914-1.22-2.59-1.522-3.503c0.914-0.305,2.436-0.458,3.35-0.151
		C48.42,101.591,47.81,103.418,46.896,104.028z"/>
	<path fill="#726658" d="M77.043,100.209c0.012,0.018,0.03,0.036,0.042,0.055c-1.498-10.472-5.458-20.145-13.036-26.461
		c-0.456-0.39-0.932-0.762-1.425-1.121c-0.963-0.712-1.979-1.37-3.051-1.974c-1.122-0.628-2.297-1.199-3.541-1.705
		c-4.872-1.828-8.223-1.372-12.791-1.372c-5.099,0.056-9.777,1.693-13.115,3.741c-0.822,0.499-1.589,1.054-2.314,1.657
		c-0.359,0.285-0.699,0.59-1.036,0.912c-6.237,5.886-8.637,15.474-9.271,25.487c10.983,7.949,9.052,22.186,2.211,32.157
		c2.448,8.931,7.944,13.065,16.307,15.124c0.184,0.042,0.366,0.091,0.549,0.126l3.131,0.631c1.784,0.296,3.673,0.533,5.672,0.724
		c2.246,0.25,4.489,0.292,6.736,0.212c2.351-0.07,4.708-0.285,7.061-0.536c0.882-0.09,1.766-0.188,2.649-0.285
		c7.31-0.914,10.051-3.959,12.183-10.964c0.153-0.5,0.305-1.012,0.443-1.523C66.681,124.587,64.335,108.053,77.043,100.209z
		 M50.861,107.684c-10.05,1.218-31.676-6.093-25.583-20.104c4.567-10.05,15.009-1.188,21.624-0.456
		c3.787,0.42,5.787-1.675,8.527-2.588c4.874-1.523,9.441-1.22,12.183,3.654C73.096,98.241,59.39,106.464,50.861,107.684z"/>
	<g>
		<path fill="#F26D75" d="M77.085,100.264c-0.012-0.019-0.03-0.037-0.042-0.055c-12.708,7.844-10.362,24.378-2.597,34.885
			c1.195,1.621,2.522,3.1,3.942,4.378C88.354,131.938,83.549,108.097,77.085,100.264z"/>
		<path fill="#F26D75" d="M71.152,69.081c-0.604-1.528-2.741-0.912-4.568,0.305c1.522-1.217,4.289-4.117,2.437-5.178
			c-3.149-1.81-5.13,4.374-6.396,8.474c0.493,0.359,0.969,0.731,1.425,1.121C67.546,72.896,72.479,72.406,71.152,69.081z"/>
		<path fill="#F26D75" d="M21.307,64.208c-1.852,1.061,0.914,3.961,2.437,5.178c-1.827-1.217-3.959-1.833-4.568-0.305
			c-1.39,3.491,4.104,3.85,7.601,4.86c0.337-0.322,0.677-0.627,1.036-0.912C26.551,68.947,24.546,62.344,21.307,64.208z"/>
		<path fill="#F26D75" d="M17.505,99.429c-0.023-0.023-0.056-0.043-0.078-0.062c-7.006,7.311-13.5,30.854-4.059,39.076
			c2.364-1.851,4.532-4.204,6.348-6.857C26.557,121.614,28.488,107.378,17.505,99.429z"/>
	</g>
	<g>
		<path fill="#594A42" d="M30.226,93.498c2.293,4.916,8.483,4.344,11.676,0.661c0.218-0.251-0.147-0.618-0.366-0.365
			c-2.979,3.437-8.701,4.076-10.862-0.557C30.532,92.936,30.086,93.198,30.226,93.498L30.226,93.498z"/>
	</g>
	<g>
		<path fill="#594A42" d="M51.852,94.412c2.145,4.936,10.05,3.358,12.02-0.914c0.14-0.301-0.307-0.563-0.446-0.261
			c-1.814,3.934-9.132,5.505-11.127,0.913C52.164,93.846,51.719,94.109,51.852,94.412L51.852,94.412z"/>
	</g>
	<g>
		<path fill="#FFFFFF" d="M35.073,121.762c0.292,0.809,0.773,1.683,1.621,2.012c1.021,0.396,1.96-0.043,2.771-0.68
			c0.261-0.205-0.107-0.568-0.366-0.366c-0.619,0.487-1.309,0.832-2.103,0.611c-0.749-0.21-1.183-1.046-1.425-1.715
			C35.46,121.313,34.96,121.447,35.073,121.762L35.073,121.762z"/>
	</g>
	<g>
		<path fill="#FFFFFF" d="M44.886,122.18c1.447,1.693,3.433,1.383,4.67-0.355c0.194-0.273-0.255-0.531-0.445-0.262
			c-1.058,1.483-2.653,1.664-3.858,0.252C45.034,121.561,44.669,121.928,44.886,122.18L44.886,122.18z"/>
	</g>
	<g>
		<path fill="#FFFFFF" d="M54.022,121.876c1.5,1.751,3.522,1.3,4.936-0.306c0.219-0.249-0.146-0.616-0.367-0.365
			c-1.231,1.4-2.881,1.847-4.202,0.305C54.171,121.256,53.807,121.624,54.022,121.876L54.022,121.876z"/>
	</g>
	<g>
		<path fill="#FFFFFF" d="M40.886,128.829c1.019,1.612,2.498,1.892,4.252,1.335c0.316-0.099,0.182-0.599-0.137-0.497
			c-1.522,0.479-2.776,0.315-3.669-1.101C41.154,128.286,40.708,128.545,40.886,128.829L40.886,128.829z"/>
	</g>
	<g>
		<path fill="#FFFFFF" d="M50.978,129.186c1.543,1.431,3.482,1.063,4.934-0.305c0.244-0.229-0.123-0.595-0.365-0.366
			c-1.235,1.163-2.869,1.541-4.203,0.305C51.099,128.593,50.731,128.958,50.978,129.186L50.978,129.186z"/>
	</g>
	<g>
		<path fill="#FFFFFF" d="M47.017,133.754c1.492,1.358,3.407,0.857,4.883-0.265c0.263-0.198,0.005-0.648-0.261-0.446
			c-1.267,0.963-2.936,1.547-4.255,0.346C47.138,133.164,46.771,133.528,47.017,133.754L47.017,133.754z"/>
	</g>
	<g>
		<g>
			<g>
				<path fill="#F15A29" d="M124.444,150.64c-1.473,3.22-2.049,7.127-1.354,10.617c0.067,0.326,0.565,0.188,0.501-0.139
					c-0.668-3.347-0.113-7.128,1.3-10.217C125.027,150.6,124.582,150.336,124.444,150.64L124.444,150.64z"/>
			</g>
			<g>
				<path fill="#F15A29" d="M123.151,155.238c0.989,1.738,2.206,3.316,2.781,5.261c0.094,0.319,0.594,0.184,0.499-0.137
					c-0.587-1.988-1.821-3.606-2.833-5.386C123.433,154.688,122.986,154.947,123.151,155.238L123.151,155.238z"/>
			</g>
			<g>
				<path fill="#F15A29" d="M123.307,154.858c-0.866,0.216-1.457,1.101-1.931,1.792c-0.649,0.945-1.202,2.032-1.505,3.143
					c-0.088,0.323,0.412,0.459,0.499,0.137c0.252-0.924,0.696-1.781,1.186-2.601c0.413-0.691,1.042-1.761,1.889-1.972
					C123.769,155.275,123.631,154.776,123.307,154.858L123.307,154.858z"/>
			</g>
			<g>
				<path fill="#F15A29" d="M141.654,152.026c-0.348,1.292,0.123,2.662,0.474,3.902c0.448,1.579,0.86,3.275,1.825,4.633
					c0.191,0.269,0.641,0.011,0.446-0.263c-0.769-1.081-1.141-2.371-1.518-3.628c-0.41-1.372-1.114-3.07-0.729-4.507
					C142.239,151.842,141.74,151.705,141.654,152.026L141.654,152.026z"/>
			</g>
			<g>
				<path fill="#F15A29" d="M142.315,156.094c-1.309,1.399-1.955,3.486-1.42,5.353c0.093,0.319,0.592,0.184,0.5-0.138
					c-0.486-1.688,0.103-3.583,1.285-4.847C142.909,156.217,142.543,155.852,142.315,156.094L142.315,156.094z"/>
			</g>
			<g>
				<path fill="#F15A29" d="M142.498,156.536c1.23,0,2.473-0.021,3.692,0.165c0.327,0.05,0.468-0.448,0.139-0.498
					c-1.27-0.192-2.551-0.186-3.831-0.184C142.164,156.02,142.164,156.536,142.498,156.536L142.498,156.536z"/>
			</g>
		</g>
		<path fill="#C2B59B" d="M142.806,116.635c-6.79,1.292-13.32,1.848-20.015,1.05c-3.901-0.467-7.857-1.395-11.95-2.902
			c-2.273-0.758-4.83-1.61-6.915-2.747c-1.136-7.955-1.23-16.384-1.23-24.528c0-2.084-0.758-9.85,2.274-10.228
			c3.786-0.569,6.059,7.387,8.521,9.281c2.842,2.083,8.714,0.756,12.122,0.568c3.788-0.19,7.389-0.38,11.175-0.568
			c3.6-0.19,8.715,0.756,11.556-1.706c2.272-1.894,4.166-10.795,6.819-10.985c5.492-0.188,5.871,20.457,6.249,24.056
			c0.379,3.22,1.799,8.428,1.042,11.459c-0.946,3.22-6.723,4.072-9.944,5.02C149.192,115.262,145.972,116.028,142.806,116.635z"/>
		<path fill="#F26D75" d="M162.454,109.384c0,10.417,1.23,21.687-2.178,31.727c-1.045-0.609-2.064-1.265-3.05-1.966
			c-7.58-5.361-13.202-13.229-14.376-22.279l-0.045-0.23c3.166-0.606,6.387-1.373,9.704-2.231
			C155.731,113.456,161.508,112.604,162.454,109.384z"/>
		<path fill="#F26D75" d="M122.791,117.685l-0.019,0.158c-1.644,7.777-5.413,14.115-10.936,19.514
			c-1.476,1.443-3.07,2.819-4.785,4.133c-2.652-4.167-2.652-12.122-3.03-17.047c-0.379-3.978-0.474-8.808-0.096-12.407
			c2.085,1.137,4.642,1.989,6.915,2.747C114.934,116.29,118.89,117.218,122.791,117.685z"/>
		<path fill="#9B8579" d="M124.647,151.19c-6.023-2.507-10.558-7.743-12.793-13.814l-0.018-0.02
			c5.522-5.398,9.292-11.736,10.936-19.514l0.019-0.158c6.694,0.798,13.225,0.242,20.015-1.05l0.045,0.23
			c1.174,9.051,6.796,16.918,14.376,22.279l-0.046,0.067c-2.141,4.822-6.005,8.824-10.694,11.226
			c-6.58,3.37-14.667,3.605-21.517,0.886C124.859,151.281,124.754,151.236,124.647,151.19z"/>
		<path fill="#F15A29" d="M127.318,110.047c1.849-0.568,7.577,0.188,10.038,0c-0.568,2.462-3.219,4.925-4.924,6.818
			C130.729,114.782,127.558,112.839,127.318,110.047z"/>
		<g>
			<path fill="#FFFFFF" d="M125.81,120.471c-1.027,1.117-1.194,2.685-1.581,4.093c-0.09,0.32,0.411,0.458,0.498,0.137
				c0.359-1.305,0.497-2.828,1.449-3.863C126.401,120.592,126.036,120.225,125.81,120.471L125.81,120.471z"/>
		</g>
		<g>
			<path fill="#FFFFFF" d="M121.981,126.773c-0.274,0.6-0.153,1.231,0.189,1.777c0.177,0.281,0.623,0.021,0.446-0.262
				c-0.233-0.373-0.382-0.83-0.189-1.254C122.565,126.733,122.12,126.471,121.981,126.773L121.981,126.773z"/>
		</g>
		<g>
			<path fill="#FFFFFF" d="M126.501,128.541c-0.221,0.726-0.171,1.487,0,2.221c0.076,0.323,0.574,0.187,0.499-0.138
				c-0.15-0.646-0.195-1.307,0-1.947C127.097,128.357,126.598,128.222,126.501,128.541L126.501,128.541z"/>
		</g>
		<g>
			<path fill="#FFFFFF" d="M126.49,135.617c0.086,0.835,0.141,1.728,0.39,2.531c0.099,0.318,0.598,0.182,0.499-0.137
				c-0.235-0.764-0.29-1.603-0.37-2.395C126.976,135.288,126.458,135.285,126.49,135.617L126.49,135.617z"/>
		</g>
		<g>
			<path fill="#FFFFFF" d="M132.741,133.724c-0.01,0.638-0.169,1.224-0.367,1.825c-0.107,0.317,0.394,0.451,0.497,0.138
				c0.215-0.645,0.378-1.281,0.39-1.963C133.266,133.39,132.747,133.39,132.741,133.724L132.741,133.724z"/>
		</g>
		<g>
			<path fill="#FFFFFF" d="M130.289,138.39c-0.224,0.782,0.063,1.58,0.406,2.283c0.145,0.3,0.591,0.038,0.445-0.263
				c-0.278-0.573-0.536-1.241-0.353-1.883C130.88,138.205,130.38,138.069,130.289,138.39L130.289,138.39z"/>
		</g>
		<g>
			<path fill="#FFFFFF" d="M133.5,139.406c-0.014,0.762-0.176,1.51-0.189,2.271c-0.006,0.335,0.511,0.333,0.518,0
				c0.014-0.762,0.175-1.51,0.189-2.271C134.023,139.072,133.507,139.072,133.5,139.406L133.5,139.406z"/>
		</g>
		<g>
			<path fill="#FFFFFF" d="M137.702,140.979c-0.207,0.439-0.257,0.928-0.405,1.388c-0.102,0.318,0.399,0.455,0.5,0.137
				c0.133-0.411,0.167-0.87,0.353-1.263C138.29,140.941,137.845,140.678,137.702,140.979L137.702,140.979z"/>
		</g>
		<g>
			<path fill="#FFFFFF" d="M139.001,133.275c-0.219,0.832-0.575,1.618-0.757,2.463c-0.069,0.325,0.429,0.464,0.5,0.138
				c0.181-0.846,0.536-1.631,0.758-2.463C139.586,133.091,139.088,132.953,139.001,133.275L139.001,133.275z"/>
		</g>
		<g>
			<path fill="#FFFFFF" d="M136.16,129.487c-0.231,0.775-0.18,1.63,0,2.41c0.076,0.325,0.574,0.188,0.5-0.138
				c-0.159-0.691-0.207-1.447,0-2.135C136.756,129.305,136.257,129.169,136.16,129.487L136.16,129.487z"/>
		</g>
		<g>
			<path fill="#FFFFFF" d="M129.902,130.125c0,0.631,0,1.263,0,1.895c0,0.333,0.517,0.333,0.517,0c0-0.632,0-1.264,0-1.895
				C130.419,129.79,129.902,129.79,129.902,130.125L129.902,130.125z"/>
		</g>
		<g>
			<path fill="#FFFFFF" d="M131.642,126.206c-0.19,0.408-0.225,0.821-0.225,1.267c0,0.334,0.517,0.334,0.517,0
				c0-0.345,0.007-0.686,0.154-1.006C132.227,126.166,131.781,125.903,131.642,126.206L131.642,126.206z"/>
		</g>
		<g>
			<path fill="#FFFFFF" d="M131.236,121.291c0.167,0.727,0.181,1.461,0.181,2.204c0,0.333,0.517,0.333,0.517,0
				c0-0.79-0.021-1.569-0.198-2.343C131.659,120.827,131.161,120.966,131.236,121.291L131.236,121.291z"/>
		</g>
		<g>
			<path fill="#FFFFFF" d="M128.042,123.744c-0.392,0.876-0.215,1.694,0.189,2.533c0.145,0.3,0.591,0.038,0.447-0.261
				c-0.313-0.651-0.498-1.322-0.189-2.014C128.624,123.703,128.179,123.439,128.042,123.744L128.042,123.744z"/>
		</g>
		<g>
			<path fill="#FFFFFF" d="M137.099,121.033c0.014,0.448,0.181,0.874,0.19,1.324c0.005,0.334,0.523,0.336,0.517,0
				c-0.009-0.45-0.177-0.877-0.189-1.324C137.607,120.699,137.09,120.698,137.099,121.033L137.099,121.033z"/>
		</g>
		<g>
			<path fill="#FFFFFF" d="M138.804,124.063c0.012,1.267,0.175,2.524,0.188,3.788c0.005,0.334,0.521,0.334,0.519,0
				c-0.015-1.264-0.178-2.521-0.19-3.788C139.318,123.729,138.801,123.729,138.804,124.063L138.804,124.063z"/>
		</g>
		<g>
			<path fill="#FFFFFF" d="M140.164,120.405c0.601,0.839,0.924,1.829,1.302,2.78c0.119,0.307,0.621,0.173,0.498-0.139
				c-0.393-0.989-0.728-2.029-1.354-2.901C140.42,119.875,139.97,120.133,140.164,120.405L140.164,120.405z"/>
		</g>
		<g>
			<path fill="#FFFFFF" d="M141.654,128.351c-0.243,0.811-0.198,1.696-0.2,2.531c0,0.333,0.52,0.333,0.52,0
				c0-0.788-0.049-1.629,0.179-2.393C142.249,128.169,141.75,128.031,141.654,128.351L141.654,128.351z"/>
		</g>
		<g>
			<path fill="#FFFFFF" d="M143.927,128.489c0.198,1.197,0.371,2.4,0.568,3.598c0.055,0.329,0.553,0.188,0.499-0.137
				c-0.197-1.198-0.371-2.4-0.567-3.6C144.372,128.021,143.873,128.161,143.927,128.489L143.927,128.489z"/>
		</g>
		<g>
			<path fill="#FFFFFF" d="M145.82,135.928c-0.204,0.816-0.399,1.636-0.568,2.462c-0.065,0.325,0.433,0.464,0.5,0.138
				c0.167-0.827,0.364-1.646,0.568-2.463C146.4,135.741,145.901,135.604,145.82,135.928L145.82,135.928z"/>
		</g>
		<g>
			<path fill="#FFFFFF" d="M141.834,136.563c-0.012,0.807-0.186,1.605-0.534,2.332c-0.142,0.3,0.305,0.563,0.447,0.262
				c0.39-0.813,0.59-1.693,0.605-2.594C142.356,136.23,141.839,136.231,141.834,136.563L141.834,136.563z"/>
		</g>
		<g>
			<path fill="#FFFFFF" d="M149.257,136.434c-0.435,0.663-0.783,1.376-1.137,2.084c-0.148,0.297,0.297,0.56,0.446,0.261
				c0.354-0.708,0.704-1.421,1.137-2.083C149.887,136.414,149.438,136.155,149.257,136.434L149.257,136.434z"/>
		</g>
		<g>
			<path fill="#FFFFFF" d="M145.279,140.79c-0.422,0.666-0.592,1.433-0.604,2.214c-0.006,0.335,0.512,0.334,0.517,0
				c0.01-0.694,0.158-1.36,0.533-1.953C145.903,140.769,145.457,140.509,145.279,140.79L145.279,140.79z"/>
		</g>
		<g>
			<path fill="#FFFFFF" d="M147.715,143.883c-0.208,0.625-0.406,1.254-0.568,1.895c-0.082,0.323,0.419,0.461,0.5,0.138
				c0.161-0.641,0.358-1.269,0.568-1.895C148.32,143.703,147.819,143.567,147.715,143.883L147.715,143.883z"/>
		</g>
		<g>
			<path fill="#FFFFFF" d="M152.819,140.921c-0.012,0.627-0.196,1.234-0.532,1.764c-0.179,0.282,0.268,0.542,0.446,0.261
				c0.384-0.604,0.591-1.311,0.604-2.024C153.344,140.588,152.827,140.588,152.819,140.921L152.819,140.921z"/>
		</g>
		<g>
			<path fill="#FFFFFF" d="M115.894,140.231c0.229,0.683,0.508,1.295,1.015,1.819c0.23,0.241,0.596-0.125,0.364-0.365
				c-0.443-0.462-0.68-0.992-0.88-1.592C116.288,139.78,115.788,139.914,115.894,140.231L115.894,140.231z"/>
		</g>
		<g>
			<path fill="#FFFFFF" d="M118.725,135.806c0.003,0.513,0.097,0.938,0.456,1.321c0.229,0.242,0.594-0.123,0.365-0.367
				c-0.264-0.28-0.303-0.583-0.303-0.954C119.243,135.473,118.725,135.473,118.725,135.806L118.725,135.806z"/>
		</g>
		<g>
			<path fill="#FFFFFF" d="M122.514,131.262c0,0.946,0,1.894,0,2.84c0,0.333,0.519,0.333,0.519,0c0-0.946,0-1.894,0-2.84
				C123.032,130.928,122.514,130.928,122.514,131.262L122.514,131.262z"/>
		</g>
		<g>
			<path fill="#FFFFFF" d="M124.064,139.465c-0.374,0.561-0.746,1.126-0.975,1.767c-0.108,0.315,0.391,0.449,0.501,0.138
				c0.211-0.596,0.572-1.121,0.92-1.644C124.697,139.447,124.249,139.188,124.064,139.465L124.064,139.465z"/>
		</g>
		<g>
			<path fill="#FFFFFF" d="M126.683,142.247c0,0.915,0.029,1.819,0.197,2.721c0.062,0.327,0.561,0.188,0.499-0.138
				c-0.159-0.855-0.181-1.716-0.181-2.583C127.198,141.912,126.681,141.912,126.683,142.247L126.683,142.247z"/>
		</g>
		<g>
			<path fill="#FFFFFF" d="M122.704,146.033c0.013,0.975,0.226,1.979,0.793,2.784c0.189,0.271,0.639,0.013,0.446-0.262
				c-0.517-0.734-0.711-1.633-0.723-2.522C123.218,145.701,122.698,145.701,122.704,146.033L122.704,146.033z"/>
		</g>
		<g>
			<path fill="#FFFFFF" d="M129.522,148.119c0,0.701,0.036,1.41,0.415,2.023c0.174,0.284,0.622,0.024,0.445-0.262
				c-0.33-0.534-0.343-1.151-0.344-1.762C130.039,147.786,129.522,147.786,129.522,148.119L129.522,148.119z"/>
		</g>
		<g>
			<path fill="#FFFFFF" d="M135.394,144.709c0,0.379,0,0.757,0,1.137c0,0.334,0.518,0.334,0.518,0c0-0.38,0-0.758,0-1.137
				C135.911,144.375,135.394,144.375,135.394,144.709L135.394,144.709z"/>
		</g>
		<g>
			<path fill="#FFFFFF" d="M138.055,148.239c-0.224,0.864-0.585,1.676-1.11,2.4c-0.195,0.271,0.253,0.528,0.447,0.262
				c0.55-0.757,0.927-1.621,1.163-2.524C138.639,148.053,138.14,147.916,138.055,148.239L138.055,148.239z"/>
		</g>
		<g>
			<path fill="#FFFFFF" d="M140.896,143.642c0.202,0.803,0.423,1.587,0.785,2.335c0.145,0.3,0.59,0.037,0.447-0.262
				c-0.342-0.706-0.544-1.453-0.732-2.21C141.314,143.18,140.815,143.317,140.896,143.642L140.896,143.642z"/>
		</g>
		<g>
			<path fill="#FFFFFF" d="M144.295,146.603c0,0.558-0.013,1.101-0.179,1.637c-0.1,0.319,0.4,0.455,0.499,0.138
				c0.18-0.578,0.199-1.174,0.199-1.774C144.814,146.269,144.295,146.269,144.295,146.603L144.295,146.603z"/>
		</g>
		<g>
			<path fill="#594A42" d="M143.604,100.197c6.621,0.375,2.178,8.902-1.609,5.305C140.101,103.986,140.931,100.046,143.604,100.197z
				 M143.131,103.416c0.063,0,0-0.059-0.104-0.132c-0.112-0.269-0.227-0.258-0.343-0.17c-0.103-0.029-0.175-0.022-0.137,0.08
				c-0.005,0-0.008,0.003-0.008,0.012c-0.009-0.009-0.011-0.006-0.004,0.006c-0.046,0.092-0.114,0.444,0.026,0.584
				c0,0,0.368,0,0.512-0.099c0.033,0,0.057-0.026,0.057-0.09V103.416z"/>
			<path fill="#594A42" d="M118.89,100.197c6.622,0.375,2.179,8.902-1.61,5.305C115.386,103.986,116.216,100.046,118.89,100.197z
				 M118.416,103.416c0.065,0,0-0.059-0.103-0.132c-0.113-0.269-0.227-0.258-0.344-0.17c-0.102-0.029-0.175-0.022-0.137,0.08
				c-0.005,0-0.008,0.003-0.008,0.012c-0.008-0.009-0.011-0.006-0.004,0.006c-0.045,0.092-0.115,0.444,0.026,0.584
				c0,0,0.367,0,0.512-0.099c0.034,0,0.057-0.026,0.057-0.09V103.416z"/>
			<path fill="#FFFFFF" d="M152.223,98.304c3.03,9.092-10.796,14.773-14.775,5.492c-1.894-4.167,0.705-11.421,6.631-11.175
				C148.154,92.791,151.087,94.895,152.223,98.304z M141.995,105.502c3.787,3.598,8.23-4.93,1.609-5.305
				C140.931,100.046,140.101,103.986,141.995,105.502z"/>
			<path fill="#FFFFFF" d="M127.509,98.304c3.031,9.092-10.797,14.773-14.774,5.492c-1.894-4.167,0.704-11.421,6.628-11.175
				C123.438,92.791,126.372,94.895,127.509,98.304z M117.279,105.502c3.789,3.598,8.232-4.93,1.61-5.305
				C116.216,100.046,115.386,103.986,117.279,105.502z"/>
			<circle fill="#FFFFFF" cx="118.062" cy="103.493" r="0.648"/>
			<circle fill="#FFFFFF" cx="142.884" cy="103.493" r="0.647"/>
		</g>
	</g>
	<g>
		<g>
			<path fill="#F15A29" d="M103.445,68.516c-0.493,0.739-0.985,1.029-1.232,2.261c0.247-0.983,0-2.216,0-3.201
				c-0.739,0.246-1.724,0.246-2.463,0.493c0.246-0.247,2.463-1.479,2.217-1.232"/>
			<g>
				<path fill="#F15A29" d="M103.668,68.646c-0.51,0.732-1,1.299-1.205,2.199c-0.074,0.326-0.565,0.188-0.5-0.138
					c0.216-1.036,0.011-2.087-0.009-3.133c0.109,0.083,0.218,0.166,0.327,0.249c-0.808,0.237-1.654,0.256-2.462,0.493
					c-0.242,0.071-0.449-0.259-0.253-0.433c0.374-0.329,0.849-0.563,1.279-0.805c0.336-0.188,0.742-0.488,1.136-0.535
					c0.122-0.014,0.209,0.094,0.248,0.191c0.003,0.002,0.004,0.006,0.005,0.008c0.037,0.09-0.013,0.186-0.066,0.253
					c-0.007,0.007-0.013,0.015-0.018,0.021c-0.208,0.263-0.572-0.105-0.367-0.364c-0.017,0.072-0.033,0.146-0.052,0.22
					c0.083,0.062,0.166,0.126,0.25,0.189c-0.297,0.035-0.744,0.391-1.01,0.54c-0.345,0.194-0.74,0.384-1.039,0.648
					c-0.084-0.145-0.168-0.289-0.252-0.434c0.809-0.236,1.656-0.256,2.463-0.492c0.165-0.048,0.325,0.084,0.327,0.249
					c0.021,1.097,0.217,2.183-0.008,3.271c-0.167-0.046-0.333-0.092-0.5-0.138c0.217-0.949,0.717-1.546,1.259-2.322
					C103.41,68.114,103.859,68.372,103.668,68.646L103.668,68.646z"/>
			</g>
		</g>
		<path fill="#E8B9BC" d="M135.341,55.876c-1.231,8.128-0.122,29.187-14.408,24.262c-6.157-2.218-6.65-10.1-11.822-12.069
			c-2.217-0.74-4.435,1.23-6.158,0.246c-1.479-0.986-1.479-5.172-0.739-6.897c2.216-4.187,5.911-0.739,8.621,1.479
			c2.956,2.462,5.172,3.939,9.113,3.939C126.844,66.836,133.862,62.279,135.341,55.876z"/>
		<path fill="#F26D75" d="M127.212,55.999c-1.971,2.955-11.944,9.113-8.988,12.809c2.955,3.939,8.127-1.479,8.867-4.435
			C127.829,61.664,127.705,58.708,127.212,55.999z"/>
		<g>
			<path fill="#F15A29" d="M121.428,79.959c-1.118,3.712-1.866,8.414-6.092,9.786c-0.318,0.104-0.453-0.396-0.138-0.498
				c4.009-1.302,4.675-5.921,5.73-9.426C121.025,79.502,121.524,79.639,121.428,79.959L121.428,79.959z"/>
		</g>
		<g>
			<path fill="#F15A29" d="M124.64,80.63c0.01,3.648,0.365,7.073,2.88,9.914c0.22,0.249-0.145,0.616-0.366,0.367
				c-2.609-2.952-3.023-6.481-3.031-10.281C124.121,80.296,124.64,80.296,124.64,80.63L124.64,80.63z"/>
		</g>
		<g>
			<ellipse cx="104.611" cy="63.506" rx="0.636" ry="0.716"/>
			<g>
				<path d="M104.234,63.506c0.028,0.575,0.724,0.575,0.752,0c0.013-0.223-0.147-0.441-0.376-0.458
					C104.367,63.033,104.244,63.308,104.234,63.506c-0.017,0.332-0.535,0.334-0.518,0c0.026-0.52,0.357-0.938,0.894-0.975
					c0.536-0.034,0.87,0.508,0.895,0.975c0.025,0.52-0.396,0.942-0.895,0.975c-0.535,0.035-0.869-0.508-0.894-0.975
					C103.699,63.172,104.218,63.175,104.234,63.506z"/>
			</g>
		</g>
	</g>
	<g>
		<path fill="#F59AA2" d="M56.006,204.984c-1.964-1.718-6.138-3.19-8.1-1.227c-5.891,5.891,5.398,7.854,8.836,7.854
			c-5.155,3.682-1.719,12.026,3.436,7.608C64.842,215.293,59.195,207.685,56.006,204.984"/>
		<path fill="#F59AA2" d="M60.603,201.798c-0.539-2.553,0.219-6.912,2.892-7.664c8.019-2.256,4.208,8.551,2.527,11.55
			c5.731-2.695,11.329,4.384,4.955,6.718C65.27,214.547,61.396,205.901,60.603,201.798"/>
		<path d="M57.57,201.923c1.936,2.295,13.044,18.132,7.597,14.19l-8.6-13.115C56.567,202.998,55.563,200.777,57.57,201.923z"/>
	</g>
	<g>
		<g>
			<path fill="#F59AA2" d="M206.985,207.405c-0.053,0.054-0.097,0.11-0.149,0.163c0.038-0.008,0.075-0.005,0.114-0.01
				c-0.118,0.543-0.158,0.878-0.119,0.879c3.188,0.111,5.854,2.708,8.943,0.5c2.149-1.536,1.248-4.256-0.292-5.822
				c1.224-2.03,0.416-5.364-2.562-4.968C209.567,198.59,207.555,204.886,206.985,207.405z"/>
		</g>
		<g>
			<path fill="#F59AA2" d="M195.25,203.563c0.59,1.32,2.248,2.207,3.579,2.563c1.684,0.451,5.589-0.052,6.505,1.786
				c0.024,0.046,0.253,0.602,0.282,0.533c0.458-1.067,0.55-4.867-0.063-6.888c-0.447-1.478-1.031-3.413-2.27-4.445
				c-2.596-2.167-4.387,0.035-4.753,2.513C196.332,198.527,194.196,201.197,195.25,203.563z"/>
		</g>
		<g>
			<path fill="#F59AA2" d="M201.961,216.944c2.108-1.46,3.795-6.85,3.525-7.78c-0.007-0.027-5.602-0.768-7.241,0.923
				c-1.395,1.438-1.115,2.768,0.587,3.398C198.275,215.407,199.599,218.579,201.961,216.944z"/>
		</g>
		<g>
			<path fill="#F59AA2" d="M209.901,217.828c0.14-2.928-1.935-5.437-3.196-7.894c-0.018-0.036,0.055,2.681-1.241,5.324
				c-0.533,1.088-1.287,2.306-1.279,3.561c0.007,1.733,0.839,3.503,2.813,3.265C209.037,221.838,209.819,219.541,209.901,217.828z"
				/>
		</g>
		<g>
			<path fill="#F59AA2" d="M209.505,212.591c0.471,1.007,1.284,2.291,2.029,3.111c0.91,0.999,1.982,2.221,3.458,0.734
				c1.256-1.265-0.021-2.933-0.858-3.784c-1.729-1.762-4.072-2.39-6.503-2.547C207.403,210.09,208.503,210.46,209.505,212.591z"/>
		</g>
	</g>
	<g>
		<path fill="#F4A525" d="M238.729,138.25c-1.265-0.842-2.948-7.161-2.107-10.109c3.37-10.951,12.218,0.422,6.74,8.003
			c7.161-11.794,18.536,8.846,2.948,5.476c12.638,3.792-7.086,14.631-7.086,2.415C224.149,148.935,228.595,129.306,238.729,138.25"
			/>
		<circle fill="#FFFFFF" cx="241.817" cy="140.018" r="1.925"/>
	</g>
	<g>
		<path fill="#F26D75" d="M196.466,131.981c-0.118-0.622-0.455-1.144-1.025-1.43c-0.623-0.311-1.566-0.12-2.015,0.412
			c-0.017,0.007-0.031,0.01-0.046,0.021c-1.198,0.813-2.043,2.782-1.731,4.205c0.358,1.631,2.411,1.961,3.518,0.896
			C196.198,135.094,196.733,133.389,196.466,131.981z"/>
	</g>
	<g>
		<path fill="#F15E27" d="M185.869,139.664c0.669,0.925,1.741,0.375,2.341-0.297c0.666-0.744,1.158-1.89,0.993-2.901
			c-0.19-1.151-1.569-1.73-2.567-1.196C185.01,135.71,185.013,138.479,185.869,139.664z"/>
	</g>
	<g>
		<path fill="#F15E27" d="M192.621,143.945c0.772,0.068,1.578-0.313,2.229-0.686c0.596-0.34,1.348-0.896,1.436-1.635
			c0.133-1.119-1.329-1.478-2.154-1.259c-0.031,0.01-0.055,0.031-0.076,0.056c-0.23,0.063-0.449,0.188-0.642,0.324
			c-0.571,0.409-1.077,1.037-1.407,1.656C191.664,143.045,191.769,143.867,192.621,143.945z"/>
	</g>
	<g>
		<path fill="#F26D75" d="M183.944,140.903c0.543-1.225,0.163-2.843-0.547-3.914c-0.697-1.054-2.733-1.807-3.527-0.413
			c-0.002,0.002-0.002,0.003-0.003,0.004c-1.231,1.353-0.758,3.605,0.634,4.729C181.625,142.217,183.288,142.383,183.944,140.903z"
			/>
	</g>
	<g>
		<path fill="#F26D75" d="M187.432,143.006c-1.048-0.384-2.41,0.579-2.087,1.816c0.286,1.097,1.2,2.018,2.38,1.567
			c0.822-0.313,1.534-1.231,1.514-2.124C189.214,143.287,188.281,142.926,187.432,143.006z"/>
	</g>
	<g>
		<path fill="#F15E27" d="M186.533,150.858c-0.333-1.393-2.127-2.175-3.304-1.193c-0.057,0.048-0.093,0.112-0.112,0.181
			c-0.947,0.539-1.594,1.578-1.214,2.732c0.451,1.37,2.122,2.413,3.455,1.589C186.385,153.533,186.8,151.977,186.533,150.858z"/>
	</g>
	<g>
		<path fill="#F4A525" d="M193.958,148.741c-0.353-1.218-2.889-2.082-3.705-0.325c-0.278,0.597-0.298,1.276-0.053,1.87
			c0.444,1.068,1.943,1.769,2.965,1.097C193.991,150.84,194.217,149.635,193.958,148.741z"/>
	</g>
	<g>
		<path fill="#F4A525" d="M176.646,141.828c-0.34-1.013-1.571-2.182-2.712-1.859c-0.079,0.022-0.126,0.094-0.136,0.171
			c-0.338,0.161-0.657,0.338-0.794,0.722c-0.169,0.477,0.077,0.982,0.331,1.374c0.508,0.786,1.627,2.181,2.738,1.768
			C176.925,143.688,176.878,142.521,176.646,141.828z"/>
	</g>
	<g>
		<path fill="#F26D75" d="M111.924,174.07c-0.631,0.064-1.179,0.354-1.512,0.9c-0.363,0.594-0.253,1.549,0.238,2.043
			c0.005,0.015,0.007,0.031,0.017,0.046c0.709,1.263,2.597,2.273,4.042,2.083c1.654-0.218,2.159-2.234,1.194-3.426
			C115.003,174.602,113.348,173.924,111.924,174.07z"/>
	</g>
	<g>
		<path fill="#F15E27" d="M118.674,185.283c0.979-0.587,0.522-1.703-0.096-2.357c-0.685-0.727-1.784-1.314-2.805-1.235
			c-1.165,0.091-1.859,1.414-1.412,2.455C114.661,185.803,117.421,186.036,118.674,185.283z"/>
	</g>
	<g>
		<path fill="#F15E27" d="M123.514,178.922c0.138-0.764-0.176-1.599-0.491-2.281c-0.287-0.622-0.776-1.419-1.506-1.568
			c-1.104-0.228-1.586,1.199-1.438,2.037c0.006,0.033,0.024,0.059,0.047,0.082c0.045,0.235,0.149,0.464,0.27,0.668
			c0.357,0.603,0.941,1.16,1.529,1.543C122.538,179.799,123.365,179.765,123.514,178.922z"/>
	</g>
	<g>
		<path fill="#F26D75" d="M119.745,187.308c-1.175-0.646-2.818-0.405-3.947,0.211c-1.109,0.603-2.033,2.569-0.713,3.48
			c0.002,0,0.004,0,0.005,0.001c1.241,1.344,3.526,1.064,4.765-0.227C120.856,189.729,121.162,188.088,119.745,187.308z"/>
	</g>
	<g>
		<path fill="#F26D75" d="M122.138,184.012c-0.472,1.012,0.37,2.45,1.631,2.234c1.117-0.19,2.112-1.023,1.767-2.238
			c-0.243-0.845-1.098-1.633-1.99-1.688C122.567,182.26,122.129,183.158,122.138,184.012z"/>
	</g>
	<g>
		<path fill="#F15E27" d="M129.883,185.578c-1.415,0.212-2.347,1.934-1.469,3.189c0.042,0.06,0.102,0.102,0.169,0.126
			c0.456,0.99,1.437,1.724,2.619,1.442c1.403-0.332,2.586-1.908,1.878-3.306C132.536,185.951,131.021,185.408,129.883,185.578z"/>
	</g>
	<g>
		<path fill="#F4A525" d="M128.408,177.999c-1.243,0.247-2.321,2.7-0.64,3.664c0.57,0.327,1.246,0.405,1.858,0.21
			c1.104-0.349,1.928-1.785,1.347-2.858C130.502,178.145,129.32,177.817,128.408,177.999z"/>
	</g>
	<g>
		<path fill="#F4A525" d="M120.042,194.659c-1.037,0.254-2.306,1.38-2.083,2.542c0.017,0.082,0.082,0.134,0.158,0.149
			c0.133,0.353,0.282,0.685,0.653,0.854c0.458,0.209,0.984,0.007,1.396-0.213c0.826-0.44,2.311-1.437,1.994-2.58
			C121.919,194.538,120.753,194.485,120.042,194.659z"/>
	</g>
	<g>
		<path fill="#F4A525" d="M117.026,173.487c-0.042,0.308-0.013,0.667,0.198,0.912c0.419,0.491,1.159,0.321,1.663,0.071
			c0.584-0.289,1.149-0.739,1.438-1.335c0.319-0.653-0.063-1.269-0.714-1.481c-0.486-0.159-1.61-0.385-2.289,0.746
			C117.118,172.742,117.075,173.127,117.026,173.487z"/>
	</g>
</g>
<g>
	<path fill="#594A42" d="M242.701,296.086c11.219,1.604,22.437,5.609,33.656,7.212c32.852,4.007,62.5-0.802,95.353-4.006
		c13.88-1.354,28.247-1.52,42.017,0.913c6.213,1.099,12.939,2.72,18.273,6.322v22.757c-2.136-1.468-4.256-2.841-6.198-4.148
		c-10.211-6.867-21.441-11.892-33.121-15.49c-16.729-5.153-33.432-5.199-50.206-1.414c-11.458,2.585-25.944,3.62-35.618,9.971
		c-5.747,3.774-22.008,20.161-10.958,25.654c4.462,2.218,6.876-0.017,7.734-4.301c5.926,9.688-4.276,16.929-13.401,12.941
		c-5.421-2.369-8.573-8.387-8.407-14.181c0.206-7.235,5.79-13.109,8.965-19.232c-7.794-2.776-15.554-4.396-23.215-7.896
		C258.729,307.146,250.396,302.03,242.701,296.086z"/>
	<g>
		<g>
			<path fill="#F7941E" d="M372.847,302.051c0,1.906,2.516,2.861,2.813,1.12c0.145,2.05,2.577,1.527,3.055-0.597
				c0.233-0.926-0.081-2.385-0.433-3.555c-2.429-0.074-4.861-0.296-7.288-0.555c-0.365,0.68-0.654,1.504-0.87,2.223
				C369.596,303.517,371.591,305.403,372.847,302.051z M375.659,303.164c-0.014-0.183-0.007-0.376,0.018-0.59
				C375.359,302.77,375.689,302.995,375.659,303.164z"/>
			<path fill="#F7941E" d="M385.131,249.906c-0.315,0.943-0.942,2.674-1.572,3.617c-0.942-0.63-1.573-2.516-1.886-3.773
				C382.616,249.436,384.188,249.593,385.131,249.906z"/>
			<path fill="#F7941E" d="M388.902,298.485c-0.421,1.157-0.736,2.623-0.421,3.881c0.483,2.118,2.911,2.641,3.063,0.604
				c0.294,1.729,2.811,0.779,2.811-1.126c1.258,3.353,3.244,1.466,2.723-1.363c-0.314-1.052-0.735-2.624-1.364-3.353l-1.39,0.276
				c-1.038,0.244-2.114,0.459-3.232,0.647L388.902,298.485z M391.524,302.366c0.026,0.214,0.031,0.408,0.02,0.59
				C391.513,302.788,391.857,302.583,391.524,302.366z"/>
		</g>
		<path fill="#FFFFFF" d="M379.491,257.295c10.377,1.258,32.702-6.289,26.412-20.753c-4.717-10.376-15.495-1.227-22.324-0.471
			c-3.911,0.434-5.976-1.73-8.805-2.674c-5.029-1.571-9.746-1.257-12.578,3.773C356.537,247.548,370.688,256.037,379.491,257.295z
			 M381.698,249.748c0.943-0.314,2.516-0.156,3.459,0.158c-0.313,0.942-0.943,2.671-1.572,3.614
			C382.642,252.893,382.013,251.006,381.698,249.748z"/>
		<path fill="#726658" d="M355.142,285.596c0.144,0.526,0.302,1.055,0.459,1.57c2.201,7.232,5.031,10.376,12.577,11.319
			c0.912,0.102,1.824,0.202,2.736,0.295c2.427,0.259,4.86,0.479,7.288,0.554c2.32,0.081,4.635,0.039,6.955-0.22
			c2.063-0.195,4.013-0.44,5.854-0.747l3.232-0.649c0.189-0.038,0.378-0.087,0.567-0.131c8.633-2.126,14.307-6.396,16.834-15.615
			c-7.063-10.295-9.056-24.991,2.282-33.199c-0.653-10.338-3.132-20.235-9.571-26.31c-0.346-0.335-0.698-0.648-1.068-0.945
			c-0.748-0.621-1.54-1.193-2.391-1.709c-3.445-2.114-8.275-3.805-13.539-3.862c-4.717,0-8.177-0.472-13.206,1.416
			c-1.283,0.522-2.497,1.112-3.654,1.761c-1.106,0.623-2.157,1.301-3.151,2.037c-0.509,0.371-0.999,0.756-1.471,1.157
			c-7.823,6.521-11.91,16.508-13.458,27.318c0.013-0.02,0.031-0.039,0.045-0.057C365.58,257.678,363.16,274.747,355.142,285.596z
			 M362.196,237.171c2.832-5.03,7.549-5.345,12.578-3.773c2.829,0.943,4.894,3.107,8.805,2.674
			c6.829-0.756,17.607-9.905,22.324,0.471c6.29,14.464-16.035,22.011-26.412,20.753
			C370.688,256.037,356.537,247.548,362.196,237.171z"/>
		<g>
			<path fill="#639CD4" d="M352.418,249.636c0.013-0.02,0.031-0.039,0.045-0.057c13.117,8.099,10.697,25.168,2.679,36.017
				c-1.231,1.672-2.603,3.199-4.07,4.52C340.784,282.336,345.747,257.723,352.418,249.636z"/>
			<path fill="#639CD4" d="M358.543,217.443c0.624-1.578,2.83-0.942,4.717,0.314c-1.572-1.257-4.428-4.25-2.516-5.344
				c3.252-1.869,5.296,4.515,6.603,8.746c-0.509,0.371-0.999,0.756-1.471,1.157C362.268,221.381,357.173,220.876,358.543,217.443z"
				/>
			<path fill="#639CD4" d="M410.003,212.414c1.912,1.094-0.943,4.087-2.516,5.344c1.887-1.257,4.089-1.893,4.717-0.314
				c1.435,3.604-4.238,3.975-7.848,5.02c-0.346-0.335-0.698-0.648-1.068-0.945C404.589,217.306,406.658,210.489,410.003,212.414z"/>
			<path fill="#639CD4" d="M413.928,248.772c0.025-0.023,0.057-0.043,0.081-0.063c7.232,7.548,13.937,31.854,4.189,40.343
				c-2.441-1.911-4.679-4.34-6.553-7.081C404.583,271.677,402.59,256.98,413.928,248.772z"/>
		</g>
		<g>
			<path fill="#594A42" d="M400.796,242.651c-2.367,5.075-8.758,4.484-12.054,0.682c-0.226-0.258,0.151-0.638,0.377-0.377
				c3.075,3.548,8.984,4.21,11.214-0.574C400.479,242.07,400.94,242.342,400.796,242.651L400.796,242.651z"/>
		</g>
		<g>
			<path fill="#594A42" d="M378.471,243.594c-2.215,5.097-10.378,3.468-12.41-0.942c-0.144-0.311,0.317-0.581,0.462-0.27
				c1.87,4.061,9.428,5.685,11.486,0.943C378.146,243.01,378.606,243.281,378.471,243.594L378.471,243.594z"/>
		</g>
		<g>
			<path fill="#FFFFFF" d="M395.791,271.831c-0.302,0.834-0.799,1.735-1.674,2.076c-1.054,0.409-2.022-0.045-2.86-0.702
				c-0.271-0.211,0.11-0.588,0.378-0.377c0.639,0.502,1.351,0.859,2.171,0.63c0.773-0.216,1.222-1.079,1.47-1.77
				C395.393,271.366,395.908,271.506,395.791,271.831L395.791,271.831z"/>
		</g>
		<g>
			<path fill="#FFFFFF" d="M385.66,272.262c-1.493,1.748-3.542,1.43-4.822-0.368c-0.2-0.281,0.266-0.547,0.463-0.269
				c1.09,1.531,2.736,1.717,3.981,0.26C385.507,271.621,385.884,272.001,385.66,272.262L385.66,272.262z"/>
		</g>
		<g>
			<path fill="#FFFFFF" d="M376.228,271.947c-1.549,1.809-3.636,1.343-5.094-0.314c-0.228-0.257,0.149-0.638,0.377-0.378
				c1.272,1.446,2.975,1.907,4.339,0.315C376.074,271.309,376.45,271.688,376.228,271.947L376.228,271.947z"/>
		</g>
		<g>
			<path fill="#FFFFFF" d="M389.789,279.126c-1.05,1.667-2.577,1.953-4.389,1.379c-0.326-0.103-0.187-0.619,0.143-0.515
				c1.569,0.497,2.863,0.328,3.786-1.134C389.512,278.566,389.975,278.833,389.789,279.126L389.789,279.126z"/>
		</g>
		<g>
			<path fill="#FFFFFF" d="M379.371,279.495c-1.593,1.477-3.595,1.095-5.095-0.315c-0.25-0.236,0.129-0.613,0.379-0.378
				c1.275,1.201,2.963,1.592,4.339,0.314C379.247,278.883,379.624,279.26,379.371,279.495L379.371,279.495z"/>
		</g>
		<g>
			<path fill="#FFFFFF" d="M383.459,284.211c-1.539,1.402-3.518,0.886-5.04-0.273c-0.27-0.204-0.004-0.669,0.27-0.461
				c1.308,0.994,3.029,1.598,4.393,0.356C383.335,283.602,383.714,283.979,383.459,284.211L383.459,284.211z"/>
		</g>
	</g>
	<g>
		<g>
			<g>
				<path fill="#F15A29" d="M303.525,301.643c1.521,3.325,2.115,7.358,1.396,10.961c-0.067,0.339-0.581,0.194-0.516-0.143
					c0.69-3.455,0.118-7.358-1.342-10.549C302.922,301.603,303.383,301.33,303.525,301.643L303.525,301.643z"/>
			</g>
			<g>
				<path fill="#F15A29" d="M304.86,306.39c-1.021,1.796-2.278,3.425-2.871,5.433c-0.098,0.33-0.613,0.189-0.517-0.143
					c0.607-2.051,1.882-3.724,2.926-5.56C304.569,305.822,305.03,306.091,304.86,306.39L304.86,306.39z"/>
			</g>
			<g>
				<path fill="#F15A29" d="M304.7,305.998c0.894,0.224,1.503,1.139,1.993,1.852c0.67,0.976,1.24,2.097,1.554,3.243
					c0.09,0.333-0.426,0.475-0.516,0.143c-0.26-0.955-0.718-1.84-1.223-2.686c-0.428-0.714-1.078-1.817-1.951-2.037
					C304.224,306.43,304.366,305.914,304.7,305.998L304.7,305.998z"/>
			</g>
			<g>
				<path fill="#F15A29" d="M285.758,303.075c0.357,1.332-0.126,2.749-0.49,4.028c-0.462,1.63-0.888,3.381-1.883,4.782
					c-0.198,0.277-0.662,0.012-0.462-0.27c0.795-1.116,1.179-2.448,1.566-3.747c0.425-1.416,1.152-3.169,0.753-4.652
					C285.153,302.884,285.669,302.743,285.758,303.075L285.758,303.075z"/>
			</g>
			<g>
				<path fill="#F15A29" d="M285.075,307.275c1.352,1.442,2.02,3.598,1.466,5.523c-0.095,0.331-0.61,0.189-0.516-0.142
					c0.501-1.741-0.105-3.698-1.328-5.004C284.463,307.401,284.839,307.022,285.075,307.275L285.075,307.275z"/>
			</g>
			<g>
				<path fill="#F15A29" d="M284.886,307.731c-1.271-0.001-2.552-0.021-3.812,0.17c-0.337,0.053-0.482-0.463-0.142-0.515
					c1.309-0.199,2.633-0.191,3.953-0.189C285.231,307.197,285.231,307.731,284.886,307.731L284.886,307.731z"/>
			</g>
		</g>
		<path fill="#C2B59B" d="M274.55,264.232c-3.323-0.977-9.288-1.856-10.266-5.182c-0.782-3.129,0.685-8.506,1.074-11.83
			c0.393-3.715,0.783-25.029,6.453-24.834c2.738,0.196,4.693,9.386,7.04,11.342c2.934,2.542,8.214,1.564,11.93,1.76
			c3.911,0.195,7.625,0.391,11.537,0.587c3.52,0.195,9.581,1.563,12.515-0.587c2.542-1.956,4.889-10.169,8.799-9.582
			c3.13,0.391,2.347,8.408,2.347,10.561c0,8.407-0.098,17.109-1.271,25.322c-2.15,1.174-4.791,2.054-7.139,2.836
			c-4.227,1.557-8.31,2.515-12.339,2.996c-6.91,0.824-13.651,0.25-20.66-1.084C281.3,265.911,277.976,265.12,274.55,264.232z"/>
		<path fill="#639CD4" d="M264.284,259.051c0,10.756-1.271,22.39,2.248,32.755c1.08-0.63,2.132-1.308,3.149-2.03
			c7.824-5.534,13.629-13.656,14.841-23l0.048-0.238c-3.271-0.626-6.595-1.417-10.021-2.305
			C271.227,263.256,265.262,262.376,264.284,259.051z"/>
		<path fill="#639CD4" d="M305.23,267.621l0.021,0.163c1.697,8.029,5.589,14.572,11.292,20.146c1.521,1.49,3.167,2.91,4.938,4.266
			c2.737-4.301,2.737-12.515,3.129-17.599c0.391-4.105,0.488-9.093,0.098-12.808c-2.15,1.174-4.791,2.054-7.139,2.836
			C313.343,266.182,309.26,267.14,305.23,267.621z"/>
		<path fill="#9B8579" d="M303.315,302.212c6.218-2.588,10.899-7.993,13.207-14.262l0.021-0.021
			c-5.703-5.573-9.595-12.116-11.292-20.146l-0.021-0.163c-6.91,0.824-13.651,0.25-20.66-1.084l-0.048,0.238
			c-1.212,9.344-7.017,17.466-14.841,23l0.046,0.07c2.21,4.979,6.199,9.109,11.041,11.588c6.793,3.481,15.143,3.723,22.215,0.916
			C303.097,302.307,303.206,302.259,303.315,302.212z"/>
		<path fill="#F15A29" d="M300.559,259.734c-1.91-0.585-7.822,0.196-10.364,0c0.587,2.543,3.323,5.086,5.083,7.041
			C297.039,264.625,300.312,262.618,300.559,259.734z"/>
		<g>
			<path fill="#FFFFFF" d="M302.114,270.498c1.063,1.152,1.235,2.771,1.634,4.225c0.092,0.332-0.424,0.473-0.514,0.141
				c-0.372-1.345-0.513-2.92-1.497-3.988C301.505,270.622,301.882,270.242,302.114,270.498L302.114,270.498z"/>
		</g>
		<g>
			<path fill="#FFFFFF" d="M306.068,277.005c0.283,0.619,0.158,1.271-0.196,1.834c-0.183,0.291-0.645,0.022-0.461-0.27
				c0.242-0.386,0.396-0.857,0.196-1.294C305.465,276.963,305.926,276.69,306.068,277.005L306.068,277.005z"/>
		</g>
		<g>
			<path fill="#FFFFFF" d="M301.401,278.828c0.229,0.75,0.177,1.538,0,2.293c-0.078,0.335-0.593,0.192-0.515-0.142
				c0.156-0.665,0.202-1.349,0-2.009C300.786,278.64,301.303,278.499,301.401,278.828L301.401,278.828z"/>
		</g>
		<g>
			<path fill="#FFFFFF" d="M301.413,286.135c-0.089,0.861-0.146,1.781-0.402,2.612c-0.102,0.328-0.617,0.188-0.515-0.143
				c0.243-0.786,0.3-1.652,0.382-2.47C300.912,285.795,301.446,285.792,301.413,286.135L301.413,286.135z"/>
		</g>
		<g>
			<path fill="#FFFFFF" d="M294.958,284.179c0.012,0.659,0.176,1.264,0.382,1.886c0.109,0.327-0.407,0.467-0.515,0.142
				c-0.222-0.667-0.391-1.322-0.4-2.027C294.419,283.834,294.952,283.836,294.958,284.179L294.958,284.179z"/>
		</g>
		<g>
			<path fill="#FFFFFF" d="M297.491,288.997c0.231,0.809-0.067,1.63-0.419,2.356c-0.149,0.31-0.61,0.039-0.46-0.27
				c0.287-0.594,0.553-1.283,0.364-1.944C296.882,288.808,297.396,288.665,297.491,288.997L297.491,288.997z"/>
		</g>
		<g>
			<path fill="#FFFFFF" d="M294.177,290.046c0.015,0.786,0.181,1.56,0.195,2.346c0.006,0.346-0.526,0.345-0.534,0
				c-0.015-0.786-0.182-1.56-0.195-2.346C293.636,289.701,294.171,289.701,294.177,290.046L294.177,290.046z"/>
		</g>
		<g>
			<path fill="#FFFFFF" d="M289.839,291.67c0.213,0.454,0.266,0.958,0.418,1.433c0.104,0.329-0.411,0.469-0.516,0.143
				c-0.137-0.426-0.173-0.897-0.364-1.306C289.23,291.631,289.69,291.359,289.839,291.67L289.839,291.67z"/>
		</g>
		<g>
			<path fill="#FFFFFF" d="M288.496,283.718c0.228,0.858,0.595,1.669,0.781,2.541c0.073,0.336-0.442,0.479-0.516,0.143
				c-0.185-0.873-0.552-1.684-0.781-2.542C287.892,283.525,288.409,283.385,288.496,283.718L288.496,283.718z"/>
		</g>
		<g>
			<path fill="#FFFFFF" d="M291.43,279.806c0.239,0.801,0.186,1.683,0,2.488c-0.078,0.336-0.593,0.194-0.516-0.143
				c0.165-0.713,0.214-1.493,0-2.203C290.814,279.617,291.33,279.476,291.43,279.806L291.43,279.806z"/>
		</g>
		<g>
			<path fill="#FFFFFF" d="M297.892,280.465c0,0.65,0,1.303,0,1.954c0,0.345-0.534,0.345-0.534,0c0-0.651,0-1.304,0-1.954
				C297.357,280.119,297.892,280.119,297.892,280.465L297.892,280.465z"/>
		</g>
		<g>
			<path fill="#FFFFFF" d="M296.095,276.418c0.195,0.422,0.232,0.849,0.232,1.309c0,0.344-0.533,0.344-0.533,0
				c0-0.356-0.007-0.71-0.16-1.038C295.49,276.377,295.95,276.105,296.095,276.418L296.095,276.418z"/>
		</g>
		<g>
			<path fill="#FFFFFF" d="M296.513,271.344c-0.172,0.752-0.186,1.509-0.186,2.275c0,0.345-0.533,0.345-0.533,0
				c0.001-0.814,0.02-1.62,0.205-2.418C296.076,270.866,296.591,271.009,296.513,271.344L296.513,271.344z"/>
		</g>
		<g>
			<path fill="#FFFFFF" d="M299.811,273.876c0.405,0.905,0.222,1.75-0.194,2.616c-0.149,0.31-0.61,0.039-0.461-0.27
				c0.321-0.672,0.513-1.364,0.193-2.077C299.21,273.835,299.669,273.563,299.811,273.876L299.811,273.876z"/>
		</g>
		<g>
			<path fill="#FFFFFF" d="M290.462,271.078c-0.015,0.463-0.188,0.902-0.197,1.367c-0.006,0.345-0.54,0.347-0.533,0
				c0.009-0.467,0.182-0.906,0.194-1.367C289.936,270.733,290.471,270.732,290.462,271.078L290.462,271.078z"/>
		</g>
		<g>
			<path fill="#FFFFFF" d="M288.7,274.205c-0.012,1.308-0.18,2.606-0.194,3.912c-0.005,0.344-0.538,0.346-0.534,0
				c0.015-1.306,0.184-2.604,0.195-3.912C288.171,273.862,288.704,273.862,288.7,274.205L288.7,274.205z"/>
		</g>
		<g>
			<path fill="#FFFFFF" d="M287.295,270.43c-0.618,0.866-0.953,1.889-1.341,2.869c-0.125,0.316-0.642,0.18-0.516-0.143
				c0.405-1.021,0.751-2.094,1.396-2.995C287.033,269.883,287.497,270.148,287.295,270.43L287.295,270.43z"/>
		</g>
		<g>
			<path fill="#FFFFFF" d="M285.758,278.633c0.25,0.837,0.205,1.75,0.205,2.613c0,0.344-0.533,0.344-0.533,0
				c0-0.815,0.05-1.684-0.188-2.471C285.145,278.444,285.659,278.303,285.758,278.633L285.758,278.633z"/>
		</g>
		<g>
			<path fill="#FFFFFF" d="M283.411,278.775c-0.203,1.236-0.382,2.479-0.586,3.715c-0.057,0.34-0.57,0.194-0.516-0.142
				c0.204-1.237,0.383-2.479,0.587-3.716C282.952,278.293,283.468,278.438,283.411,278.775L283.411,278.775z"/>
		</g>
		<g>
			<path fill="#FFFFFF" d="M281.455,286.455c0.212,0.843,0.415,1.688,0.589,2.542c0.067,0.336-0.447,0.479-0.517,0.143
				c-0.172-0.854-0.375-1.7-0.585-2.543C280.857,286.262,281.374,286.121,281.455,286.455L281.455,286.455z"/>
		</g>
		<g>
			<path fill="#FFFFFF" d="M285.572,287.112c0.012,0.832,0.191,1.655,0.55,2.407c0.147,0.309-0.313,0.58-0.461,0.27
				c-0.401-0.839-0.609-1.748-0.623-2.677C285.033,286.767,285.566,286.77,285.572,287.112L285.572,287.112z"/>
		</g>
		<g>
			<path fill="#FFFFFF" d="M277.909,286.977c0.447,0.685,0.809,1.421,1.174,2.151c0.152,0.308-0.308,0.577-0.462,0.27
				c-0.366-0.73-0.726-1.466-1.173-2.15C277.26,286.957,277.722,286.69,277.909,286.977L277.909,286.977z"/>
		</g>
		<g>
			<path fill="#FFFFFF" d="M282.017,291.475c0.435,0.688,0.609,1.479,0.623,2.286c0.005,0.344-0.53,0.344-0.536,0
				c-0.01-0.718-0.162-1.404-0.548-2.017C281.371,291.451,281.832,291.185,282.017,291.475L282.017,291.475z"/>
		</g>
		<g>
			<path fill="#FFFFFF" d="M279.501,294.668c0.216,0.646,0.42,1.295,0.587,1.955c0.083,0.334-0.432,0.476-0.517,0.143
				c-0.166-0.662-0.37-1.31-0.586-1.957C278.877,294.481,279.393,294.342,279.501,294.668L279.501,294.668z"/>
		</g>
		<g>
			<path fill="#FFFFFF" d="M274.231,291.609c0.011,0.647,0.202,1.274,0.55,1.821c0.184,0.291-0.278,0.559-0.461,0.269
				c-0.396-0.621-0.609-1.352-0.624-2.09C273.69,291.266,274.224,291.266,274.231,291.609L274.231,291.609z"/>
		</g>
		<g>
			<path fill="#FFFFFF" d="M312.353,290.898c-0.234,0.705-0.524,1.336-1.046,1.878c-0.239,0.248-0.616-0.13-0.378-0.378
				c0.459-0.477,0.702-1.024,0.909-1.643C311.947,290.432,312.462,290.57,312.353,290.898L312.353,290.898z"/>
		</g>
		<g>
			<path fill="#FFFFFF" d="M309.429,286.329c0,0.529-0.098,0.968-0.469,1.363c-0.236,0.251-0.613-0.127-0.379-0.379
				c0.273-0.289,0.313-0.601,0.314-0.984C308.896,285.986,309.429,285.986,309.429,286.329L309.429,286.329z"/>
		</g>
		<g>
			<path fill="#FFFFFF" d="M305.519,281.637c0,0.979,0,1.956,0,2.934c0,0.344-0.535,0.344-0.535,0c0-0.978,0-1.955,0-2.934
				C304.983,281.293,305.519,281.293,305.519,281.637L305.519,281.637z"/>
		</g>
		<g>
			<path fill="#FFFFFF" d="M303.916,290.106c0.388,0.58,0.772,1.163,1.006,1.824c0.115,0.325-0.401,0.464-0.516,0.142
				c-0.217-0.615-0.591-1.157-0.951-1.696C303.265,290.088,303.728,289.821,303.916,290.106L303.916,290.106z"/>
		</g>
		<g>
			<path fill="#FFFFFF" d="M301.216,292.979c0,0.943-0.031,1.879-0.205,2.81c-0.063,0.337-0.577,0.193-0.515-0.143
				c0.163-0.884,0.186-1.771,0.186-2.667C300.682,292.634,301.216,292.634,301.216,292.979L301.216,292.979z"/>
		</g>
		<g>
			<path fill="#FFFFFF" d="M305.323,296.89c-0.014,1.003-0.234,2.04-0.82,2.872c-0.195,0.279-0.659,0.014-0.461-0.27
				c0.534-0.759,0.734-1.688,0.746-2.603C304.793,296.545,305.326,296.545,305.323,296.89L305.323,296.89z"/>
		</g>
		<g>
			<path fill="#FFFFFF" d="M298.283,299.041c0,0.725-0.038,1.456-0.428,2.09c-0.18,0.292-0.642,0.024-0.462-0.27
				c0.341-0.553,0.354-1.189,0.354-1.82C297.748,298.696,298.283,298.696,298.283,299.041L298.283,299.041z"/>
		</g>
		<g>
			<path fill="#FFFFFF" d="M292.222,295.521c0,0.392,0,0.783,0,1.174c0,0.345-0.534,0.345-0.534,0c0-0.391,0-0.782,0-1.174
				C291.688,295.176,292.222,295.176,292.222,295.521L292.222,295.521z"/>
		</g>
		<g>
			<path fill="#FFFFFF" d="M289.474,299.166c0.232,0.891,0.604,1.729,1.147,2.477c0.201,0.28-0.262,0.546-0.461,0.27
				c-0.568-0.78-0.958-1.673-1.202-2.605C288.871,298.972,289.387,298.832,289.474,299.166L289.474,299.166z"/>
		</g>
		<g>
			<path fill="#FFFFFF" d="M286.541,294.419c-0.207,0.829-0.438,1.64-0.81,2.41c-0.149,0.31-0.61,0.039-0.461-0.27
				c0.351-0.729,0.559-1.501,0.755-2.283C286.11,293.942,286.623,294.084,286.541,294.419L286.541,294.419z"/>
		</g>
		<g>
			<path fill="#FFFFFF" d="M283.03,297.475c0.001,0.576,0.015,1.137,0.188,1.691c0.101,0.328-0.416,0.469-0.518,0.141
				c-0.185-0.597-0.203-1.21-0.203-1.832C282.497,297.131,283.03,297.131,283.03,297.475L283.03,297.475z"/>
		</g>
		<g>
			<path fill="#594A42" d="M285.407,255.043c-3.912,3.715-8.498-5.088-1.663-5.475C286.507,249.41,287.362,253.479,285.407,255.043z
				 M284.234,253.088c0,0.065,0.023,0.094,0.058,0.094c0.148,0.101,0.529,0.101,0.529,0.101c0.144-0.144,0.073-0.508,0.025-0.603
				c0.008-0.011,0.005-0.016-0.003-0.008c0-0.008-0.005-0.011-0.008-0.011c0.04-0.105-0.036-0.113-0.141-0.083
				c-0.121-0.09-0.239-0.101-0.356,0.177c-0.104,0.074-0.172,0.137-0.104,0.137V253.088z"/>
			<path fill="#594A42" d="M310.922,255.043c-3.911,3.715-8.499-5.088-1.662-5.475C312.021,249.41,312.878,253.479,310.922,255.043z
				 M309.748,253.088c0,0.065,0.023,0.094,0.06,0.094c0.147,0.101,0.526,0.101,0.526,0.101c0.146-0.144,0.076-0.508,0.028-0.603
				c0.008-0.011,0.004-0.016-0.004-0.008c0-0.008-0.003-0.011-0.008-0.011c0.039-0.105-0.035-0.113-0.141-0.083
				c-0.121-0.09-0.239-0.101-0.355,0.177c-0.106,0.074-0.172,0.137-0.106,0.137V253.088z"/>
			<path fill="#FFFFFF" d="M283.255,241.746c6.117-0.254,8.8,7.235,6.845,11.536c-4.105,9.582-18.381,3.716-15.251-5.671
				C276.021,244.093,279.049,241.922,283.255,241.746z M283.744,249.568c-6.835,0.387-2.249,9.189,1.663,5.475
				C287.362,253.479,286.507,249.41,283.744,249.568z"/>
			<path fill="#FFFFFF" d="M308.771,241.746c6.116-0.254,8.798,7.235,6.843,11.536c-4.105,9.582-18.381,3.716-15.252-5.671
				C301.535,244.093,304.563,241.922,308.771,241.746z M309.26,249.568c-6.837,0.387-2.249,9.189,1.662,5.475
				C312.878,253.479,312.021,249.41,309.26,249.568z"/>
			<circle fill="#FFFFFF" cx="310.115" cy="252.97" r="0.668"/>
			<circle fill="#FFFFFF" cx="284.488" cy="252.97" r="0.668"/>
		</g>
	</g>
	<g>
		<g>
			<path fill="#F15A29" d="M325.205,216.859c0.509,0.764,1.017,1.063,1.271,2.335c-0.255-1.017,0-2.289,0-3.306
				c0.762,0.254,1.78,0.254,2.543,0.509c-0.254-0.255-2.543-1.525-2.288-1.271"/>
			<g>
				<path fill="#F15A29" d="M324.974,216.994c0.528,0.757,1.034,1.342,1.244,2.271c0.077,0.337,0.585,0.193,0.518-0.142
					c-0.222-1.07-0.013-2.156,0.009-3.234c-0.112,0.087-0.226,0.172-0.339,0.258c0.833,0.243,1.71,0.264,2.543,0.509
					c0.249,0.073,0.463-0.268,0.26-0.447c-0.385-0.339-0.875-0.58-1.32-0.831c-0.347-0.193-0.765-0.503-1.172-0.551
					c-0.126-0.016-0.215,0.095-0.257,0.196c-0.003,0.003-0.004,0.007-0.004,0.009c-0.038,0.092,0.014,0.191,0.068,0.261
					c0.006,0.007,0.013,0.016,0.019,0.022c0.215,0.271,0.59-0.111,0.378-0.377c0.018,0.074,0.036,0.15,0.055,0.228
					c-0.087,0.064-0.172,0.129-0.259,0.194c0.307,0.038,0.767,0.404,1.042,0.559c0.356,0.2,0.764,0.396,1.072,0.669
					c0.088-0.149,0.174-0.298,0.261-0.446c-0.834-0.245-1.71-0.266-2.543-0.51c-0.17-0.05-0.335,0.088-0.338,0.258
					c-0.021,1.133-0.224,2.253,0.008,3.376c0.174-0.047,0.344-0.095,0.518-0.142c-0.226-0.98-0.741-1.596-1.3-2.396
					C325.24,216.445,324.777,216.712,324.974,216.994L324.974,216.994z"/>
			</g>
		</g>
		<path fill="#B3CCE5" d="M292.276,203.811c1.271,8.392,0.127,30.133,14.875,25.047c6.357-2.288,6.865-10.426,12.206-12.46
			c2.287-0.764,4.576,1.271,6.356,0.253c1.524-1.017,1.524-5.34,0.763-7.118c-2.289-4.323-6.103-0.763-8.9,1.526
			c-3.051,2.541-5.34,4.067-9.407,4.067C301.047,215.126,293.802,210.421,292.276,203.811z"/>
		<path fill="#639CD4" d="M300.667,203.938c2.034,3.052,12.332,9.408,9.282,13.223c-3.052,4.068-8.392-1.526-9.155-4.577
			C300.03,209.786,300.158,206.734,300.667,203.938z"/>
		<g>
			<path fill="#F15A29" d="M306.64,228.674c1.154,3.832,1.927,8.687,6.29,10.104c0.327,0.107,0.466-0.408,0.142-0.516
				c-4.139-1.344-4.828-6.112-5.917-9.73C307.056,228.202,306.539,228.344,306.64,228.674L306.64,228.674z"/>
		</g>
		<g>
			<path fill="#F15A29" d="M303.324,229.365c-0.009,3.768-0.378,7.303-2.974,10.236c-0.227,0.258,0.149,0.636,0.378,0.379
				c2.694-3.047,3.12-6.691,3.13-10.615C303.858,229.021,303.325,229.021,303.324,229.365L303.324,229.365z"/>
		</g>
		<g>
			<ellipse cx="324.001" cy="211.688" rx="0.655" ry="0.739"/>
			<g>
				<path d="M324.391,211.688c-0.031,0.594-0.749,0.594-0.777,0c-0.012-0.229,0.152-0.456,0.388-0.472
					C324.252,211.199,324.381,211.482,324.391,211.688c0.017,0.343,0.552,0.345,0.533,0c-0.027-0.537-0.368-0.969-0.923-1.005
					c-0.552-0.036-0.898,0.522-0.923,1.005c-0.027,0.537,0.409,0.974,0.923,1.007c0.553,0.035,0.897-0.524,0.923-1.007
					C324.942,211.344,324.407,211.346,324.391,211.688z"/>
			</g>
		</g>
	</g>
	<g>
		<g>
			<path fill="#639CD4" d="M174.604,283.098c-0.189-0.097-1.286-0.715-3.755-1.539c-0.379-0.126-0.979-0.885-0.493-1.288
				c0.618-0.519,1.659-0.093,2.216,0.304c0.848,0.604,1.529,1.599,2.072,2.472C174.66,283.071,174.637,283.116,174.604,283.098z"/>
		</g>
		<g>
			<path fill="#639CD4" d="M173.933,288.847c0.032-0.017,0.058,0.032,0.029,0.054c-0.853,0.631-0.631,1.617-0.618,2.522
				c0.009,0.648-0.17,1.655-0.943,1.787c-0.816,0.14-0.763-1.149-0.626-1.573C172.297,290.02,173.527,289.053,173.933,288.847z"/>
		</g>
		<g>
			<path fill="#639CD4" d="M167.513,298.708c0.829,0.037,1.016-0.848,0.945-1.518c-0.109-1.068-0.637-2.052-0.659-3.113
				c0.358-0.845,0.804-1.601,1.349-2.268c0.007,0.157,0.019,0.313,0.043,0.465c-0.458,0.661-0.722,1.722-0.391,2.438
				c0.215,0.46,0.574,1.228,1.224,1.049c0.647-0.178,0.685-1.018,0.536-1.552c-0.123-0.449-0.381-0.857-0.656-1.229
				c-0.453-0.61-0.511-1.268-0.544-1.419c0.854-0.96,1.937-1.723,3.313-2.276c1.535-0.616,3.719-1.312,5.703-1.307
				c-0.016,0.007-0.031,0.014-0.047,0.022c-1.045,0.116-2.133,1.022-2.509,1.961c-0.195,0.494-0.491,1.547,0.21,1.797
				c0.704,0.253,1.618-0.609,1.615-1.223c-0.011-2.062,1.048-2.463,1.018-2.508c0.026-0.014,0.046-0.032,0.074-0.045
				c0.401,0.019,0.792,0.072,1.166,0.161c1.211,0.863,2.457,1.638,3.613,2.332c2.437,1.469,5.176,3.019,6.87,5.378
				c-0.192-0.142-0.391-0.269-0.595-0.377c0.023-0.039,0.027-0.091-0.003-0.127c-0.784-0.946-2.374-1.737-3.631-1.521
				c-0.558,0.095-2.079,0.37-1.678,1.279c0.394,0.888,1.876,0.582,2.573,0.498c1.316-0.16,2.525-0.033,3.604,0.641
				c1.675,2.574,3.199,6.139,2.089,9.228c-0.021,0.059,0.063,0.095,0.09,0.038c1.132-2.381,0.922-5.048-0.062-7.471
				c0.037-0.006,0.074-0.023,0.099-0.069c0.359-0.662,0.562-1.111,1.267-1.47c0.435-0.22,0.915-0.409,1.288-0.727
				c0.354-0.3,1.228-1.223,0.54-1.663c-0.86-0.555-2.022-0.064-2.581,0.697c-0.47,0.642-0.765,1.465-0.675,2.261
				c-0.079,0.157-0.123,0.332-0.124,0.526c-0.15-0.334-0.313-0.663-0.491-0.985c-0.462-2.009-0.563-4.096,0.335-6.013
				c0.063-0.052,0.276-0.124,1.095-0.006c0.231,0.033,0.435,0.128,0.647,0.219c0.371,0.155,0.706,0.246,1.106,0.286
				c0.54,0.056,1.31-0.151,1.206-0.831c-0.113-0.742-1.242-1.021-1.848-0.976c-0.907,0.066-1.522,0.438-2.067,1.025
				c0.015-0.027,0.025-0.055,0.04-0.082c1.285-2.368,3.215-3.258,5.484-3.873c0.934,0.452,1.666,1.367,2.647,1.729
				c0.675,0.25,2.016,0.099,2.145-0.807c0.141-1.004-0.846-1.583-1.676-1.826c-0.59-0.174-1.231-0.19-1.842-0.172
				c-0.324,0.008-0.694-0.006-1.039,0.044c-1.662,0.049-3.175,0.7-4.401,1.719c-0.153-1.398,1.231-1.763,1.464-2.599
				c0.116-0.417,0.071-1.017-0.509-0.922c-0.757,0.123-1.231,0.999-1.358,1.673c-0.127,0.671-0.15,1.424,0.211,2.013
				c-1.527,1.352-2.57,3.279-2.837,5.306c-0.229-0.331-0.518-0.686-0.79-1.055c-0.297-1.181,1.024-2.521-0.392-3.343
				c-0.069-0.04-0.184-0.02-0.241,0.03c-1.639,1.42,0.191,3.479,1.395,4.613c-0.07,0.703-0.046,1.412,0.084,2.113
				c-0.716-0.936-1.535-1.774-2.412-2.458c-0.945-0.736-1.939-1.387-2.955-2.006c-0.088-0.172-0.176-0.35-0.261-0.53
				c0.136-0.778,0.26-1.526,0.73-2.22c0.249-0.367,0.628-0.847,0.602-1.32c-0.062-1.044-1.252-1.241-1.987-0.744
				c-1.175,0.792-0.514,2.615,0.265,4.033c0.009,0.138,0.023,0.274,0.041,0.411c-0.772-0.461-1.547-0.915-2.319-1.376
				c0.021-0.019,0.029-0.055,0.005-0.078c-0.498-0.479-1.026-1.15-1.443-1.896c-0.056-0.974,0.311-1.803,0.723-2.685
				c0.277-0.59,0.349-0.997,0.111-1.605c-0.369-0.941-1.695-0.234-1.936,0.413c-0.606,1.627,0.367,4.19,1.803,5.399
				c-0.53-0.327-1.056-0.661-1.572-1.016c-1.335-0.918-2.455-1.888-3.385-2.956c-0.197-0.494-0.251-1.053-0.254-1.612
				c0.158-0.813,0.547-1.428,1.109-2.098c0.345-0.411,0.821-0.914,0.919-1.467c0.136-0.777-0.775-1.69-1.545-1.155
				c-0.957,0.665-0.977,2.188-0.985,3.23c-0.003,0.282-0.009,0.594-0.003,0.912c-0.059,0.398-0.033,0.807,0.092,1.176
				c0.001,0.005,0.004,0.008,0.006,0.013c0.016,0.087,0.032,0.173,0.054,0.257c-0.988-1.308-1.708-2.771-2.188-4.46
				c0.007,0.001,0.014,0.003,0.02,0.005c0.028,0.007,0.038-0.035,0.013-0.047c-0.017-0.008-0.033-0.02-0.052-0.028
				c-0.066-0.241-0.129-0.486-0.187-0.736c0.494-1.645,1.277-3.512,0.907-5.157c-0.215-0.959-1.541-2.608-2.574-1.426
				c-0.868,0.995-0.708,2.74-0.361,3.92c0.258,0.873,0.582,2.125,1.281,2.878c0.019,0.146,0.06,0.288,0.124,0.429
				c0.245,3.496,2.649,6.252,5.48,8.46c-1.224-0.21-2.584-0.066-3.854,0.236c-0.291-0.019-0.635-0.045-0.987-0.091
				c-0.588-0.615-0.89-1.467-1.5-2.09c-0.646-0.653-1.286-0.134-1.306,0.679c-0.028,1.011,0.826,1.553,1.713,1.801
				c0.176,0.05,0.379,0.098,0.594,0.137c-0.406,0.142-0.791,0.292-1.139,0.445c-0.934,0.41-1.866,0.939-2.69,1.582
				c-0.45-0.181-0.894-0.348-1.33-0.584c-0.423-0.229-0.864-0.438-1.364-0.387c-0.54,0.053-1.417,0.462-1.119,1.171
				c0.358,0.856,1.591,1.137,2.428,0.962c0.065-0.015,0.127-0.034,0.19-0.051c-0.772,0.88-1.315,1.914-1.459,3.104
				c-0.399,0.738-0.479,1.825-0.505,2.554C166.473,297.401,166.695,298.673,167.513,298.708z M185.267,290.218
				c0.001-0.004,0.001-0.008,0.002-0.013c0.005,0.007,0.01,0.015,0.014,0.022C185.278,290.225,185.272,290.221,185.267,290.218z"/>
		</g>
	</g>
	<g>
		<path fill="#F4A525" d="M336.386,352.947c0.042-0.039,0.104-0.054,0.165-0.012c0.99,0.651,1.315,2.5,1.459,3.584
			c0.099,0.727,0.056,1.479-0.224,2.111c0.108-0.079,0.217-0.157,0.329-0.232c0.349-0.237,0.711-0.443,1.082-0.63
			c-0.005-0.02-0.002-0.041,0.017-0.053c0.798-0.523,1.472-1.068,1.943-1.791c-0.801-0.421-0.995-1.354-0.967-2.202
			c0.026-0.84,0.393-2.192,1.106-2.708c0.019-0.013,0.045-0.021,0.068-0.023c0-0.004,0-0.008-0.001-0.012
			c-0.015-0.132,0.144-0.181,0.224-0.092c1.622,1.791,0.751,4.954-1.11,6.332c0.83-0.304,1.696-0.532,2.568-0.735
			c1.885-1.363,5.247-4.655,7.367-2.619c0.06,0.057,0.045,0.144-0.018,0.176c0.015,0.024,0.021,0.054,0.001,0.087
			c-1.187,2.036-4.086,2.388-6.373,2.551c-1.251,0.397-2.501,0.774-3.692,1.295c2.151,0.146,4.566,3.054,4.26,5.099
			c0.034,0.049,0.036,0.117-0.022,0.169c-1.65,1.441-2.836-2.804-2.605-3.854c0.011-0.051,0.041-0.12,0.084-0.178
			c-1.189-0.926-2.433-0.828-3.76-0.112c-0.008,0.005-0.012-0.001-0.019-0.005c-0.165,0.113-0.328,0.23-0.489,0.354
			c-0.088,0.067-0.171,0.138-0.256,0.208c1.632,0.005,3.663,3.241,3.371,4.572c-0.017,0.075-0.1,0.105-0.155,0.067
			c-0.459,0.375-1.433-0.656-1.599-0.981c-0.213-0.424-0.246-0.85-0.147-1.309c0.05-0.229,0.11-0.549,0.257-0.768
			c-0.594-0.821-1.352-1.361-2.33-1.057c-0.717,0.671-1.354,1.42-1.946,2.207c1.484-0.033,2.987,2.28,2.582,3.576
			c-0.011,0.036-0.042,0.052-0.076,0.054c-0.204,0.472-0.871-0.03-1.036-0.332c-0.28-0.512-0.417-1.541-0.042-2.038
			c-0.394-0.572-0.924-0.975-1.656-0.952c-0.733,1.003-1.411,2.058-2.104,3.083c0.265-0.033,0.548,0.006,0.823,0.113
			c0.013,0.001,0.027,0.007,0.041,0.016c0.063,0.027,0.124,0.055,0.185,0.09c0.677,0.366,1.534,1.247,1.528,2.083
			c0.042,0.053,0.047,0.143-0.012,0.198c-0.493,0.466-1.263,0.238-1.668-0.239c-0.306-0.362-0.493-1.296-0.302-1.849
			c-0.121-0.049-0.248-0.088-0.38-0.108c-0.174-0.023-0.324,0.005-0.464,0.061c-0.17,0.247-0.341,0.492-0.514,0.733
			c-0.908,1.26-1.966,2.444-3.146,3.475c1.389-0.087,2.901,1.485,2.902,2.846c0,0.08-0.106,0.149-0.162,0.065
			c0-0.002-0.001-0.003-0.003-0.005c-0.049,0.107-0.162,0.191-0.283,0.215c-0.266,0.052-0.475-0.118-0.646-0.301
			c-0.413-0.441-0.839-1.464-0.572-2.061c0.006-0.012,0.014-0.019,0.02-0.028c-0.451-0.363-0.976-0.539-1.542-0.486
			c-1.17,0.982-2.453,1.809-3.825,2.413c1.222,0.313,2.267,1.604,2.105,2.893c-0.003,0.027-0.018,0.044-0.038,0.056
			c-0.007,0.068-0.046,0.114-0.118,0.132c-0.627,0.15-1.307-0.286-1.599-0.809c-0.241-0.435-0.136-1.267,0.261-1.637
			c-0.258-0.25-0.558-0.432-0.9-0.511c-1.954,0.809-4.079,1.165-6.304,0.863c-0.154-0.021-0.151-0.25,0.001-0.271
			c1.802-0.234,3.484-0.464,5.104-0.977c0.432-0.585,0.758-1.267,0.965-1.957c-1.479-0.669-1.559-2.832-0.437-3.854
			c0.04-0.037,0.085-0.049,0.125-0.043c0.042-0.025,0.096-0.027,0.146,0.016c0.965,0.771,1.004,2.326,0.815,3.441
			c-0.151,0.893-0.561,1.627-1.134,2.235c0.9-0.319,1.78-0.733,2.651-1.3c0.482-0.313,0.939-0.65,1.374-1.008
			c0.243-0.617,0.388-1.278,0.468-1.928c0.003-0.036,0.006-0.07,0.009-0.104c-0.003-0.002-0.007-0.002-0.013-0.004
			c-0.613-0.231-1.036-1.051-1.312-1.613c-0.323-0.657-0.319-1.532,0.201-2.086c0.109-0.115,0.293-0.047,0.301,0.091
			c0.004,0.001,0.006,0.001,0.009,0.003c1.083,0.539,1.397,2.084,1.333,3.187c-0.043,0.713-0.202,1.384-0.471,2.003
			c1.505-1.344,2.743-2.928,3.919-4.597c0.05-0.426-0.015-0.863-0.158-1.291c-0.149,0.123-0.395,0.135-0.582,0.093
			c-0.386-0.086-0.674-0.44-0.88-0.754c-0.173-0.264-0.809-1.73-0.335-2.031c0.004-0.05,0.04-0.094,0.104-0.09
			c1.017,0.081,1.63,1.545,1.916,2.368c0.138,0.398,0.226,0.864,0.208,1.313c0.055-0.078,0.108-0.156,0.163-0.234
			c0.642-0.93,1.287-1.854,1.982-2.729c0.041-0.214,0.067-0.434,0.08-0.656c-0.002,0-0.002,0-0.003-0.001
			c-0.801-0.679-1.899-2.191-1.252-3.279c0.043-0.071,0.141-0.052,0.188,0.002c1.408,0.319,1.601,2.1,1.268,3.587
			c0.76-0.924,1.585-1.787,2.531-2.541c0.227-0.463,0.324-0.978,0.338-1.501c-0.407-0.382-1.026-0.535-1.366-0.996
			c-0.257-0.349-0.399-0.76-0.506-1.179C335.611,354.638,335.479,353.17,336.386,352.947z"/>
	</g>
	<g>
		<path fill="#639CD4" d="M229.171,282.381c0.123-0.642,0.469-1.18,1.061-1.476c0.642-0.321,1.613-0.124,2.078,0.425
			c0.016,0.007,0.033,0.011,0.047,0.021c1.237,0.84,2.109,2.871,1.788,4.342c-0.37,1.682-2.489,2.023-3.632,0.927
			C229.446,285.596,228.895,283.833,229.171,282.381z"/>
	</g>
	<g>
		<path fill="#F15E27" d="M240.109,290.313c-0.689,0.954-1.796,0.388-2.417-0.307c-0.686-0.769-1.193-1.951-1.023-2.995
			c0.196-1.189,1.619-1.786,2.651-1.233C240.999,286.23,240.994,289.089,240.109,290.313z"/>
	</g>
	<g>
		<path fill="#F15E27" d="M233.14,294.73c-0.797,0.072-1.629-0.32-2.301-0.706c-0.616-0.352-1.393-0.925-1.482-1.688
			c-0.137-1.156,1.373-1.524,2.223-1.3c0.033,0.009,0.059,0.031,0.08,0.057c0.239,0.066,0.463,0.193,0.663,0.336
			c0.588,0.422,1.112,1.07,1.452,1.709C234.129,293.804,234.02,294.651,233.14,294.73z"/>
	</g>
	<g>
		<path fill="#639CD4" d="M242.098,291.592c-0.56-1.265-0.168-2.935,0.564-4.041c0.72-1.087,2.824-1.866,3.644-0.426
			c0,0.002,0,0.003,0,0.004c1.273,1.396,0.785,3.722-0.653,4.882C244.492,292.948,242.776,293.118,242.098,291.592z"/>
	</g>
	<g>
		<path fill="#639CD4" d="M238.498,293.762c1.081-0.396,2.488,0.598,2.155,1.876c-0.295,1.132-1.24,2.084-2.458,1.619
			c-0.849-0.323-1.584-1.271-1.562-2.194C236.658,294.053,237.62,293.68,238.498,293.762z"/>
	</g>
	<g>
		<path fill="#F15E27" d="M239.427,301.868c0.342-1.437,2.195-2.244,3.409-1.231c0.059,0.049,0.096,0.115,0.115,0.187
			c0.979,0.557,1.646,1.628,1.254,2.82c-0.466,1.415-2.192,2.492-3.566,1.642C239.578,304.63,239.15,303.023,239.427,301.868z"/>
	</g>
	<g>
		<path fill="#F4A525" d="M231.762,299.684c0.363-1.257,2.98-2.15,3.823-0.336c0.287,0.615,0.309,1.317,0.054,1.93
			c-0.456,1.105-2.006,1.827-3.06,1.134C231.728,301.851,231.493,300.606,231.762,299.684z"/>
	</g>
	<g>
		<path fill="#F4A525" d="M249.635,292.547c0.351-1.046,1.621-2.252,2.797-1.921c0.084,0.024,0.132,0.098,0.141,0.178
			c0.35,0.166,0.679,0.349,0.82,0.746c0.175,0.49-0.08,1.014-0.341,1.418c-0.525,0.81-1.681,2.251-2.829,1.823
			C249.345,294.466,249.394,293.262,249.635,292.547z"/>
	</g>
	<g>
		<path fill="#639CD4" d="M316.451,325.833c0.65,0.066,1.216,0.366,1.562,0.93c0.373,0.614,0.261,1.599-0.246,2.107
			c-0.007,0.017-0.008,0.032-0.019,0.049c-0.731,1.305-2.681,2.347-4.173,2.151c-1.707-0.226-2.229-2.307-1.232-3.538
			C313.272,326.381,314.979,325.682,316.451,325.833z"/>
	</g>
	<g>
		<path fill="#F15E27" d="M309.482,337.408c-1.011-0.605-0.538-1.756,0.099-2.434c0.707-0.75,1.843-1.357,2.897-1.276
			c1.201,0.094,1.919,1.462,1.456,2.536C313.626,337.946,310.776,338.186,309.482,337.408z"/>
	</g>
	<g>
		<path fill="#F15E27" d="M304.484,330.841c-0.14-0.788,0.182-1.651,0.508-2.354c0.299-0.644,0.802-1.465,1.555-1.62
			c1.141-0.234,1.638,1.237,1.485,2.104c-0.006,0.034-0.027,0.061-0.049,0.084c-0.046,0.244-0.154,0.479-0.277,0.689
			c-0.371,0.623-0.973,1.2-1.58,1.593C305.493,331.747,304.64,331.711,304.484,330.841z"/>
	</g>
	<g>
		<path fill="#639CD4" d="M308.377,339.498c1.213-0.666,2.909-0.419,4.074,0.219c1.146,0.622,2.1,2.652,0.735,3.592
			c-0.002,0.002-0.003,0.002-0.003,0.002c-1.283,1.388-3.642,1.1-4.92-0.234C307.229,342,306.914,340.305,308.377,339.498z"/>
	</g>
	<g>
		<path fill="#639CD4" d="M305.907,336.097c0.487,1.044-0.384,2.529-1.686,2.307c-1.151-0.197-2.18-1.056-1.821-2.311
			c0.25-0.873,1.131-1.686,2.053-1.744C305.462,334.287,305.915,335.216,305.907,336.097z"/>
	</g>
	<g>
		<path fill="#F15E27" d="M297.911,337.714c1.46,0.217,2.422,1.995,1.516,3.291c-0.042,0.063-0.104,0.106-0.175,0.132
			c-0.472,1.022-1.482,1.778-2.703,1.489c-1.45-0.344-2.67-1.971-1.939-3.413C295.172,338.101,296.735,337.537,297.911,337.714z"/>
	</g>
	<g>
		<path fill="#F4A525" d="M299.433,329.889c1.284,0.255,2.397,2.787,0.661,3.783c-0.589,0.337-1.285,0.419-1.919,0.217
			c-1.139-0.36-1.99-1.842-1.391-2.951C297.271,330.039,298.491,329.701,299.433,329.889z"/>
	</g>
	<g>
		<path fill="#F4A525" d="M308.068,347.089c1.073,0.261,2.383,1.425,2.152,2.624c-0.017,0.085-0.085,0.138-0.164,0.154
			c-0.136,0.363-0.29,0.707-0.674,0.882c-0.474,0.216-1.016,0.008-1.441-0.219c-0.852-0.454-2.387-1.482-2.06-2.663
			C306.132,346.964,307.335,346.909,308.068,347.089z"/>
	</g>
	<g>
		<path fill="#F4A525" d="M311.183,325.231c0.044,0.317,0.013,0.688-0.203,0.941c-0.434,0.507-1.197,0.33-1.718,0.073
			c-0.603-0.299-1.187-0.763-1.486-1.378c-0.328-0.675,0.066-1.31,0.737-1.529c0.503-0.165,1.663-0.397,2.364,0.771
			C311.089,324.463,311.133,324.859,311.183,325.231z"/>
	</g>
	<g>
		<g>
			<path fill="#594A42" d="M382.706,334.772c-0.429,0.135-0.676,0.793-0.302,1.058c0.399,0.321,0.912,0.037,1.4-0.604l0.025-0.022
				C383.528,334.816,383.157,334.611,382.706,334.772z"/>
			<path fill="#E6E7E8" d="M389.993,340.154c0.537,0.262,1.075,0.534,1.606,0.818c0.097,0.051,0.196,0.102,0.294,0.156l0.052-0.099
				c-0.081-1.17,0.378-2.431,0.748-3.522c0.456-1.251,1.041-2.425,1.811-3.486c0.92-1.226,2.36-2.545,3.951-3.135l-0.015-0.032
				c-0.133-0.796-0.395-1.787-0.795-2.48c-1.09-1.864-3.301-1.864-5.083-1.009c-5.006,2.34-4.77,8.558-2.534,12.713L389.993,340.154
				z"/>
			<path fill="#F1F2F2" d="M391.945,341.03l-0.052,0.099c0.436,0.232,0.873,0.469,1.305,0.708c0.597,0.331,1.189,0.663,1.782,0.987
				l0.032-0.06c2.796-0.265,5.988-1.13,7.879-3.341c1.116-1.33,1.649-3.247,1.276-4.951c-0.347-1.516-1.702-3.542-3.353-3.833
				c-0.793-0.149-1.593-0.032-2.36,0.247c-1.591,0.59-3.031,1.909-3.951,3.135c-0.77,1.062-1.354,2.235-1.811,3.486
				C392.323,338.6,391.864,339.86,391.945,341.03z"/>
			<path fill="#594A42" d="M392.035,353.159c0.752,0.302,1.546,0.458,2.364,0.374c0.377-0.032,0.791-0.116,1.217-0.244l-0.007-0.027
				c0.603-1.012,1.178-2.156,1.636-3.258c0.41-0.961,0.604-1.901,0.713-2.932c0.051-0.689,0.04-1.617,0.127-2.312l0.036-0.047
				c-0.738-0.542-1.553-1.007-2.301-1.422l-0.029,0.054c-0.124,1.953-0.337,4.171-0.85,6.054c-0.412,1.492-1.157,2.624-2.471,3.461
				c-0.087,0.069-0.315,0.207-0.421,0.263L392.035,353.159z"/>
			<path fill="#594A42" d="M386.439,348.389c0.559,0.781,1.182,1.509,1.888,2.164c0.328,0.301,0.672,0.617,1.041,0.92l0.086-0.104
				c1.244-0.959,2.008-2.555,2.593-3.977c0.658-1.596,1.027-3.301,1.134-5.021c0-0.128,0-0.397,0-0.503l0.018-0.032
				c-0.432-0.239-0.869-0.476-1.305-0.708c-0.098-0.055-0.197-0.105-0.294-0.156c-0.232,3.107-2.164,5.41-4.646,7.096
				c-0.124,0.069-0.363,0.219-0.469,0.288L386.439,348.389z"/>
			<path fill="#F4A525" d="M398.085,344.761c-0.087,0.694-0.076,1.622-0.127,2.312c-0.109,1.03-0.303,1.971-0.713,2.932
				c-0.458,1.102-1.033,2.246-1.636,3.258l0.007,0.027c2.288-0.68,4.985-2.617,4.854-4.973c-0.078-1.531-1.099-2.683-2.35-3.603
				L398.085,344.761z"/>
			<path fill="#F4A525" d="M393.181,342.372c-0.106,1.72-0.476,3.425-1.134,5.021c-0.585,1.422-1.349,3.018-2.593,3.977
				l-0.086,0.104c0.806,0.672,1.704,1.297,2.667,1.687l0.015-0.036c0.105-0.056,0.334-0.193,0.421-0.263
				c1.313-0.837,2.059-1.969,2.471-3.461c0.513-1.883,0.726-4.101,0.85-6.054l0.029-0.054c-0.255-0.142-0.498-0.276-0.73-0.407
				c-0.037-0.018-0.074-0.04-0.109-0.061c-0.593-0.324-1.186-0.656-1.782-0.987l-0.018,0.032
				C393.181,341.975,393.181,342.244,393.181,342.372z"/>
			<path fill="#F4A525" d="M386.298,338.577c-0.17-0.063-0.345-0.116-0.526-0.164c-0.905-0.374-1.731,0.48-2.102,1.251
				c-0.506,1.09-0.294,2.37,0.104,3.461c0.662,1.827,1.521,3.652,2.665,5.264l0.045-0.032c0.105-0.069,0.345-0.219,0.469-0.288
				c2.482-1.686,4.414-3.988,4.646-7.096c-0.531-0.284-1.069-0.557-1.606-0.818c-0.774-0.375-1.561-0.72-2.356-1.021
				C387.175,338.959,386.75,338.744,386.298,338.577z"/>
			<g>
				<path fill="#594A42" d="M386.179,334.781c-0.21-0.396-1.115-0.904-1.115-0.105c0,0.479,0.257,1.011,1.242,0.407
					C386.271,334.977,386.229,334.879,386.179,334.781z"/>
			</g>
			<path fill="none" stroke="#2B2E31" stroke-width="0.5" stroke-miterlimit="10" d="M391.6,340.973
				c-0.232,3.107-2.164,5.41-4.646,7.096c-0.124,0.069-0.363,0.219-0.469,0.288"/>
			<path fill="none" stroke="#2B2E31" stroke-width="0.5" stroke-miterlimit="10" d="M389.454,351.369
				c1.244-0.959,2.008-2.555,2.593-3.977c0.658-1.596,1.027-3.301,1.134-5.021c0-0.128,0-0.397,0-0.503"/>
			<path fill="none" stroke="#2B2E31" stroke-width="0.5" stroke-miterlimit="10" d="M395.791,343.346
				c-0.124,1.953-0.337,4.171-0.85,6.054c-0.412,1.492-1.157,2.624-2.471,3.461c-0.087,0.069-0.315,0.207-0.421,0.263"/>
			<path fill="none" stroke="#2B2E31" stroke-width="0.5" stroke-miterlimit="10" d="M398.085,344.761
				c-0.087,0.694-0.076,1.622-0.127,2.312c-0.109,1.03-0.303,1.971-0.713,2.932c-0.458,1.102-1.033,2.246-1.636,3.258"/>
		</g>
		<path fill="#594A42" d="M382.18,335.828c0.572,0.593,1.196,0.129,1.636-0.367c0.03,0.044,0.057,0.088,0.078,0.127
			c0.227,0.409,0.396,0.846,0.524,1.296c0.173,0.606,0.3,1.22,0.41,1.839c0.035,0.204,0.345,0.118,0.31-0.084
			c-0.167-0.943-0.664-4.438-2.254-4.071C382.43,334.672,381.689,335.321,382.18,335.828z M382.462,335.178
			c0.408-0.556,0.854-0.303,1.155,0.025c-0.091,0.112-0.188,0.221-0.294,0.318C383.036,335.407,382.75,335.292,382.462,335.178z"/>
		<path fill="#594A42" d="M386.562,337.46c0.057-0.819,0.123-1.62-0.101-2.421c-0.144-0.397-0.372-0.707-0.774-0.875
			c-0.296-0.125-0.692-0.079-0.762,0.3c-0.058,0.315-0.01,0.72,0.263,0.928c0.302,0.229,0.695,0.099,1.012-0.065
			c0.136,0.623,0.104,1.24,0.059,1.88c-0.051,0.723-0.057,1.454-0.349,2.13c-0.081,0.188,0.194,0.351,0.276,0.161
			C386.471,338.842,386.513,338.164,386.562,337.46z M386.104,335.015c-0.224,0.127-0.569,0.292-0.749,0.1
			c-0.122-0.133-0.168-0.393-0.12-0.566c0.063-0.225,0.308-0.115,0.452-0.025C385.896,334.652,386.013,334.806,386.104,335.015z"/>
		<path fill="#594A42" d="M385.248,341.076c0.331,0.77,1.573,0.898,1.816-0.008c0.053-0.201,0.362-0.115,0.31,0.086
			c-0.309,1.151-1.956,1.124-2.403,0.085C384.89,341.051,385.168,340.887,385.248,341.076z"/>
	</g>
	<g>
		<path fill="#594A42" d="M232.583,347.021c0.429,0.135,0.676,0.793,0.302,1.059c-0.4,0.319-0.913,0.036-1.399-0.604l-0.026-0.021
			C231.762,347.064,232.132,346.861,232.583,347.021z"/>
		<path fill="#E6E7E8" d="M225.296,352.403c-0.537,0.263-1.076,0.534-1.604,0.818c-0.101,0.051-0.198,0.103-0.296,0.156
			l-0.052-0.099c0.081-1.171-0.377-2.433-0.749-3.523c-0.454-1.25-1.04-2.424-1.811-3.484c-0.919-1.227-2.359-2.547-3.952-3.135
			l0.016-0.033c0.134-0.797,0.396-1.789,0.796-2.479c1.091-1.864,3.301-1.864,5.083-1.01c5.007,2.341,4.77,8.557,2.532,12.713
			L225.296,352.403z"/>
		<path fill="#F1F2F2" d="M223.344,353.279l0.052,0.099c-0.438,0.233-0.873,0.468-1.305,0.709c-0.598,0.331-1.188,0.661-1.782,0.985
			l-0.032-0.059c-2.796-0.266-5.988-1.131-7.879-3.341c-1.116-1.331-1.65-3.247-1.275-4.952c0.345-1.517,1.7-3.54,3.352-3.831
			c0.793-0.149,1.592-0.032,2.358,0.247c1.593,0.588,3.033,1.908,3.952,3.135c0.771,1.061,1.356,2.234,1.811,3.484
			C222.967,350.847,223.425,352.108,223.344,353.279z"/>
		<path fill="#594A42" d="M223.253,365.407c-0.753,0.302-1.545,0.458-2.363,0.376c-0.377-0.034-0.792-0.117-1.217-0.245l0.006-0.029
			c-0.603-1.009-1.177-2.155-1.635-3.257c-0.411-0.96-0.604-1.901-0.713-2.93c-0.051-0.691-0.039-1.619-0.127-2.313l-0.037-0.049
			c0.739-0.541,1.552-1.006,2.302-1.421l0.03,0.055c0.122,1.952,0.337,4.171,0.849,6.054c0.412,1.49,1.156,2.625,2.469,3.462
			c0.088,0.068,0.316,0.207,0.423,0.261L223.253,365.407z"/>
		<path fill="#594A42" d="M228.849,360.639c-0.557,0.781-1.182,1.509-1.888,2.161c-0.326,0.304-0.673,0.619-1.039,0.921
			l-0.087-0.102c-1.244-0.961-2.007-2.557-2.592-3.978c-0.659-1.597-1.029-3.301-1.135-5.021c0-0.127,0-0.396,0-0.501l-0.018-0.032
			c0.432-0.241,0.867-0.476,1.305-0.709c0.098-0.054,0.195-0.105,0.296-0.156c0.23,3.108,2.161,5.409,4.645,7.097
			c0.124,0.068,0.364,0.219,0.469,0.287L228.849,360.639z"/>
		<path fill="#F4A525" d="M217.204,357.01c0.088,0.693,0.076,1.621,0.127,2.313c0.109,1.028,0.302,1.97,0.713,2.93
			c0.458,1.102,1.032,2.248,1.635,3.257l-0.006,0.029c-2.287-0.68-4.984-2.616-4.854-4.974c0.077-1.53,1.099-2.683,2.349-3.604
			L217.204,357.01z"/>
		<path fill="#F4A525" d="M222.108,354.62c0.105,1.721,0.476,3.425,1.135,5.021c0.585,1.421,1.348,3.017,2.592,3.978l0.087,0.102
			c-0.808,0.673-1.705,1.298-2.669,1.687l-0.014-0.036c-0.106-0.054-0.335-0.192-0.423-0.261c-1.313-0.837-2.057-1.972-2.469-3.462
			c-0.512-1.883-0.727-4.102-0.849-6.054l-0.03-0.055c0.255-0.14,0.499-0.274,0.73-0.406c0.037-0.018,0.073-0.04,0.109-0.062
			c0.594-0.324,1.185-0.654,1.782-0.985l0.018,0.032C222.108,354.225,222.108,354.493,222.108,354.62z"/>
		<path fill="#F4A525" d="M228.99,350.825c0.171-0.062,0.346-0.116,0.528-0.163c0.904-0.375,1.729,0.479,2.101,1.25
			c0.506,1.091,0.294,2.371-0.104,3.461c-0.663,1.829-1.521,3.654-2.666,5.266l-0.044-0.033c-0.104-0.068-0.345-0.219-0.469-0.287
			c-2.483-1.688-4.414-3.988-4.645-7.097c0.528-0.284,1.067-0.556,1.604-0.818c0.775-0.375,1.561-0.72,2.355-1.021
			C228.112,351.207,228.539,350.992,228.99,350.825z"/>
		<g>
			<path fill="#594A42" d="M229.11,347.031c0.21-0.397,1.115-0.905,1.115-0.106c0,0.48-0.257,1.011-1.243,0.407
				C229.02,347.227,229.06,347.128,229.11,347.031z"/>
		</g>
		<path fill="none" stroke="#2B2E31" stroke-width="0.5" stroke-miterlimit="10" d="M223.691,353.222
			c0.23,3.108,2.161,5.409,4.645,7.097c0.124,0.068,0.364,0.219,0.469,0.287"/>
		<path fill="none" stroke="#2B2E31" stroke-width="0.5" stroke-miterlimit="10" d="M225.835,363.619
			c-1.244-0.961-2.007-2.557-2.592-3.978c-0.659-1.597-1.029-3.301-1.135-5.021c0-0.127,0-0.396,0-0.501"/>
		<path fill="none" stroke="#2B2E31" stroke-width="0.5" stroke-miterlimit="10" d="M219.499,355.595
			c0.122,1.952,0.337,4.171,0.849,6.054c0.412,1.49,1.156,2.625,2.469,3.462c0.088,0.068,0.316,0.207,0.423,0.261"/>
		<path fill="none" stroke="#2B2E31" stroke-width="0.5" stroke-miterlimit="10" d="M217.204,357.01
			c0.088,0.693,0.076,1.621,0.127,2.313c0.109,1.028,0.302,1.97,0.713,2.93c0.458,1.102,1.032,2.248,1.635,3.257"/>
		<path fill="#594A42" d="M230.461,350.973c0.122-0.688,0.253-1.38,0.472-2.043c0.139-0.418,0.288-0.857,0.543-1.222
			c0.404,0.438,1.223,1.081,1.659,0.336c0.337-0.572-0.204-1.106-0.729-1.229c-1.59-0.366-2.088,3.129-2.255,4.071
			C230.116,351.09,230.425,351.176,230.461,350.973z M231.967,347.771c-0.108-0.1-0.205-0.208-0.298-0.323
			c0.27-0.264,0.654-0.273,1.157-0.022C232.539,347.541,232.253,347.656,231.967,347.771z"/>
		<path fill="#594A42" d="M230.134,347.615c0.23-0.209,0.332-0.656,0.218-0.949c-0.136-0.347-0.477-0.384-0.788-0.236
			c-0.381,0.18-0.596,0.471-0.735,0.859c-0.226,0.802-0.151,1.599-0.101,2.419c0.044,0.703,0.093,1.386,0.375,2.038
			c0.083,0.189,0.359,0.026,0.277-0.162c-0.293-0.675-0.298-1.406-0.35-2.129c-0.044-0.639-0.076-1.257,0.06-1.881
			C229.418,347.742,229.841,347.883,230.134,347.615z M230.064,346.862c0.004,0.158,0.001,0.426-0.156,0.522
			c-0.218,0.139-0.503,0.005-0.723-0.121c0.096-0.221,0.229-0.397,0.456-0.516C229.813,346.658,230.056,346.588,230.064,346.862z"/>
		<path fill="#594A42" d="M228.226,353.317c0.241,0.907,1.484,0.777,1.815,0.009c0.081-0.19,0.358-0.027,0.277,0.162
			c-0.446,1.038-2.095,1.067-2.402-0.087C227.862,353.201,228.172,353.116,228.226,353.317z"/>
	</g>
</g>
</svg>
